<ttFont>
<head>
    <!-- Most of this table will be recalculated by the compiler -->
    <tableVersion value="1.0"/>
    <fontRevision value="2.004"/>
    <checkSumAdjustment value="0x963a4f30"/>
    <magicNumber value="0x5f0f3cf5"/>
    <flags value="00000000 00000011"/>
    <unitsPerEm value="1000"/>
    <created value="Thu Oct  8 10:01:27 2009"/>
    <modified value="Thu Oct  8 10:01:27 2009"/>
    <xMin value="-557"/>
    <yMin value="-288"/>
    <xMax value="1802"/>
    <yMax value="1107"/>
    <macStyle value="00000000 00000011"/>
    <lowestRecPPEM value="3"/>
    <fontDirectionHint value="2"/>
    <indexToLocFormat value="0"/>
    <glyphDataFormat value="0"/>
  </head>
          <CharString index="0">
            hintmask 11100000
            -107 callgsubr
            return
          </CharString>
          <CharString index="1">
            579 287 rmoveto
            144 31 -59 105 -141 hhcurveto
            -139 -134 -124 -148 -32 hvcurveto
            -153 -32 93 -121 145 hhcurveto
            57 64 17 36 60 hvcurveto
            35 21 0 4 2 8 rrcurveto
            20 4 7 31 -17 hhcurveto
            -6 -5 -4 -6 -8 hvcurveto
            -47 -62 -68 -17 -49 hhcurveto
            -104 -60 90 103 16 hvcurveto
            349 hlineto
            21 23 0 41 9 hvcurveto
            -63 8 rmoveto
            -327 hlineto
            105 35 90 73 83 hhcurveto
            148 -24 -145 -33 -5 hvcurveto
            return
          </CharString>
          <CharString index="2">
            732 34 rmoveto
            35 8 -28 0 -16 hhcurveto
            -475 73 callgsubr
            423 hlineto
            14 30 0 33 7 hvcurveto
            33 7 -30 0 -14 hhcurveto
            -423 hlineto
            49 230 rlineto
            458 hlineto
            14 30 0 33 7 hvcurveto
            33 7 -30 0 -14 hhcurveto
            -508 -66 callgsubr
            525 hlineto
            15 29 0 34 7 hvcurveto
            return
          </CharString>
          <CharString index="3">
            130 callsubr
            84 callgsubr
            return
          </CharString>
          <CharString index="4">
            745 231 rmoveto
            87 409 rlineto
            21 4 5 23 -40 hhcurveto
            -40 -5 -23 -21 -4 hvcurveto
            -86 -406 rlineto
            -124 -27 -120 -65 -101 hhcurveto
            -96 -94 60 129 28 hvcurveto
            86 406 -96 callgsubr
            -87 -409 rlineto
            -145 -31 114 -107 159 hhcurveto
            159 153 109 143 30 hvcurveto
            return
          </CharString>
          <CharString index="5">
            632 259 rmoveto
            154 33 -94 123 -145 hhcurveto
            -146 -145 -124 -153 -33 hvcurveto
            -149 -32 94 -120 146 hhcurveto
            146 144 120 149 32 hvcurveto
            -78 11 rmoveto
            -164 -34 -111 -51 -85 hhcurveto
            -87 -87 53 162 34 hvcurveto
            158 34 114 45 81 hhcurveto
            81 94 -44 -159 -34 hvcurveto
            return
          </CharString>
          <CharString index="6">
            rlineto
            -20 -4 -5 -24 39 hhcurveto
            150 callgsubr
            return
          </CharString>
          <CharString index="7">
            rmoveto
            38 8 -21 0 -19 hhcurveto
            -9 hlineto
            -19 -21 0 -38 -8 hvcurveto
            -36 -8 16 -4 25 hhcurveto
            7 hlineto
            25 16 77 callsubr
            193 hmoveto
            38 8 -21 0 -19 hhcurveto
            -9 hlineto
            -19 -21 0 -38 -8 hvcurveto
            -36 -8 16 -4 25 hhcurveto
            7 hlineto
            25 16 77 callsubr
            return
          </CharString>
          <CharString index="8">
            664 188 rmoveto
            15 71 -32 39 -15 21 -42 52 -73 15 -57 12 -117 24 -21 4 -31 24 -22 17 -13 24 7 31 rrcurveto
            56 12 88 57 121 hhcurveto
            75 49 -17 -39 51 hvcurveto
            -8 9 154 callsubr
            4 7 23 9 hvcurveto
            2 7 13 30 4 vvcurveto
            3 10 -1 1 -27 12 rrcurveto
            33 -69 -62 7 -57 hhcurveto
            -172 -130 -96 -99 -21 hvcurveto
            -12 -57 22 -38 21 -25 44 -50 57 -11 100 -21 79 -16 25 -5 32 -24 26 -20 15 -30 -7 -36 rrcurveto
            -63 -14 -90 -63 -120 hhcurveto
            -62 -86 13 62 -84 hvcurveto
            7 -10 -2 0 -3 hhcurveto
            -11 -3 -7 -23 -9 hvcurveto
            -3 -7 -12 -30 -1 -4 rrcurveto
            return
          </CharString>
          <CharString index="9">
            481 148 rmoveto
            9 38 -9 36 -24 29 -35 40 -45 9 -44 8 -64 13 rcurveline
            -34 7 -45 23 9 45 rrcurveto
            78 17 108 0 17 hhcurveto
            76 36 -21 -13 25 hvcurveto
            -9 14 131 callsubr
            10 11 4 hvcurveto
            2 6 10 22 1 5 2 11 -6 3 -17 7 rrcurveto
            22 -48 -42 8 -57 hhcurveto
            -102 -111 -38 -111 -24 hvcurveto
            -25 -119 134 -25 38 -8 75 -14 17 -3 22 -17 15 -13 13 -19 -6 -28 rrcurveto
            -86 -18 -112 0 -19 hhcurveto
            -54 -59 14 38 -51 hvcurveto
            7 -7 -2 0 -4 hhcurveto
            -12 -2 -8 -15 -7 hvcurveto
            -2 -6 -10 -24 -1 -4 -2 -10 5 -3 18 -11 rrcurveto
            -18 31 62 -25 83 hhcurveto
            177 49 105 53 11 hvcurveto
            return
          </CharString>
          <CharString index="10">
            632 498 rmoveto
            23 5 -23 0 -6 hhcurveto
            -33 -17 -21 -3 -2 hvcurveto
            -3 -3 -222 -347 -29 -65 rrcurveto
            -1 hlineto
            -1 45 -12 51 -13 58 -56 248 rcurveline
            37 -8 -29 0 -11 hhcurveto
            -9 -21 0 -23 -5 hvcurveto
            -1 -4 0 -6 1 -3 115 -485 rcurveline
            -18 -27 0 -2 -3 -5 rrcurveto
            -15 -10 -25 -37 -76 hhcurveto
            -28 -25 4 7 -26 hvcurveto
            -4 2 -3 0 0 vvcurveto
            -11 -5 -8 -9 -2 hvcurveto
            -11 -51 9 -1 10 -2 rrcurveto
            -3 26 25 -2 26 hhcurveto
            86 67 47 65 41 hvcurveto
            329 517 3 5 4 6 2 7 rlinecurve
            return
          </CharString>
          <CharString index="11">
            hstemhm
            hintmask 11100000
            -106 callsubr
            return
          </CharString>
          <CharString index="12">
            631 259 rmoveto
            16 73 -13 70 -39 53 -2 3 -2 3 -3 2 92 61 rcurveline
            88 callgsubr
            14 69 rcurveline
            8 2 -5 6 -8 hhcurveto
            -69 66 callgsubr
            -5 5 -2 rlinecurve
            -38 -29 rlineto
            28 -36 -47 15 -51 hhcurveto
            -71 -73 -30 -51 -60 hvcurveto
            -62 -53 -41 -70 -16 -73 -15 -71 12 -69 39 -51 rrcurveto
            -50 39 62 -28 70 hhcurveto
            71 73 28 50 59 hvcurveto
            61 51 181 callgsubr
            -77 12 rmoveto
            -13 -57 -23 -58 -46 -44 rrcurveto
            -39 -42 -56 -19 -52 hhcurveto
            -52 -46 19 39 -25 hvcurveto
            -28 44 0 58 13 57 11 54 25 54 44 40 rrcurveto
            37 42 55 18 51 hhcurveto
            52 46 -18 -37 27 hvcurveto
            28 -40 0 -54 -11 -54 rrcurveto
            return
          </CharString>
          <CharString index="13">
            -45 callsubr
            hintmask 00100000
            -47 callgsubr
            hintmask 00010000
            -2 callsubr
            -10 hvcurveto
            hintmask 00100000
            -18 -3 -66 callsubr
            6 hvcurveto
            hintmask 00010000
            -48 callsubr
            hintmask 00100000
            -31 callgsubr
          </CharString>
          <CharString index="14">
            706 84 callsubr
            596 -34 callsubr
            -122 -576 -229 583 rlineto
            37 -15 -28 0 -20 hhcurveto
            -37 hlineto
            -34 -11 -8 -36 -8 hvcurveto
            -127 -596 -101 callsubr
            123 576 229 -583 rlineto
            -37 14 28 0 20 hhcurveto
            37 -62 callgsubr
            return
          </CharString>
          <CharString index="15">
            92 callgsubr
            hintmask 11001100
            -103 callsubr
            return
          </CharString>
          <CharString index="16">
            -20 -89 callgsubr
            return
          </CharString>
          <CharString index="17">
            1264 660 rmoveto
            24 5 -24 0 -5 hhcurveto
            -33 -16 -20 -21 -12 hvcurveto
            -224 -390 -96 -173 -1 27 -9 55 -4 31 rlinecurve
            -67 454 rlineto
            37 -6 -25 0 -20 hhcurveto
            -19 -26 0 -38 -22 hvcurveto
            -200 -350 -68 -119 -34 -58 -17 -37 rlinecurve
            -1 hlineto
            39 -13 89 -14 88 vhcurveto
            -51 346 rlineto
            40 -6 -22 0 -24 hhcurveto
            -15 -22 0 -24 -5 hvcurveto
            -1 -4 1 -6 1 -3 94 -615 rcurveline
            -39 6 24 0 20 hhcurveto
            20 25 0 40 22 hvcurveto
            200 350 76 132 28 49 18 38 rlinecurve
            2 -38 9 -64 16 -105 53 -361 rcurveline
            -41 7 23 0 23 hhcurveto
            22 24 0 39 22 hvcurveto
            354 611 3 5 3 7 1 5 rlinecurve
            return
          </CharString>
          <CharString index="18">
            747 59 rmoveto
            5 45 rlineto
            7 1 -5 6 -7 hhcurveto
            -3 -2 -1 -1 -3 hvcurveto
            -38 -19 -39 -19 -40 -10 rrcurveto
            -10 -40 -40 -1 -39 hhcurveto
            -79 -70 29 55 -45 hvcurveto
            -44 53 -18 72 17 77 16 77 48 72 67 53 rrcurveto
            55 68 82 29 79 hhcurveto
            35 36 -3 -9 33 hvcurveto
            32 -8 30 -15 27 -18 rrcurveto
            -1 2 152 callsubr
            7 6 5 6 2 hvcurveto
            24 59 2 9 -3 5 -6 2 rlinecurve
            -33 11 -35 10 -37 6 rrcurveto
            5 -37 -37 2 -38 hhcurveto
            -102 -108 -34 -68 -90 hvcurveto
            -85 -64 -63 -90 -20 -96 -21 -96 25 -90 58 -64 rrcurveto
            -68 61 93 -34 102 hhcurveto
            41 43 1 9 42 hvcurveto
            43 10 42 17 42 19 5 2 4 5 2 6 rrcurveto
            return
          </CharString>
          <CharString index="19">
            503 489 rmoveto
            3 14 rlineto
            21 4 2 7 -21 hhcurveto
            -26 -114 -9 -134 -93 hvcurveto
            -1 hlineto
            19 89 rlineto
            18 4 6 211 callsubr
            -6 -25 -19 -4 -72 callgsubr
            46 215 26 121 111 76 104 5 rlinecurve
            20 1 3 0 6 27 rrcurveto
            return
          </CharString>
          <CharString index="20">
            911 497 rmoveto
            24 5 -23 0 -7 hhcurveto
            -16 -24 -4 -34 -18 hvcurveto
            -217 -401 -46 398 rlineto
            17 -2 -3 24 -35 hhcurveto
            -35 -13 -24 -15 -9 hvcurveto
            -156 -288 -25 -47 -14 -26 -19 -39 rlinecurve
            -1 hlineto
            38 -4 30 -5 47 vhcurveto
            -33 282 rlineto
            20 -3 -2 22 -37 hhcurveto
            -8 -23 0 -24 -5 hvcurveto
            -1 -4 -1 -2 2 -14 52 -442 rcurveline
            -38 5 25 0 16 hhcurveto
            40 11 20 23 13 hvcurveto
            128 237 31 57 28 54 22 51 rlinecurve
            1 hlineto
            -44 6 -60 7 -55 vhcurveto
            27 -243 rlineto
            -40 4 24 0 22 hhcurveto
            19 27 0 37 20 hvcurveto
            240 443 8 14 1 2 1 4 rlinecurve
            return
          </CharString>
          <CharString index="21">
            151 callgsubr
            92 433 rlineto
            21 5 5 23 -40 hhcurveto
            -40 -5 -23 -21 -5 hvcurveto
            -60 -284 rlineto
            -89 -19 -78 -54 -92 hhcurveto
            -94 -7 29 62 13 hvcurveto
            return
          </CharString>
          <CharString index="22">
            709 12 callsubr
            -53 -251 rlineto
            -400 hlineto
            53 251 rlineto
            144 callgsubr
            -55 callsubr
            60 279 202 callgsubr
            -60 -279 -55 callsubr
            return
          </CharString>
          <CharString index="23">
            536 74 rmoveto
            13 2 9 41 -18 hhcurveto
            -6 -2 -3 -7 -11 hvcurveto
            -48 -65 -63 -15 -55 hhcurveto
            -106 -57 88 118 25 hvcurveto
            105 23 80 105 128 hhcurveto
            69 32 -12 -28 42 hvcurveto
            -10 12 154 callsubr
            5 10 11 4 hvcurveto
            2 6 10 22 1 5 2 9 -1 1 -21 13 rrcurveto
            28 -51 -38 10 -71 hhcurveto
            -168 -128 -139 -136 -29 hvcurveto
            -147 -31 85 -124 150 hhcurveto
            15 52 0 25 64 hvcurveto
            27 11 61 29 4 19 rrcurveto
            return
          </CharString>
          <CharString index="24">
            92 433 rlineto
            20 5 5 24 -39 hhcurveto
            -39 -5 -24 -20 -5 -72 callgsubr
            return
          </CharString>
          <CharString index="25">
            rlineto
            -34 -7 6 -10 36 hhcurveto
            return
          </CharString>
          <CharString index="26">
            988 648 rmoveto
            33 7 -30 0 -14 hhcurveto
            -717 hlineto
            -14 -30 0 -33 -7 hvcurveto
            -33 -7 30 0 14 hhcurveto
            312 hlineto
            -122 -571 -6 callsubr
            571 52 callsubr
            return
          </CharString>
          <CharString index="27">
            -20 hstemhm
            -79 callsubr
            return
          </CharString>
          <CharString index="28">
            hintmask 11100000
            -100 callgsubr
            return
          </CharString>
          <CharString index="29">
            rmoveto
            18 4 -9 0 -19 hhcurveto
            -7 hlineto
            -21 -4 0 -16 return
          </CharString>
          <CharString index="30">
            -3 -2 -5 -5 1 -4 7 -36 rcurveline
            -5 1 4 -3 5 hhcurveto
            5 9 8 6 5 hvcurveto
            return
          </CharString>
          <CharString index="31">
            -84 -11 -5 -7 -12 callsubr
            -87 callgsubr
            return
          </CharString>
          <CharString index="32">
            -57 -12 93 0 112 hhcurveto
            112 93 0 57 12 hvcurveto
            return
          </CharString>
          <CharString index="33">
            210 -9 rmoveto
            103 486 42 callgsubr
            -104 -491 -4 -18 -3 -17 -30 -17 rlinecurve
            -16 -28 -30 -1 -11 hhcurveto
            -44 -30 13 6 -13 hvcurveto
            -7 3 -3 0 0 vvcurveto
            -10 -3 -5 -16 -9 hvcurveto
            -12 -19 -3 -4 -1 -5 -4 -15 32 -7 25 -7 rrcurveto
            -3 15 32 -7 37 hhcurveto
            82 83 53 87 18 hvcurveto
            return
          </CharString>
          <CharString index="34">
            hvcurveto
            -64 callgsubr
            -75 callsubr
            return
          </CharString>
          <CharString index="35">
            708 33 rmoveto
            33 7 -30 0 -14 hhcurveto
            -462 hlineto
            601 547 18 16 1 7 3 11 rlinecurve
            37 7 -26 0 -18 hhcurveto
            -519 hlineto
            -13 -31 0 -32 -6 100 callgsubr
            437 hlineto
            -602 -549 -16 -14 -1 -2 -4 -17 rlinecurve
            -38 -8 25 0 19 hhcurveto
            544 hlineto
            14 30 0 33 7 hvcurveto
            return
          </CharString>
          <CharString index="36">
            14 3 118 callsubr
            -188 -84 return
          </CharString>
          <CharString index="37">
            16 callsubr
            hintmask 00010000
            -18 callsubr
            -56 126 callgsubr
            hintmask 00100000
            -36 callsubr
            hintmask 00010000
            27 10 47 0 4 hhcurveto
            25 22 -8 -11 26 hvcurveto
            hintmask 00100000
            -34 callgsubr
          </CharString>
          <CharString index="38">
            -59 callsubr
            -6 hvcurveto
            -10 -15 -79 0 -59 hhcurveto
            -71 -67 0 11 -12 -73 callsubr
            return
          </CharString>
          <CharString index="39">
            -13 callsubr
            -61 callsubr
            -11 -73 callsubr
            return
          </CharString>
          <CharString index="40">
            14 3 -25 callsubr
            return
          </CharString>
          <CharString index="41">
            10 0 19 hhcurveto
            6 hlineto
            21 4 0 16 return
          </CharString>
          <CharString index="42">
            -40 callgsubr
            -129 -606 -101 callsubr
            return
          </CharString>
          <CharString index="43">
            920 665 rmoveto
            19 4 -19 0 -12 hhcurveto
            -16 -30 0 -32 -34 hvcurveto
            -326 -303 -194 301 rlineto
            34 -22 -31 0 -28 hhcurveto
            -25 -16 0 -19 -4 201 callgsubr
            -3 6 -9 241 -372 rcurveline
            return
          </CharString>
          <CharString index="44">
            rrcurveto
            -42 -9 15 -42 72 hhcurveto
            45 44 14 20 42 hvcurveto
            7 4 8 12 6 vvcurveto
            return
          </CharString>
          <CharString index="45">
            rmoveto
            -122 137 rlineto
            -72 hlineto
            -180 -137 rlineto
            71 hlineto
            137 99 95 -99 rlineto
            return
          </CharString>
          <CharString index="46">
            -10 -15 -79 0 -59 hhcurveto
            -71 -67 0 11 return
          </CharString>
          <CharString index="47">
            630 259 rmoveto
            24 112 -47 71 -19 22 81 90 rcurveline
            21 25 1 2 2 9 rrcurveto
            18 4 -12 13 -16 hhcurveto
            -16 -8 -8 -12 -10 hvcurveto
            -89 -99 rlineto
            20 -32 -42 14 -46 hhcurveto
            -144 -145 -123 -154 -33 hvcurveto
            -9 -44 -7 -85 61 -71 -86 -95 rcurveline
            -18 -22 -2 -2 -2 -9 rrcurveto
            -17 -3 11 -14 17 hhcurveto
            16 9 9 12 11 hvcurveto
            90 101 rlineto
            -21 35 39 -11 44 hhcurveto
            144 144 119 150 32 hvcurveto
            -130 192 rmoveto
            -304 -339 -31 46 7 62 8 39 rlinecurve
            160 34 111 54 88 hhcurveto
            31 31 -7 -15 25 hvcurveto
            54 -192 rmoveto
            -153 -32 -108 -53 -91 hhcurveto
            -31 -30 7 13 -24 hvcurveto
            return
          </CharString>
          <CharString index="48">
            rmoveto
            18 4 -30 callgsubr
            return
          </CharString>
          <CharString index="49">
            26 26 26 24 34 hhcurveto
            36 42 -4 -34 -8 106 callsubr
            -26 -20 -35 -25 -24 -27 -8 -35 rrcurveto
            return
          </CharString>
          <CharString index="50">
            -34 -11 -6 callgsubr
            return
          </CharString>
          <CharString index="51">
            -7 callsubr
            -16 hvcurveto
            -89 -71 -12 -10 -2 -4 -1 -3 rlinecurve
            13 callgsubr
            2 7 rlinecurve
            return
          </CharString>
          <CharString index="52">
            -82 callsubr
            6 -62 callgsubr
            return
          </CharString>
          <CharString index="53">
            -82 callgsubr
            endchar
          </CharString>
          <CharString index="54">
            -79 callgsubr
            55 259 rlineto
            return
          </CharString>
          <CharString index="55">
            71 336 rlineto
            21 5 5 23 -40 hhcurveto
            -40 -5 -23 -21 -5 hvcurveto
            return
          </CharString>
          <CharString index="56">
            414 -49 callsubr
            return
          </CharString>
          <CharString index="57">
            -15 -69 -1 149 callsubr
            -37 -28 rlineto
            32 -57 -67 16 -72 hhcurveto
            -107 -112 -36 -71 -95 hvcurveto
            -88 -66 -67 -93 -21 -99 -21 -98 28 -92 60 -65 rrcurveto
            -70 65 98 -36 106 hhcurveto
            107 112 36 70 95 hvcurveto
            return
          </CharString>
          <CharString index="58">
            648 -98 callgsubr
            return
          </CharString>
          <CharString index="59">
            27 11 47 0 4 hhcurveto
            25 21 -8 -11 27 hvcurveto
            return
          </CharString>
          <CharString index="60">
            -20 -48 callgsubr
            return
          </CharString>
          <CharString index="61">
            rmoveto
            13 58 40 callsubr
            -9 -41 rlineto
            -25 -5 0 -3 26 hhcurveto
            -47 -110 -5 -11 -1 -1 -1 -3 rlinecurve
            -14 -3 14 0 10 hhcurveto
            17 3 0 19 11 hvcurveto
            return
          </CharString>
          <CharString index="62">
            -78 callsubr
            -6 hvcurveto
            return
          </CharString>
          <CharString index="63">
            516 147 41 callgsubr
            -104 -488 rlineto
            -53 -11 -34 -54 -124 hhcurveto
            -22 -65 0 47 -58 hvcurveto
            7 -10 -2 0 -3 hhcurveto
            -12 -3 -8 -19 -8 hvcurveto
            -2 -5 -11 -29 -1 -3 -2 -11 5 -3 20 -8 rrcurveto
            -14 34 65 -20 82 hhcurveto
            115 112 43 125 26 hvcurveto
            return
          </CharString>
          <CharString index="64">
            46 callsubr
            hintmask 0001010000000000
            -77 callsubr
            hintmask 0000110010000000
            -58 callsubr
            hintmask 0000001000000000
            -26 callgsubr
            hintmask 0000000110000000
            5 22 7 34 35 151 callsubr
            27 13 22 18 6 24 rrcurveto
            endchar
          </CharString>
          <CharString index="65">
            20 12 0 25 5 hvcurveto
            -1 471 rmoveto
            -69 -14 -93 -53 -153 hhcurveto
            -218 hlineto
            52 244 rlineto
            218 hlineto
            return
          </CharString>
          <CharString index="66">
            -63 callsubr
            -50 callgsubr
            return
          </CharString>
          <CharString index="67">
            -30 4 -36 hhcurveto
            -43 -44 -19 -33 -34 hvcurveto
            return
          </CharString>
          <CharString index="68">
            17 callsubr
            243 hmoveto
            -68 callgsubr
            endchar
          </CharString>
          <CharString index="69">
            7 rlineto
            185 callsubr
            endchar
          </CharString>
          <CharString index="70">
            151 callgsubr
            68 317 rlineto
            111 23 -41 59 -116 hhcurveto
            return
          </CharString>
          <CharString index="71">
            -20 callsubr
            7 hvcurveto
            return
          </CharString>
          <CharString index="72">
            -91 -425 -14 -69 20 -64 46 -45 rlinecurve
            -47 47 68 -24 76 hhcurveto
            74 77 24 47 65 hvcurveto
            62 45 47 65 14 68 82 385 rcurveline
            115 74 87 callgsubr
            rlinecurve
            return
          </CharString>
          <CharString index="73">
            rlineto
            20 4 -57 callgsubr
            -4 hvcurveto
            return
          </CharString>
          <CharString index="74">
            -7 callsubr
            -16 hvcurveto
            -89 -71 rlineto
            -12 -10 -2 -4 -3 vvcurveto
            0 callsubr
            11 8 3 1 1 7 rlinecurve
            return
          </CharString>
          <CharString index="75">
            972 -67 63 -17 63 600 63 46 -20 hstemhm
            141 89 655 89 hintmask 10111000
            974 341 rmoveto
            21 97 -25 107 -84 73 74 73 rcurveline
            10 9 7 7 3 11 rrcurveto
            18 3 -12 15 -17 hhcurveto
            -15 -8 -8 -9 -11 hvcurveto
            -81 -80 rlineto
            45 -79 -78 6 -46 hhcurveto
            -239 -214 -171 -193 -42 hvcurveto
            -27 -129 56 -97 60 -50 -51 -51 -15 -13 -6 -5 -13 -13 -6 -7 -2 -10 rrcurveto
            -17 -4 12 -16 18 hhcurveto
            15 7 7 10 11 hvcurveto
            82 80 rlineto
            hintmask 01101100
            -38 63 75 -13 65 hhcurveto
            236 216 166 196 41 hvcurveto
            -188 263 rmoveto
            -503 -488 -65 66 -2 90 14 69 rlinecurve
            176 38 155 125 198 hhcurveto
            79 48 -19 -19 38 hvcurveto
            99 -263 rmoveto
            -179 -38 -157 -120 -195 hhcurveto
            -93 -51 27 11 -21 hvcurveto
            503 488 73 -73 -10 -103 -11 -51 rlinecurve
            endchar
          </CharString>
          <CharString index="76">
            625 -10 59 561 -21 29 -20 106 -20 136 callgsubr
            hintmask 0010000000010000
            742 535 rmoveto
            14 -1 callsubr
            hintmask 0000000010100000
            29 callsubr
            -4 4 -3 rlinecurve
            hintmask 1000100100000000
            -30 callsubr
            rrcurveto
            hintmask 0000010000000000
            47 callgsubr
            hintmask 1000101001000000
            -51 callgsubr
            hintmask 0101000000000000
            return
          </CharString>
          <CharString index="77">
            -22 -16 rlineto
            9 -5 -8 6 -11 97 callgsubr
            -65 -306 rlineto
            -76 -16 -81 -59 -82 hhcurveto
            -47 -25 2 17 -18 hvcurveto
            -14 14 0 22 8 35 return
          </CharString>
          <CharString index="78">
            590 -10 63 219 42 163 59 return
          </CharString>
          <CharString index="79">
            -85 callgsubr
            44 156 -9 callgsubr
            1 176 callsubr
            9 -5 6 150 callsubr
          </CharString>
          <CharString index="80">
            604 -98 callgsubr
            return
          </CharString>
          <CharString index="81">
            hlineto
            -26 -3 -2 -26 -5 hvcurveto
            return
          </CharString>
          <CharString index="82">
            -13 0 -15 hhcurveto
            return
          </CharString>
          <CharString index="83">
            109 callsubr
            186 66 442 -20 return
          </CharString>
          <CharString index="84">
            63 callsubr
            -52 130 rmoveto
            -7 -31 -24 -28 -27 -22 rrcurveto
            -21 -26 -32 -19 -43 hhcurveto
            -82 -82 59 148 31 hvcurveto
            149 32 115 59 87 hhcurveto
            52 29 -29 -30 14 hvcurveto
            9 -18 -1 -3 -3 -18 rrcurveto
            return
          </CharString>
          <CharString index="85">
            -45 callsubr
            hintmask 10000000
            -47 callgsubr
            hintmask 01000000
            -2 callsubr
            -10 hvcurveto
            hintmask 10000000
            -18 -3 -66 callsubr
            6 hvcurveto
            hintmask 01000000
            -48 callsubr
            hintmask 10000000
            -31 callgsubr
          </CharString>
          <CharString index="86">
            -78 callsubr
            -7 hvcurveto
            hintmask 00001000
            -16 callgsubr
            hintmask 00000100
            -18 callsubr
            -56 126 callgsubr
            hintmask 00001000
            -36 callsubr
            hintmask 00000100
            27 10 47 0 4 hhcurveto
            25 22 -8 -11 26 hvcurveto
            hintmask 00001000
            -34 callgsubr
          </CharString>
          <CharString index="87">
            -18 -4 -66 callsubr
            return
          </CharString>
          <CharString index="88">
            -2 -8 5 -4 1 -1 rrcurveto
            -1 2 104 -69 161 hhcurveto
            168 133 101 108 23 hvcurveto
            return
          </CharString>
          <CharString index="89">
            20 -50 -23 4 -22 hhcurveto
            -74 return
          </CharString>
          <CharString index="90">
            260 41 callsubr
            -6 72 callgsubr
            6 hvcurveto
            endchar
          </CharString>
          <CharString index="91">
            889 0 66 243 187 callsubr
            hstemhm
            157 92 -70 92 -78 92 cntrmask 11100000
            hintmask 11110000
            891 337 rmoveto
            189 40 -137 158 -210 hhcurveto
            -282 140 callsubr
            hintmask 11100100
            -56 -265 rlineto
            -9 hlineto
            -17 -17 -14 -17 -4 hvcurveto
            -1 -4 rlineto
            -17 -3 11 -14 17 hhcurveto
            hintmask 11101000
            9 hlineto
            -57 -265 rlineto
            hintmask 11110000
            -34 -7 6 -10 36 hhcurveto
            283 hlineto
            203 207 147 190 41 hvcurveto
            -93 -1 rmoveto
            -165 -35 -151 -105 -180 hhcurveto
            -213 hlineto
            hintmask 11101000
            52 243 rlineto
            168 hlineto
            18 16 14 17 3 179 callgsubr
            4 -10 14 -18 hhcurveto
            hintmask 11100100
            -168 hlineto
            51 243 160 callgsubr
          </CharString>
          <CharString index="92">
            16 -35 -41 4 -42 hhcurveto
            -175 -179 -147 -209 -45 hvcurveto
            -252 -53 100 -94 133 hhcurveto
            28 76 1 65 81 hvcurveto
            42 35 50 42 20 95 rrcurveto
            -85 hmoveto
            -11 -51 -14 -39 -45 -37 rrcurveto
            -19 -22 -34 -28 -73 hhcurveto
            -116 return
          </CharString>
          <CharString index="93">
            hlineto
            -15 -13 88 callsubr
            return
          </CharString>
          <CharString index="94">
            -59 callsubr
            -7 hvcurveto
            return
          </CharString>
          <CharString index="95">
            -3 -2 -9 rlinecurve
            return
          </CharString>
          <CharString index="96">
            23 callsubr
            258 200 -68 callsubr
            return
          </CharString>
          <CharString index="97">
            -85 -19 -61 -60 -51 hhcurveto
            -8 -90 0 145 31 hvcurveto
            145 30 90 0 8 hhcurveto
            51 37 -60 -85 -18 hvcurveto
            return
          </CharString>
          <CharString index="98">
            16 -4 28 hhcurveto
            return
          </CharString>
          <CharString index="99">
            -58 callgsubr
            endchar
          </CharString>
          <CharString index="100">
            -67 callsubr
            -24 hlineto
            -18 -2 0 -13 return
          </CharString>
          <CharString index="101">
            -55 callsubr
            122 return
          </CharString>
          <CharString index="102">
            51 callsubr
            hintmask 0000010000000000
            16 -23 -40 callsubr
            hintmask 0000101000000000
            27 callgsubr
            hintmask 0000011000000000
            -69 callgsubr
            hintmask 0000000100000000
            -41 callgsubr
            hintmask 0000000010000000
            -33 callgsubr
          </CharString>
          <CharString index="103">
            -4 22 hhcurveto
            74 55 45 43 9 hvcurveto
            endchar
          </CharString>
          <CharString index="104">
            819 0 66 258 63 231 66 hstem
            465 89 146 89 vstem
            789 188 rmoveto
            18 84 -91 67 -129 19 106 21 113 52 16 79 rrcurveto
            99 21 -131 75 -158 hhcurveto
            -251 184 callgsubr
            -34 -7 6 -10 36 hhcurveto
            285 hlineto
            162 162 83 105 22 hvcurveto
            -54 321 rmoveto
            -70 -15 -134 -52 -135 hhcurveto
            -164 hlineto
            49 231 rlineto
            171 hlineto
            107 136 -37 -72 -15 hvcurveto
            -35 -320 rmoveto
            -79 -17 -147 -44 -113 hhcurveto
            -204 hlineto
            55 258 rlineto
            191 hlineto
            124 128 -54 -81 -17 hvcurveto
            endchar
          </CharString>
          <CharString index="105">
            -18 callsubr
            -55 -45 -43 return
          </CharString>
          <CharString index="106">
            69 rlineto
            8 2 -5 6 -7 hhcurveto
            -70 hlineto
            return
          </CharString>
          <CharString index="107">
            -14 -3 13 0 16 hhcurveto
            25 hlineto
            122 85 return
          </CharString>
          <CharString index="108">
            382 166 callsubr
            47 63 10 63 hstem
            144 78 10 78 vstem
            572 652 rmoveto
            3 14 5 26 -1 1 -37 6 rlinecurve
            5 -30 -29 0 -8 hhcurveto
            -95 -105 -44 -92 -19 hvcurveto
            -10 -47 -49 callgsubr
            101 37 callsubr
            43 callgsubr
            -103 186 callgsubr
            9 41 13 rlinecurve
            8 26 24 2 25 hhcurveto
            20 27 -1 -12 33 hvcurveto
            -3 9 2 -1 209 callsubr
          </CharString>
          <CharString index="109">
            288 40 rmoveto
            22 4 -14 18 -22 hhcurveto
            -33 hlineto
            111 524 rlineto
            33 161 callsubr
            22 5 -15 18 -22 hhcurveto
            -160 hlineto
            -22 -21 -18 -22 -5 hvcurveto
            -22 -5 14 -18 22 hhcurveto
            33 hlineto
            -111 -524 rlineto
            -33 hlineto
            -22 -22 -18 -22 -4 hvcurveto
            -22 -5 14 -18 22 hhcurveto
            return
          </CharString>
          <CharString index="110">
            93 callgsubr
            hstem
            766 19 rmoveto
            2 7 -2 2 -9 13 -238 320 rcurveline
            320 286 12 11 1 1 1 6 rlinecurve
            19 4 -19 0 -14 hhcurveto
            -18 hlineto
            -21 -12 0 -21 -23 hvcurveto
            -267 -242 -166 243 rlineto
            20 -14 -12 0 -21 hhcurveto
            -33 hlineto
            -20 -12 0 -24 -5 hvcurveto
            222 -299 -363 -323 rlineto
            -12 -11 -2 -8 0 vvcurveto
            -19 -4 18 0 14 hhcurveto
            19 hlineto
            19 15 0 20 21 hvcurveto
            312 287 192 -288 rlineto
            -19 13 16 0 17 hhcurveto
            33 hlineto
            14 18 0 19 4 hvcurveto
            endchar
          </CharString>
          <CharString index="111">
            -227 544 -100 callsubr
            return
          </CharString>
          <CharString index="112">
            966 340 rmoveto
            21 99 -27 93 -60 66 -11 12 -13 11 -13 11 84 55 rcurveline
            87 callgsubr
            rrcurveto
            return
          </CharString>
          <CharString index="113">
            hhcurveto
            103 73 58 42 35 hvcurveto
            -10 -46 return
          </CharString>
          <CharString index="114">
            66 rmoveto
            116 25 -72 108 -139 hhcurveto
            -54 -50 -11 -24 -48 hvcurveto
            45 210 rlineto
            292 hlineto
            14 30 0 33 7 hvcurveto
            33 7 -30 0 -14 hhcurveto
            -325 hlineto
            -34 -12 -9 -37 -8 hvcurveto
            -62 -291 rlineto
            -17 -3 -7 -29 35 hhcurveto
            18 8 6 13 12 hvcurveto
            49 53 65 11 46 hhcurveto
            84 45 -57 -103 -22 hvcurveto
            -111 -23 -92 -52 -95 hhcurveto
            -40 -74 10 73 -51 hvcurveto
            10 -7 -1 2 -6 hhcurveto
            -12 -35 -40 -6 -1 hvcurveto
            -14 -3 71 -99 146 hhcurveto
            148 142 100 126 27 hvcurveto
            endchar
          </CharString>
          <CharString index="115">
            rmoveto
            57 12 -93 0 -112 hhcurveto
            -112 -93 0 -57 -12 185 callgsubr
            -14 19 hhcurveto
            11 7 24 callsubr
            12 hvcurveto
            hintmask 01000000
            -5 5 5 -4 9 hhcurveto
            19 16 14 18 4 hvcurveto
            endchar
          </CharString>
          <CharString index="116">
            rmoveto
            18 3 61 callsubr
            -4 -6 4 -9 hhcurveto
            -19 -16 -14 -18 -3 hvcurveto
            hintmask 10000000
            -57 -13 93 0 112 hhcurveto
            112 93 0 57 13 hvcurveto
            endchar
          </CharString>
          <CharString index="117">
            -85 callgsubr
            144 250 -78 callsubr
            -7 hvcurveto
            hintmask 00001000
            -47 callgsubr
            hintmask 00000100
            20 -49 -23 4 -22 hhcurveto
            -74 -56 126 callgsubr
            hintmask 00001000
            -18 -4 56 callsubr
            50 23 -4 22 hhcurveto
            74 56 45 43 9 hvcurveto
            endchar
          </CharString>
          <CharString index="118">
            rmoveto
            6 23 callgsubr
            hintmask 00001000
            16 -23 -40 callsubr
            hintmask 00010100
            -77 callsubr
            hintmask 00001100
            -69 callgsubr
            hintmask 00000010
            -41 callgsubr
            hintmask 00000001
            -33 callgsubr
          </CharString>
          <CharString index="119">
            84 callsubr
            596 -96 callgsubr
            return
          </CharString>
          <CharString index="120">
            -61 callsubr
            -12 hvcurveto
            return
          </CharString>
          <CharString index="121">
            7 -6 7 -8 vhcurveto
            -35 hlineto
            -4 -4 -2 -4 -3 hvcurveto
            -202 -264 -3 -4 -1 -5 2 -4 rlinecurve
            90 -264 rlineto
            -5 2 5 -4 6 hhcurveto
            35 hlineto
            8 6 6 12 -1 hvcurveto
            -71 257 182 259 rlineto
            1 2 1 3 3 vvcurveto
            return
          </CharString>
          <CharString index="122">
            -143 36 callgsubr
            return
          </CharString>
          <CharString index="123">
            -78 callsubr
            -7 hvcurveto
            hintmask 00100000
            -16 callgsubr
            return
          </CharString>
          <CharString index="124">
            486 rmoveto
            -68 callgsubr
            return
          </CharString>
          <CharString index="125">
            rmoveto
            8 37 rlineto
            24 5 0 1 -24 hhcurveto
            -37 hlineto
            -23 -3 95 callgsubr
            -2 12 0 9 hhcurveto
            18 0 1 18 12 hvcurveto
            53 96 11 20 1 2 2 13 rlinecurve
            endchar
          </CharString>
          <CharString index="126">
            hintmask 11100000
            -106 callsubr
            hintmask 00010000
            return
          </CharString>
          <CharString index="127">
            rmoveto
            112 callsubr
            -2 4 -90 264 rcurveline
            6 -2 -4 4 -7 hhcurveto
            -35 hlineto
            -8 -6 -7 -11 1 hvcurveto
            71 -258 -181 -258 rlineto
            -2 -2 -1 -3 -3 vvcurveto
            -8 6 -6 8 vhcurveto
            35 hlineto
            4 4 2 3 3 hvcurveto
            return
          </CharString>
          <CharString index="128">
            8 -58 callgsubr
            return
          </CharString>
          <CharString index="129">
            6 -28 -24 0 -10 hhcurveto
            -89 -91 -48 -87 -18 hvcurveto
            -10 -48 -49 callgsubr
            111 hlineto
            14 30 0 32 7 hvcurveto
            116 callsubr
            67 4 21 2 8 31 13 rlinecurve
            8 22 22 3 21 hhcurveto
            29 19 -5 -7 18 hvcurveto
            -5 9 152 callsubr
            return
          </CharString>
          <CharString index="130">
            157 callsubr
            hintmask 11100010
            -106 callgsubr
            hintmask 00010100
            return
          </CharString>
          <CharString index="131">
            5 5 6 hvcurveto
            hintmask 10000000
            10 15 79 0 59 hhcurveto
            71 67 0 -11 return
          </CharString>
          <CharString index="132">
            -9 callsubr
            8 hlineto
            28 18 4 40 return
          </CharString>
          <CharString index="133">
            245 90 callsubr
            -24 172 callgsubr
            16 21 20 19 21 15 32 1 11 8 7 35 127 596 rcurveline
            144 callgsubr
            -3 -16 0 -10 3 -7 rlinecurve
            -47 -29 -44 -53 -9 -44 -63 callsubr
            return
          </CharString>
          <CharString index="134">
            16 -22 -40 callsubr
            return
          </CharString>
          <CharString index="135">
            777 -16 rmoveto
            30 25 -20 25 -6 8 -187 236 rcurveline
            287 237 10 8 30 25 -19 25 rlinecurve
            -20 24 -29 -24 -11 -9 -286 -236 rcurveline
            -186 236 -7 9 -20 24 -29 -24 rlinecurve
            -31 -25 20 -25 6 -8 186 -237 rcurveline
            -287 -237 -10 -8 -30 -25 19 -25 rlinecurve
            20 -24 29 24 11 9 288 237 rcurveline
            186 -236 7 -9 18 -25 31 25 rlinecurve
            return
          </CharString>
          <CharString index="136">
            -8 -7 -6 -8 -2 hvcurveto
            -14 -69 -2 -6 3 return
          </CharString>
          <CharString index="137">
            -37 -6 -26 -18 -4 hvcurveto
            -129 -606 rlineto
            -18 -3 -6 -26 37 hhcurveto
            36 6 27 17 3 hvcurveto
            29 136 116 85 145 -244 rlineto
            -19 11 5 -2 30 hhcurveto
            19 17 0 20 4 hvcurveto
            return
          </CharString>
          <CharString index="138">
            9 41 40 callsubr
            return
          </CharString>
          <CharString index="139">
            31 rmoveto
            32 6 -30 0 -14 hhcurveto
            -112 hlineto
            122 574 rlineto
            15 4 6 29 -34 hhcurveto
            -14 -6 -4 -13 -16 hvcurveto
            -57 -46 -73 -2 -29 -1 -19 -1 -16 -13 -4 -17 rrcurveto
            -32 -7 32 0 8 hhcurveto
            10 63 2 23 56 hvcurveto
            -110 -514 rlineto
            -112 hlineto
            -13 -31 0 -31 -6 hvcurveto
            -32 -7 30 0 14 hhcurveto
            308 hlineto
            13 31 0 31 7 hvcurveto
            endchar
          </CharString>
          <CharString index="140">
            20 5 -57 callgsubr
            -5 hvcurveto
            return
          </CharString>
          <CharString index="141">
            965 -21 66 595 65 return
          </CharString>
          <CharString index="142">
            -40 rlineto
            -27 -6 2 -2 27 hhcurveto
            40 92 callsubr
            return
          </CharString>
          <CharString index="143">
            hintmask 11000000
            -102 callsubr
            hintmask 00100000
            return
          </CharString>
          <CharString index="144">
            hlineto
            12 32 0 31 7 hvcurveto
            return
          </CharString>
          <CharString index="145">
            498 rmoveto
            33 7 -30 0 -14 hhcurveto
            -432 hlineto
            -15 -29 0 -34 -7 hvcurveto
            -35 -8 28 0 16 hhcurveto
            352 hlineto
            -23 -21 -10 -4 -48 -45 -65 -61 -69 -83 -58 -103 -62 -110 -25 -100 -6 -30 rrcurveto
            -34 -7 5 -10 36 hhcurveto
            19 24 0 38 9 hvcurveto
            73 322 231 185 69 50 31 23 4 3 4 16 rrcurveto
            endchar
          </CharString>
          <CharString index="146">
            -30 -51 hhcurveto
            -40 -25 17 20 -31 hvcurveto
            17 -25 -28 17 -40 hhcurveto
            hintmask 00100000
            -25 -27 -8 -10 -25 hvcurveto
            hintmask 01000000
            -22 -10 -22 -11 -20 -14 -63 -44 rcurveline
            hintmask 10010000
            10 -17 rlineto
            41 58 59 30 51 hhcurveto
            40 25 -17 -20 31 hvcurveto
            -17 26 27 -17 40 hhcurveto
            hintmask 01000000
            25 28 8 10 24 hvcurveto
            hintmask 00100000
            22 10 22 11 20 14 rrcurveto
            endchar
          </CharString>
          <CharString index="147">
            rlineto
            26 5 0 2 -27 hhcurveto
            -41 -26 callsubr
            return
          </CharString>
          <CharString index="148">
            rmoveto
            43 callgsubr
            -245 hlineto
            -12 -32 0 -31 -7 hvcurveto
            -32 return
          </CharString>
          <CharString index="149">
            -27 -22 -39 -32 -15 -14 -18 -14 0 -2 -1 -5 155 callgsubr
            17 hhcurveto
            15 hlineto
            19 1 1 13 16 hvcurveto
            75 67 20 18 0 2 203 callgsubr
          </CharString>
          <CharString index="150">
            556 -122 -21 120 -20 hstem
            182 153 vstem
            335 -37 rmoveto
            14 3 171 callgsubr
            -6 hlineto
            -19 -1 -1 -16 -21 hvcurveto
            42 callsubr
          </CharString>
          <CharString index="151">
            21 77 callgsubr
            return
          </CharString>
          <CharString index="152">
            809 -21 66 639 -20 return
          </CharString>
          <CharString index="153">
            rmoveto
            5 23 callgsubr
            hintmask 0000100000000000
            27 callsubr
            return
          </CharString>
          <CharString index="154">
            625 -10 60 471 -20 return
          </CharString>
          <CharString index="155">
            433 503 rmoveto
            2 9 64 callgsubr
            -9 57 callgsubr
            -7 hvcurveto
            129 callgsubr
            11 8 36 8 hvcurveto
            69 -588 rmoveto
            1 3 0 2 -4 27 rrcurveto
            15 -3 -1 6 -11 hhcurveto
            -3 -2 0 -6 -11 hvcurveto
            return
          </CharString>
          <CharString index="156">
            57 callsubr
            hstemhm
            return
          </CharString>
          <CharString index="157">
            -14 callgsubr
            -417 hmoveto
            -14 callgsubr
            return
          </CharString>
          <CharString index="158">
            -53 callgsubr
            189 287 rmoveto
            6 23 callgsubr
            return
          </CharString>
          <CharString index="159">
            rlineto
            311 hlineto
            14 30 0 33 7 hvcurveto
            return
          </CharString>
          <CharString index="160">
            319 44 callsubr
            return
          </CharString>
          <CharString index="161">
            -12 -58 -63 callsubr
            return
          </CharString>
          <CharString index="162">
            -10 callsubr
            -417 62 callgsubr
            return
          </CharString>
          <CharString index="163">
            -66 callsubr
            6 hvcurveto
            hintmask 00000100
            -48 callsubr
            hintmask 00001000
            -20 return
          </CharString>
          <CharString index="164">
            -21 115 -20 return
          </CharString>
          <CharString index="165">
            -78 callgsubr
            -7 -12 callsubr
            -14 return
          </CharString>
          <CharString index="166">
            3 12 -20 18 -8 9 rrcurveto
            22 -19 -19 40 -23 hhcurveto
            -43 200 callgsubr
            -2 hvcurveto
            -8 -1 -5 -6 -1 -6 -2 -11 13 -8 6 -7 48 -47 rcurveline
            18 -17 rlineto
            -7 7 4 -4 13 hhcurveto
            22 hlineto
            10 10 3 11 2 hvcurveto
            return
          </CharString>
          <CharString index="167">
            816 21 99 callsubr
            return
          </CharString>
          <CharString index="168">
            -30 callgsubr
            -6 hvcurveto
            hintmask 10000000
            13 callsubr
            hintmask 01000000
            5 return
          </CharString>
          <CharString index="169">
            44 -40 callgsubr
            return
          </CharString>
          <CharString index="170">
            -9 -39 -79 callgsubr
            return
          </CharString>
          <CharString index="171">
            -85 -18 -61 -61 -52 hhcurveto
            -7 -91 0 145 31 hvcurveto
            146 31 90 0 8 hhcurveto
            53 34 -63 -82 -18 hvcurveto
            return
          </CharString>
          <CharString index="172">
            -8 -9 1 -8 hhcurveto
            -6 -6 -1 -1 -7 hvcurveto
            -16 -3 -12 -14 -3 -14 rrcurveto
            return
          </CharString>
          <CharString index="173">
            694 -21 70 -70 72 399 72 113 70 return
          </CharString>
          <CharString index="174">
            rmoveto
            6 23 callgsubr
            hintmask 0001000000000000
            16 -23 93 callsubr
            return
          </CharString>
          <CharString index="175">
            rlineto
            26 6 -1 2 -27 hhcurveto
            return
          </CharString>
          <CharString index="176">
            2 112 callsubr
            return
          </CharString>
          <CharString index="177">
            -45 -43 -9 hvcurveto
            hintmask 01000000
            86 callgsubr
            hintmask 00100000
            -48 callsubr
            hintmask 01000000
            38 callgsubr
            return
          </CharString>
          <CharString index="178">
            444 315 rmoveto
            19 4 -22 0 -10 hhcurveto
            -81 hlineto
            73 345 rlineto
            9 2 4 17 -24 hhcurveto
            return
          </CharString>
          <CharString index="179">
            625 112 callgsubr
            return
          </CharString>
          <CharString index="180">
            121 94 33 94 return
          </CharString>
          <CharString index="181">
            762 174 rmoveto
            22 5 -15 18 -22 hhcurveto
            -22 -21 -18 -22 -5 hvcurveto
            -58 -12 -41 -57 -52 hhcurveto
            -37 -36 7 9 -34 hvcurveto
            -65 16 -69 16 -66 -1 35 40 31 45 19 47 return
          </CharString>
          <CharString index="182">
            -8 -7 -7 -10 -2 -11 rrcurveto
            -22 -5 14 -18 23 hhcurveto
            11 11 5 7 8 hvcurveto
            70 59 121 -30 97 -23 rrcurveto
            -10 40 42 -8 43 hhcurveto
            96 84 93 102 22 hvcurveto
            endchar
          </CharString>
          <CharString index="183">
            3 0 4 -8 10 vhcurveto
            -58 71 rlineto
            13 -11 -2 0 -18 hhcurveto
            -24 -14 callsubr
            -1 -7 2 -1 8 -8 86 -85 rcurveline
            25 hlineto
            16 13 0 14 3 hvcurveto
            return
          </CharString>
          <CharString index="184">
            4 36 8 hvcurveto
            return
          </CharString>
          <CharString index="185">
            205 callgsubr
            -186 -26 callsubr
            -2 -9 rlineto
            -27 -6 2 -2 27 hhcurveto
            185 92 callsubr
            endchar
          </CharString>
          <CharString index="186">
            -9 -23 0 -18 -4 hvcurveto
            -20 -4 22 0 10 hhcurveto
            222 hlineto
            9 23 0 19 4 hvcurveto
            return
          </CharString>
          <CharString index="187">
            -50 callgsubr
            -48 -23 172 callgsubr
            return
          </CharString>
          <CharString index="188">
            162 60 -57 -65 -14 hvcurveto
            return
          </CharString>
          <CharString index="189">
            31 0 13 hhcurveto
            return
          </CharString>
          <CharString index="190">
            556 -149 63 607 -20 return
          </CharString>
          <CharString index="191">
            44 rmoveto
            127 return
          </CharString>
          <CharString index="192">
            -9 -41 rlineto
            -25 -5 0 -3 26 hhcurveto
            -54 -125 rlineto
            -14 -3 14 0 10 hhcurveto
            20 1 1 20 12 hvcurveto
            60 107 12 22 1 2 3 15 rlinecurve
            endchar
          </CharString>
          <CharString index="193">
            13 0 15 hhcurveto
            42 hlineto
            return
          </CharString>
          <CharString index="194">
            hstemhm
            129 80 -9 80 return
          </CharString>
          <CharString index="195">
            0 -14 -3 hvcurveto
            return
          </CharString>
          <CharString index="196">
            -5 -22 rlineto
            -7 -1 5 -7 7 hhcurveto
            5 hlineto
            8 8 7 7 1 hvcurveto
            5 22 7 34 35 151 callsubr
            26 13 23 18 5 24 rrcurveto
            endchar
          </CharString>
          <CharString index="197">
            15 callsubr
            -48 return
          </CharString>
          <CharString index="198">
            97 -80 80 -80 97 0 97 -83 97 -80 80 return
          </CharString>
          <CharString index="199">
            hlineto
            26 2 2 26 6 hvcurveto
            return
          </CharString>
          <CharString index="200">
            -40 callsubr
            hintmask 0010001000000000
            -77 callsubr
            return
          </CharString>
          <CharString index="201">
            10 20 21 2 13 hhcurveto
            22 16 -4 -9 18 hvcurveto
            -3 5 3 -1 4 hhcurveto
            return
          </CharString>
          <CharString index="202">
            -20 98 callsubr
            return
          </CharString>
          <CharString index="203">
            rlineto
            14 3 4 22 -23 hhcurveto
            -23 -4 -22 -14 -3 hvcurveto
            return
          </CharString>
          <CharString index="204">
            479 -10 65 332 65 22 62 return
          </CharString>
          <CharString index="205">
            146 callsubr
            245 80 107 97 -82 97 -80 80 return
          </CharString>
          <CharString index="206">
            -21 311 63 244 66 return
          </CharString>
          <CharString index="207">
            187 callsubr
            263 66 return
          </CharString>
          <CharString index="208">
            48 -4 33 -29 33 return
          </CharString>
          <CharString index="209">
            248 94 410 80 return
          </CharString>
          <CharString index="210">
            3 13 rlinecurve
            endchar
          </CharString>
          <CharString index="211">
            hlineto
            117 206 10 15 0 2 1 5 rlinecurve
            18 4 -11 17 -20 hhcurveto
            -25 -12 -21 -8 -5 hvcurveto
            -133 -234 rlineto
            return
          </CharString>
          <CharString index="212">
            -11 -5 -7 -3 -2 -9 rrcurveto
            -87 callgsubr
            15 -39 callgsubr
            2 5 vhcurveto
            endchar
          </CharString>
          <CharString index="213">
            hvcurveto
            -3 -16 -31 -10 return
          </CharString>
          <CharString index="214">
            hlineto
            -102 -176 -10 -18 -17 -29 -1 -6 rlinecurve
            -18 -4 11 -17 20 hhcurveto
            25 12 20 9 5 hvcurveto
            135 235 rlineto
            return
          </CharString>
          <CharString index="215">
            132 callsubr
            -31 hlineto
            return
          </CharString>
          <CharString index="216">
            806 21 -21 return
          </CharString>
          <CharString index="217">
            103 callgsubr
            3 14 5 24 -1 1 -26 7 rlinecurve
            return
          </CharString>
          <CharString index="218">
            -32 -7 82 callsubr
            return
          </CharString>
          <CharString index="219">
            3 4 1 5 return
          </CharString>
          <CharString index="220">
            -16 hlineto
            -15 -8 0 -11 -12 hvcurveto
            -265 -241 -10 -8 0 -2 -3 -12 rlinecurve
            -20 -4 5 -6 26 hhcurveto
            return
          </CharString>
          <CharString index="221">
            701 243 rmoveto
            29 138 rlineto
            87 18 -1 7 -91 hhcurveto
            -138 hlineto
            -87 -9 -7 -87 -18 hvcurveto
            return
          </CharString>
          <CharString index="222">
            85 0 75 275 85 -24 75 hintmask 00101010
            return
          </CharString>
          <CharString index="223">
            31 7 -32 0 -12 hhcurveto
            -113 hlineto
            14 return
          </CharString>
          <CharString index="224">
            hlineto
            15 29 0 34 7 hvcurveto
            endchar
          </CharString>
          <CharString index="225">
            -25 callsubr
            -42 hlineto
            return
          </CharString>
          <CharString index="226">
            vstem
            747 50 rmoveto
            16 3 9 41 -18 hhcurveto
            -3 -2 0 -14 -27 hvcurveto
            -34 -69 -47 -14 -89 hhcurveto
            return
          </CharString>
          <CharString index="227">
            49 callsubr
            248 94 return
          </CharString>
          <CharString index="228">
            965 -21 65 597 64 return
          </CharString>
          <CharString index="229">
            417 21 -21 462 69 return
          </CharString>
          <CharString index="230">
            764 0 66 554 64 return
          </CharString>
          <CharString index="231">
            318 452 207 callsubr
            -40 hlineto
            -27 -3 -2 -27 -5 hvcurveto
            return
          </CharString>
          <CharString index="232">
            4 18 0 2 14 16 rrcurveto
            46 42 48 20 46 hhcurveto
            80 86 -56 -151 -33 hvcurveto
            endchar
          </CharString>
          <CharString index="233">
            228 137 callgsubr
            return
          </CharString>
          <CharString index="234">
            11 9 12 2 hvcurveto
            5 24 rlineto
            12 3 -7 9 return
          </CharString>
          <CharString index="235">
            137 callsubr
            hstemhm
            return
          </CharString>
          <CharString index="236">
            1063 0 69 139 66 47 66 231 66 return
          </CharString>
          <CharString index="237">
            rmoveto
            43 9 -23 0 -21 hhcurveto
            -10 hlineto
            return
          </CharString>
          <CharString index="238">
            152 callsubr
            11 4 return
          </CharString>
          <CharString index="239">
            17 3 188 callsubr
            return
          </CharString>
          <CharString index="240">
            176 callsubr
            rlineto
            hintmask 00001000
            9 -5 5 -3 return
          </CharString>
          <CharString index="241">
            625 261 rmoveto
            151 33 -77 119 -124 hhcurveto
            -91 -68 -60 -26 -25 hvcurveto
            return
          </CharString>
          <CharString index="242">
            rmoveto
            116 callsubr
            68 4 19 2 9 23 12 rlinecurve
            return
          </CharString>
          <CharString index="243">
            -29 -135 rlineto
            -90 -19 6 -7 90 hhcurveto
            135 hlineto
            87 8 7 87 19 hvcurveto
            return
          </CharString>
          <CharString index="244">
            67 callgsubr
            694 -20 return
          </CharString>
          <CharString index="245">
            302 337 28 -45 -3 -55 -11 -51 rlinecurve
            return
          </CharString>
          <CharString index="246">
            538 0 63 395 63 return
          </CharString>
          <CharString index="247">
            hlineto
            -57 callsubr
            return
          </CharString>
          <CharString index="248">
            813 44 callsubr
            return
          </CharString>
          <CharString index="249">
            833 18 -21 524 -20 return
          </CharString>
          <CharString index="250">
            -8 -8 0 -1 -8 hvcurveto
            -3 -227 -2 -73 -15 hvcurveto
            -13 -3 9 -4 12 return
          </CharString>
          <CharString index="251">
            148 callgsubr
            hintmask 11100000
            return
          </CharString>
          <CharString index="252">
            184 80 248 79 31 80 return
          </CharString>
          <CharString index="253">
            hstemhm
            160 94 -3 94 -25 97 return
          </CharString>
          <CharString index="254">
            69 20 -20 hstemhm
            hintmask 01000000
            return
          </CharString>
          <CharString index="255">
            -18 -17 -14 -17 -3 hvcurveto
            return
          </CharString>
          <CharString index="256">
            -6 3 -5 5 -2 rlinecurve
            return
          </CharString>
          <CharString index="257">
            -12 callsubr
            endchar
          </CharString>
          <CharString index="258">
            18 45 22 rlinecurve
            return
          </CharString>
          <CharString index="259">
            2 0 3 hhcurveto
            return
          </CharString>
          <CharString index="260">
            175 -45 callsubr
            return
          </CharString>
          <CharString index="261">
            201 callsubr
            11 return
          </CharString>
          <CharString index="262">
            0 181 callsubr
            return
          </CharString>
          <CharString index="263">
            hlineto
            17 17 14 17 3 179 callgsubr
            4 188 callsubr
            return
          </CharString>
          <CharString index="264">
            hstemhm
            52 711 return
          </CharString>
          <CharString index="265">
            33 callsubr
            -92 -433 return
          </CharString>
          <CharString index="266">
            -20 77 -77 170 -121 62 135 77 176 63 hstemhm
            return
          </CharString>
          <CharString index="267">
            -8 12 hhcurveto
            43 hlineto
            13 8 5 11 return
          </CharString>
          <CharString index="268">
            hlineto
            22 22 18 22 5 hvcurveto
            return
          </CharString>
          <CharString index="269">
            hlineto
            -26 -2 -2 -26 -6 hvcurveto
            return
          </CharString>
          <CharString index="270">
            479 -21 139 97 hstem
            return
          </CharString>
          <CharString index="271">
            97 hstemhm
            131 97 -88 97 return
          </CharString>
          <CharString index="272">
            3 13 15 3 hvcurveto
            return
          </CharString>
          <CharString index="273">
            21 -21 458 63 return
          </CharString>
          <CharString index="274">
            -21 468 63 return
          </CharString>
          <CharString index="275">
            190 callgsubr
            hstemhm
            124 return
          </CharString>
          <CharString index="276">
            -12 -2 7 -9 11 hhcurveto
            25 hlineto
            11 12 9 12 2 hvcurveto
            return
          </CharString>
          <CharString index="277">
            hlineto
            12 32 0 31 6 hvcurveto
            endchar
          </CharString>
          <CharString index="278">
            hstemhm
            109 80 return
          </CharString>
          <CharString index="279">
            hlineto
            -14 -30 0 -32 -7 hvcurveto
            -31 -6 32 0 12 hhcurveto
            return
          </CharString>
          <CharString index="280">
            -160 64 116 -21 228 63 175 66 hstem
            return
          </CharString>
          <CharString index="281">
            hvcurveto
            -14 2 -9 -17 26 hhcurveto
            46 hlineto
            10 2 4 8 return
          </CharString>
          <CharString index="282">
            -2 27 hhcurveto
            74 hlineto
            111 42 -70 -71 -15 hvcurveto
            -77 return
          </CharString>
          <CharString index="283">
            5 vhcurveto
            14 3 86 callsubr
            152 -84 return
          </CharString>
          <CharString index="284">
            178 callsubr
            691 -20 return
          </CharString>
          <CharString index="285">
            1153 14 -21 return
          </CharString>
          <CharString index="286">
            97 -82 94 -94 97 return
          </CharString>
          <CharString index="287">
            625 593 -21 return
          </CharString>
          <CharString index="288">
            66 552 66 return
          </CharString>
          <CharString index="289">
            6 -23 -23 0 -7 hhcurveto
            -76 -84 -46 -89 -19 hvcurveto
            return
          </CharString>
          <CharString index="290">
            32 19 51 4 20 rrcurveto
            53 11 -63 40 -88 hhcurveto
            return
          </CharString>
          <CharString index="291">
            rmoveto
            -86 hlineto
            177 832 rlineto
            86 hlineto
            endchar
          </CharString>
          <CharString index="292">
            0 4 5 1 5 vhcurveto
            return
          </CharString>
          <CharString index="293">
            hstemhm
            199 callgsubr
            return
          </CharString>
          <CharString index="294">
            66 243 66 return
          </CharString>
          <CharString index="295">
            -11 14 -17 hhcurveto
            return
          </CharString>
          <CharString index="296">
            590 -199 69 120 63 424 59 return
          </CharString>
          <CharString index="297">
            799 -21 66 594 66 hstem
            165 94 return
          </CharString>
          <CharString index="298">
            -4 22 -7 rrcurveto
            -6 21 25 -6 18 hhcurveto
            41 return
          </CharString>
          <CharString index="299">
            -69 63 290 63 0 63 291 63 hstemhm
            return
          </CharString>
          <CharString index="300">
            rcurveline
            -17 14 -14 17 15 12 11 14 3 vhcurveto
            return
          </CharString>
          <CharString index="301">
            -40 -28 -53 -1 -22 -1 rrcurveto
            return
          </CharString>
          <CharString index="302">
            -187 -21 972 -20 hstem
            return
          </CharString>
          <CharString index="303">
            rmoveto
            39 9 -24 0 -20 hhcurveto
            return
          </CharString>
          <CharString index="304">
            -1 7 hhcurveto
            16 5 7 4 return
          </CharString>
          <CharString index="305">
            108 78 51 78 return
          </CharString>
          <CharString index="306">
            0 66 618 -20 return
          </CharString>
          <CharString index="307">
            2 -1 3 hhcurveto
            return
          </CharString>
          <CharString index="308">
            2 0 4 hhcurveto
            return
          </CharString>
          <CharString index="309">
            2 1 6 rlinecurve
            return
          </CharString>
          <CharString index="310">
            43 -25 43 -8 43 -25 43 hstemhm
            hintmask 10010000
            return
          </CharString>
          <CharString index="311">
            -4 5 -26 34 9 41 42 198 rcurveline
            return
          </CharString>
          <CharString index="312">
            81 rmoveto
            -14 -3 171 callgsubr
            -23 hlineto
            return
          </CharString>
          <CharString index="313" raw="1">
            8208411d 0b  
          </CharString>
          <CharString index="314">
            rmoveto
            9 41 rlineto
            26 5 0 2 -27 hhcurveto
            return
          </CharString>
          <CharString index="315">
            hstemhm
            121 94 -31 89 -25 94 35 89 return
          </CharString>
          <CharString index="316">
            3 hhcurveto
            103 callgsubr
            endchar
          </CharString>
          <CharString index="317">
            hhcurveto
            169 hlineto
            return
          </CharString>
          <CharString index="318">
            26 -37 hhcurveto
            -38 return
          </CharString>
        <CharString name=".notdef">
          280 endchar
        </CharString>
        <CharString name="A">
          -24 callsubr
          hstem
          52 711 vstem
          -106 callgsubr
          endchar
        </CharString>
        <CharString name="AE">
          129 callsubr
          hstem
          54 93 494 93 vstem
          -52 callgsubr
          endchar
        </CharString>
        <CharString name="AE.dup">
          129 callsubr
          hstem
          54 93 494 93 vstem
          -52 callgsubr
          endchar
        </CharString>
        <CharString name="AEacute">
          129 callsubr
          82 49 callsubr
          54 93 494 93 hintmask 11110011
          -52 callgsubr
          hintmask 00001100
          240 228 -102 callgsubr
        </CharString>
        <CharString name="Aacute">
          -24 callsubr
          132 callgsubr
          52 711 hintmask 11100100
          -106 callgsubr
          hintmask 00011000
          232 244 -102 callgsubr
        </CharString>
        <CharString name="Abreve">
          -24 callsubr
          71 69 20 -20 157 callsubr
          hintmask 11100100
          -106 callgsubr
          hintmask 00001000
          258 200 -18 callgsubr
          endchar
        </CharString>
        <CharString name="Abreveacute">
          -24 callsubr
          71 69 0 69 101 -20 -11 callsubr
          -41 168 rmoveto
          -71 callsubr
          rlineto
          hintmask 00001000
          105 callsubr
        </CharString>
        <CharString name="Abrevedotbelow">
          -24 callsubr
          71 69 20 -20 157 callsubr
          -442 98 hintmask 11101100
          -106 callgsubr
          258 200 -18 callgsubr
          hintmask 00000010
          -360 -958 -104 callgsubr
        </CharString>
        <CharString name="Abrevegrave">
          -24 callsubr
          71 69 0 69 157 callsubr
          hintmask 11100100
          -106 callgsubr
          hintmask 00010000
          258 200 -68 callsubr
          -60 81 21 callgsubr
          3 86 callsubr
          152 -84 rlineto
          hintmask 00001000
          9 -5 5 -3 -2 -9 rrcurveto
          endchar
        </CharString>
        <CharString name="Abrevehookabove">
          -24 callsubr
          71 69 222 43 -23 43 157 callsubr
          -245 101 callsubr
          hintmask 1110001000000000
          -106 callgsubr
          hintmask 0001100010000000
          258 200 -68 callsubr
          -38 212 rmoveto
          6 23 callgsubr
          hintmask 0000010000000000
          16 -23 -40 callsubr
          hintmask 0000100100000000
          27 callgsubr
          hintmask 0000010100000000
          -69 callgsubr
          hintmask 0000000010000000
          -41 callgsubr
          hintmask 0000000001000000
          4 22 8 34 35 18 44 22 rlinecurve
          27 13 23 18 5 24 rrcurveto
          endchar
        </CharString>
        <CharString name="Abrevetilde">
          -24 callsubr
          71 69 75 63 -20 63 -11 callsubr
          40 175 -21 callsubr
        </CharString>
        <CharString name="Acaron">
          -24 callsubr
          82 -21 107 -20 157 callsubr
          hintmask 11100100
          -106 callgsubr
          hintmask 00011000
          249 240 -55 callgsubr
        </CharString>
        <CharString name="Acircumflex">
          -24 callsubr
          82 -21 107 -20 157 callsubr
          hintmask 11100100
          -106 callgsubr
          hintmask 00011000
          227 133 -85 callgsubr
          endchar
        </CharString>
        <CharString name="Acircumflexacute">
          -24 callsubr
          82 -21 257 -20 157 callsubr
          hintmask 11100100
          -106 callgsubr
          hintmask 00011000
          227 133 -85 callgsubr
          62 243 -102 callgsubr
        </CharString>
        <CharString name="Acircumflexdotbelow">
          -24 callsubr
          82 -21 107 -20 157 callsubr
          -442 98 hintmask 11111100
          -106 callgsubr
          227 133 -85 callgsubr
          hintmask 00000010
          -258 -891 -104 callgsubr
        </CharString>
        <CharString name="Acircumflexgrave">
          -24 callsubr
          82 -21 107 -20 157 callsubr
          hintmask 11100100
          -106 callgsubr
          hintmask 00011000
          227 133 -28 callsubr
        </CharString>
        <CharString name="Acircumflexhookabove">
          -24 callsubr
          82 -21 309 43 -23 43 157 callsubr
          -120 68 callgsubr
          hintmask 1110001000000000
          -106 callgsubr
          hintmask 0001100000000000
          227 133 52 callgsubr
          hintmask 0000010000000000
          27 callsubr
          hintmask 0000100100000000
          -77 callsubr
          hintmask 0000010100100000
          -58 callsubr
          hintmask 0000000010000000
          -26 callgsubr
          hintmask 0000000001100000
          5 22 7 34 35 151 callsubr
          27 13 22 18 6 24 rrcurveto
          endchar
        </CharString>
        <CharString name="Acircumflextilde">
          -24 callsubr
          82 -21 162 63 -20 63 23 callsubr
          227 133 10 callsubr
        </CharString>
        <CharString name="Adblgrave">
          -24 callsubr
          132 callgsubr
          52 711 hintmask 11100100
          -106 callgsubr
          hintmask 00011000
          179 157 -81 callgsubr
        </CharString>
        <CharString name="Adieresis">
          -24 callsubr
          61 78 157 callsubr
          -336 89 104 89 hintmask 11101000
          -106 callgsubr
          hintmask 00010110
          -5 173 -100 callsubr
          endchar
        </CharString>
        <CharString name="Adotbelow">
          -24 callsubr
          157 callsubr
          -442 98 hintmask 11110000
          -106 callgsubr
          hintmask 00001000
          -102 -758 -104 callgsubr
        </CharString>
        <CharString name="Agrave">
          -24 callsubr
          132 callgsubr
          52 711 hintmask 11100100
          -106 callgsubr
          hintmask 00011000
          129 157 -84 callgsubr
        </CharString>
        <CharString name="Ahookabove">
          -24 callsubr
          243 43 -23 43 157 callsubr
          -271 68 callgsubr
          hintmask 1110010000000000
          -106 callgsubr
          hintmask 0001000000000000
          194 293 46 callsubr
          hintmask 0001001000000000
          -77 callsubr
          hintmask 0000101001000000
          -32 callgsubr
        </CharString>
        <CharString name="Alpha">
          -24 callsubr
          hstem
          52 711 vstem
          -106 callgsubr
          endchar
        </CharString>
        <CharString name="Amacron">
          -24 callsubr
          81 66 157 callsubr
          hintmask 11101000
          -106 callgsubr
          hintmask 00010000
          274 181 rmoveto
          2 -95 callgsubr
          6 hvcurveto
          endchar
        </CharString>
        <CharString name="Aogonek">
          192 callgsubr
          hstem
          1 callgsubr
          endchar
        </CharString>
        <CharString name="Aogonekacute">
          192 callgsubr
          132 callgsubr
          hintmask 11100000
          1 callgsubr
          hintmask 00011000
          232 244 -102 callgsubr
        </CharString>
        <CharString name="Aring">
          109 callsubr
          186 66 442 36 56 36 157 callsubr
          hintmask 11101000
          -106 callgsubr
          hintmask 00110000
          105 156 -54 callsubr
        </CharString>
        <CharString name="Aringacute">
          109 callsubr
          186 66 442 36 56 36 150 -20 157 callsubr
          hintmask 11100100
          -106 callgsubr
          hintmask 00111000
          105 156 -82 callgsubr
          31 201 58 callsubr
          -2 33 callgsubr
        </CharString>
        <CharString name="Atilde">
          -24 callsubr
          61 63 -20 63 157 callsubr
          hintmask 11100100
          -106 callgsubr
          hintmask 00001000
          265 221 -21 callgsubr
        </CharString>
        <CharString name="B">
          -3 callsubr
        </CharString>
        <CharString name="Beta">
          -3 callsubr
        </CharString>
        <CharString name="C">
          140 callgsubr
          hstem
          -89 callsubr
          endchar
        </CharString>
        <CharString name="Cacute">
          140 callgsubr
          72 194 callgsubr
          -89 callsubr
          hintmask 00110000
          42 787 -102 callgsubr
        </CharString>
        <CharString name="Ccaron">
          140 callgsubr
          62 -21 107 -20 hstemhm
          hintmask 11000000
          -89 callsubr
          hintmask 00110000
          59 783 -55 callgsubr
        </CharString>
        <CharString name="Ccedilla">
          190 callsubr
          119 callsubr
          -194 -82 151 146 31 hvcurveto
          157 33 157 140 176 hhcurveto
          71 callgsubr
          -242 -196 -177 -186 -39 hvcurveto
          -182 -39 115 -181 249 hhcurveto
          169 callgsubr
          -268 -108 -35 callgsubr
        </CharString>
        <CharString name="Ccircumflex">
          140 callgsubr
          62 -21 107 -20 hstemhm
          hintmask 11000000
          -89 callsubr
          hintmask 00110000
          37 676 -85 callgsubr
          endchar
        </CharString>
        <CharString name="Cdotaccent">
          140 callgsubr
          56 87 hstemhm
          559 98 hintmask 11000000
          -89 callsubr
          hintmask 00110000
          -90 735 -63 callgsubr
          endchar
        </CharString>
        <CharString name="Chi">
          3 callsubr
        </CharString>
        <CharString name="D">
          889 155 callsubr
          hstem
          157 92 vstem
          -45 callgsubr
          endchar
        </CharString>
        <CharString name="Dcaron">
          889 155 callsubr
          72 -21 107 -20 hstemhm
          157 92 hintmask 11001000
          -45 callgsubr
          hintmask 00110000
          -120 506 -55 callgsubr
        </CharString>
        <CharString name="Dcroat">
          -16 callsubr
        </CharString>
        <CharString name="Ddotbelow">
          889 155 callsubr
          hstemhm
          157 92 -20 98 hintmask 11100000
          -45 callgsubr
          hintmask 00010000
          -471 -492 -104 callgsubr
        </CharString>
        <CharString name="Delta">
          1042 0 88 606 -20 hstem
          72 905 vstem
          977 21 rmoveto
          2 5 -2 7 -2 4 -241 620 rcurveline
          37 -14 -27 0 -24 hhcurveto
          -23 -28 0 -33 -28 hvcurveto
          -504 -620 -11 -13 -1 -1 -2 -6 rlinecurve
          -21 -4 20 0 14 hhcurveto
          837 hlineto
          14 20 0 21 4 hvcurveto
          -132 67 rmoveto
          -634 hlineto
          429 526 rlineto
          endchar
        </CharString>
        <CharString name="Dlinebelow">
          889 -189 66 123 181 callsubr
          hstemhm
          157 92 hintmask 01110000
          -45 callgsubr
          hintmask 10000000
          -295 -497 rmoveto
          2 -95 callgsubr
          6 hvcurveto
          endchar
        </CharString>
        <CharString name="E">
          -1 callgsubr
          hstem
          -105 callsubr
          endchar
        </CharString>
        <CharString name="Eacute">
          -1 callgsubr
          84 49 callsubr
          hintmask 11100000
          -105 callsubr
          hintmask 00011000
          7 812 -102 callgsubr
        </CharString>
        <CharString name="Ebreve">
          -1 callgsubr
          63 69 20 -20 hstemhm
          hintmask 11100000
          -105 callsubr
          hintmask 00001000
          33 768 -18 callgsubr
          endchar
        </CharString>
        <CharString name="Ecaron">
          182 callgsubr
          107 -20 hstemhm
          hintmask 11100000
          -105 callsubr
          hintmask 00011000
          24 808 -55 callgsubr
        </CharString>
        <CharString name="Ecircumflex">
          182 callgsubr
          107 -20 hstemhm
          hintmask 11100000
          -105 callsubr
          hintmask 00011000
          2 701 -85 callgsubr
          endchar
        </CharString>
        <CharString name="Ecircumflexacute">
          182 callgsubr
          257 -20 hstemhm
          hintmask 11100000
          -105 callsubr
          hintmask 00011000
          2 701 -85 callgsubr
          62 243 -102 callgsubr
        </CharString>
        <CharString name="Ecircumflexdotbelow">
          182 callgsubr
          107 -20 hstemhm
          307 98 hintmask 11111000
          -105 callsubr
          2 701 -85 callgsubr
          hintmask 00000100
          -258 -891 -104 callgsubr
        </CharString>
        <CharString name="Ecircumflexgrave">
          182 callgsubr
          107 -20 hstemhm
          hintmask 11100000
          -105 callsubr
          hintmask 00011000
          2 701 -28 callsubr
        </CharString>
        <CharString name="Ecircumflexhookabove">
          182 callgsubr
          309 94 callgsubr
          629 68 callgsubr
          hintmask 1110000000000000
          -105 callsubr
          hintmask 0001100000000000
          2 701 52 callgsubr
          hintmask 0000010000000000
          27 callsubr
          hintmask 0000101000000000
          -77 callsubr
          hintmask 0000011001000000
          -32 callgsubr
        </CharString>
        <CharString name="Ecircumflextilde">
          182 callgsubr
          162 114 callgsubr
          hintmask 11100000
          -105 callsubr
          hintmask 00010100
          2 701 10 callsubr
        </CharString>
        <CharString name="Edblgrave">
          -1 callgsubr
          84 49 callsubr
          hintmask 11100000
          -105 callsubr
          hintmask 00011000
          -11 725 -81 callgsubr
        </CharString>
        <CharString name="Edieresis">
          -1 callgsubr
          53 78 hstemhm
          413 89 104 89 hintmask 11100000
          -105 callsubr
          hintmask 00011100
          -230 741 -100 callsubr
          endchar
        </CharString>
        <CharString name="Edotaccent">
          -1 callgsubr
          68 87 hstemhm
          509 98 hintmask 11100000
          -105 callsubr
          hintmask 00011000
          -125 760 -63 callgsubr
          endchar
        </CharString>
        <CharString name="Edotbelow">
          -1 callgsubr
          hstemhm
          307 98 hintmask 11100000
          -105 callsubr
          hintmask 00010000
          -327 -190 -104 callgsubr
        </CharString>
        <CharString name="Egrave">
          -1 callgsubr
          84 49 callsubr
          hintmask 11100000
          -105 callsubr
          hintmask 00011000
          -96 725 -84 callgsubr
        </CharString>
        <CharString name="Ehookabove">
          -1 callgsubr
          235 94 callgsubr
          478 68 callgsubr
          hintmask 1110000000000000
          -105 callsubr
          hintmask 0001000000000000
          -31 861 -43 callsubr
        </CharString>
        <CharString name="Emacron">
          -1 callgsubr
          73 66 hstemhm
          hintmask 11100000
          -105 callsubr
          hintmask 00010000
          49 749 rmoveto
          2 -95 callgsubr
          6 hvcurveto
          endchar
        </CharString>
        <CharString name="Eng">
          813 625 80 hstem
          73 callsubr
          144 94 99 94 vstem
          773 342 rmoveto
          183 39 -51 180 -164 hhcurveto
          -93 -95 -35 -59 -73 hvcurveto
          6 29 rlineto
          144 callgsubr
          -55 callsubr
          89 418 rlineto
          97 48 116 66 112 hhcurveto
          119 9 -145 -138 -29 hvcurveto
          -27 -127 -63 -133 -103 -20 -14 -3 -15 -12 -3 -15 -6 -26 rcurveline
          -3 -15 10 -12 14 2 152 18 115 170 37 173 rrcurveto
          endchar
        </CharString>
        <CharString name="Eogonek">
          778 -199 69 130 69 251 66 230 66 hstem
          732 34 rmoveto
          35 8 -28 0 -16 hhcurveto
          -475 73 callgsubr
          423 hlineto
          14 30 0 33 7 hvcurveto
          33 7 -30 0 -14 hhcurveto
          -423 hlineto
          49 230 rlineto
          458 hlineto
          14 30 0 33 7 hvcurveto
          33 7 -30 0 -14 hhcurveto
          -508 -66 callgsubr
          382 hlineto
          -42 -29 -32 -43 -9 -43 -41 callsubr
          -68 -20 68 62 115 hvcurveto
          70 117 callsubr
        </CharString>
        <CharString name="Eogonekacute">
          778 -199 69 130 69 251 66 230 66 84 49 callsubr
          hintmask 11110000
          732 34 rmoveto
          35 8 -28 0 -16 hhcurveto
          -475 73 callgsubr
          423 hlineto
          14 30 0 33 7 hvcurveto
          33 7 -30 0 -14 hhcurveto
          -423 hlineto
          49 230 rlineto
          458 hlineto
          14 30 0 33 7 hvcurveto
          33 7 -30 0 -14 hhcurveto
          -508 -66 callgsubr
          382 hlineto
          -42 -29 -32 -43 -9 -43 -41 callsubr
          -68 -20 68 62 115 hvcurveto
          70 hlineto
          15 29 0 34 7 hvcurveto
          hintmask 00001100
          7 812 -102 callgsubr
        </CharString>
        <CharString name="Epsilon">
          -1 callgsubr
          hstem
          -105 callsubr
          endchar
        </CharString>
        <CharString name="Ereversed">
          -1 callgsubr
          hstem
          734 84 callsubr
          594 rlineto
          36 7 -8 8 -34 hhcurveto
          -508 hlineto
          -14 -30 0 -33 -7 hvcurveto
          -33 -7 30 0 14 hhcurveto
          458 hlineto
          -49 -230 rlineto
          -423 hlineto
          -14 -30 0 -33 -7 hvcurveto
          -33 -7 30 0 14 hhcurveto
          423 hlineto
          -53 -251 rlineto
          -475 hlineto
          -16 -28 0 -35 -8 hvcurveto
          -34 -7 29 0 15 hhcurveto
          525 hlineto
          36 10 10 34 7 hvcurveto
          endchar
        </CharString>
        <CharString name="Eta">
          83 callgsubr
          hstem
          73 callsubr
          273 94 33 94 vstem
          -85 callsubr
          endchar
        </CharString>
        <CharString name="Eth">
          -16 callsubr
        </CharString>
        <CharString name="Etilde">
          -1 callgsubr
          53 114 callgsubr
          hintmask 11100000
          -105 callsubr
          hintmask 00001000
          40 789 -21 callgsubr
        </CharString>
        <CharString name="Euro">
          748 -21 66 196 66 70 66 146 66 -16 66 hstemhm
          234 94 hintmask 11101100
          695 49 rmoveto
          6 44 rlineto
          7 1 -5 6 -7 hhcurveto
          -4 -3 -1 -2 -3 hvcurveto
          -38 -54 -62 -20 -59 hhcurveto
          -67 -53 34 52 -31 hvcurveto
          -20 33 -11 37 -3 40 rrcurveto
          303 hlineto
          7 7 5 7 3 hvcurveto
          14 38 rlineto
          10 3 -5 6 -8 hhcurveto
          -322 hlineto
          1 12 2 11 3 12 2 12 3 11 4 12 rrcurveto
          339 hlineto
          7 7 5 7 2 hvcurveto
          15 38 rlineto
          10 3 -5 6 -8 hhcurveto
          -334 hlineto
          20 40 27 37 34 33 rrcurveto
          52 53 68 34 66 hhcurveto
          hintmask 00010000
          52 47 -18 -32 33 hvcurveto
          -2 2 3 -2 3 hhcurveto
          7 7 5 7 3 hvcurveto
          22 58 2 6 -2 6 -5 3 rlinecurve
          hintmask 11101100
          23 -48 -54 12 -58 hhcurveto
          -90 -94 -40 -67 -75 hvcurveto
          -51 -44 -39 -54 -28 -57 rrcurveto
          -87 hlineto
          -7 -7 -5 -7 -3 hvcurveto
          -15 -38 rlineto
          -10 -2 5 -6 8 hhcurveto
          83 hlineto
          -4 -12 -3 -11 -2 -12 -3 -12 -2 -11 -1 -12 rrcurveto
          -76 hlineto
          -7 -7 -5 -7 -3 hvcurveto
          -14 -38 rlineto
          -10 -3 5 -6 8 hhcurveto
          94 hlineto
          3 -57 17 -54 32 -44 rrcurveto
          -67 47 76 -40 91 hhcurveto
          65 69 20 37 62 hvcurveto
          4 3 4 5 5 vvcurveto
          endchar
        </CharString>
        <CharString name="F">
          743 21 -21 308 66 242 66 hstem
          121 94 vstem
          828 649 rmoveto
          33 7 -30 0 -14 hhcurveto
          -490 -66 callgsubr
          6 hlineto
          34 12 8 36 7 hvcurveto
          56 264 rlineto
          388 hlineto
          14 30 0 33 7 hvcurveto
          33 7 -30 0 -14 hhcurveto
          -388 hlineto
          52 242 rlineto
          440 hlineto
          14 30 0 33 7 hvcurveto
          endchar
        </CharString>
        <CharString name="G">
          99 callgsubr
          hstem
          -100 callgsubr
          endchar
        </CharString>
        <CharString name="Gacute">
          99 callgsubr
          72 -21 115 -80 callsubr
          hintmask 00011000
          8 795 -102 callgsubr
        </CharString>
        <CharString name="Gamma">
          708 21 -21 616 66 hstem
          121 94 vstem
          793 649 rmoveto
          33 7 -30 0 -14 hhcurveto
          -455 98 callgsubr
          405 hlineto
          14 30 0 33 7 hvcurveto
          endchar
        </CharString>
        <CharString name="Gbreve">
          99 callgsubr
          51 69 20 -80 callsubr
          hintmask 00001000
          34 751 -18 callgsubr
          endchar
        </CharString>
        <CharString name="Gcaron">
          99 callgsubr
          62 -21 107 -80 callsubr
          hintmask 00011000
          25 791 -55 callgsubr
        </CharString>
        <CharString name="Gcedilla">
          833 44 callgsubr
          66 100 callsubr
          hstem
          -100 callgsubr
          -328 -189 -101 callgsubr
        </CharString>
        <CharString name="Gcircumflex">
          99 callgsubr
          62 -21 107 -80 callsubr
          hintmask 00011000
          3 684 -85 callgsubr
          endchar
        </CharString>
        <CharString name="Gcommaaccent">
          833 44 callgsubr
          66 100 callsubr
          hstemhm
          hintmask 00111000
          -100 callgsubr
          hintmask 11000000
          -328 -189 -101 callgsubr
        </CharString>
        <CharString name="Gdotaccent">
          99 callgsubr
          56 87 hstemhm
          537 98 -79 callsubr
          hintmask 00011000
          -124 743 -63 callgsubr
          endchar
        </CharString>
        <CharString name="H">
          83 callgsubr
          hstem
          73 callsubr
          273 94 33 94 vstem
          -85 callsubr
          endchar
        </CharString>
        <CharString name="H_uni0303">
          83 callgsubr
          71 63 -20 63 191 callgsubr
          hintmask 1110011110000000
          -85 callsubr
          hintmask 0000100000000000
          80 779 -45 callsubr
          hintmask 0001000000000000
          -47 callgsubr
          hintmask 0000100000000000
          -2 callsubr
          -10 hvcurveto
          hintmask 0001000000000000
          -18 -3 -66 callsubr
          6 hvcurveto
          hintmask 0000100000000000
          -48 callsubr
          hintmask 0001000000000000
          -31 callgsubr
        </CharString>
        <CharString name="Hbar">
          813 21 -21 323 66 91 66 138 -20 hstemhm
          121 94 -1 94 -80 94 -74 94 273 94 -1 94 -80 94 -74 94 hintmask 0010000000100000
          862 511 rmoveto
          4 vlineto
          17 4 188 callsubr
          -22 hlineto
          hintmask 0001000000010000
          20 94 -96 callgsubr
          hintmask 0010001000100000
          -20 -94 rlineto
          -400 hlineto
          hintmask 0001000100000000
          20 94 -96 callgsubr
          hintmask 0010001000000000
          -20 -94 rlineto
          -22 hlineto
          -17 -17 -14 -17 -4 hvcurveto
          -4 vlineto
          -17 -4 11 -14 17 hhcurveto
          hintmask 0010010000000000
          22 hlineto
          hintmask 1100100010000000
          -93 -436 -55 callsubr
          60 279 202 callgsubr
          -60 -279 -55 callsubr
          hintmask 0110010001000000
          93 436 rlineto
          22 hlineto
          17 17 14 17 4 hvcurveto
          -173 -122 rmoveto
          -400 hlineto
          19 91 202 callgsubr
          endchar
        </CharString>
        <CharString name="Hbrevebelow">
          813 -200 69 20 -20 152 -21 323 66 295 -20 191 callgsubr
          hintmask 0011111110000000
          -85 callsubr
          hintmask 0100000000000000
          -127 -187 rmoveto
          18 3 -30 callgsubr
          -6 hvcurveto
          hintmask 1000000000000000
          13 callsubr
          hintmask 0100000000000000
          5 -4 -6 4 -9 hhcurveto
          -19 -16 -14 -18 -3 hvcurveto
          hintmask 1000000000000000
          -57 -13 93 0 112 hhcurveto
          112 93 0 57 13 hvcurveto
          endchar
        </CharString>
        <CharString name="Hcircumflex">
          83 callgsubr
          92 -21 107 -20 191 callgsubr
          hintmask 1110011110000000
          -85 callsubr
          hintmask 0001100000000000
          42 691 -85 callgsubr
          endchar
        </CharString>
        <CharString name="Hdieresis">
          83 callgsubr
          71 78 133 callgsubr
          88 89 96 94 -86 89 30 94 hintmask 1110110101000000
          -85 callsubr
          hintmask 0001001010000000
          -190 731 -100 callsubr
          endchar
        </CharString>
        <CharString name="Hdotbelow">
          83 callgsubr
          133 callgsubr
          -17 98 192 94 33 94 hintmask 11111011
          -85 callsubr
          hintmask 00000100
          -286 -200 -104 callgsubr
        </CharString>
        <CharString name="I">
          53 callsubr
          hstem
          73 callsubr
          vstem
          215 12 callsubr
          -127 -596 -55 callsubr
          endchar
        </CharString>
        <CharString name="I.alt">
          319 0 80 524 80 hstem
          129 94 17 94 vstem
          2 callsubr
          160 161 callsubr
          endchar
        </CharString>
        <CharString name="I_J">
          864 -21 66 639 -20 hstemhm
          121 94 -59 92 -33 92 -59 94 -35 92 418 92 hintmask 00000100
          215 84 callsubr
          596 rlineto
          hintmask 01001000
          34 7 -12 callgsubr
          -6 hlineto
          hintmask 00010000
          -57 callsubr
          hintmask 00100000
          28 callgsubr
          hintmask 00010000
          -34 -7 6 -10 36 hhcurveto
          6 hlineto
          hintmask 11001001
          34 12 8 36 7 hvcurveto
          589 103 41 callgsubr
          -104 -488 rlineto
          -53 -11 -34 -54 -124 hhcurveto
          hintmask 10000010
          -22 -65 0 47 -58 hvcurveto
          7 -10 -2 0 -3 hhcurveto
          -12 -3 -8 -19 -8 hvcurveto
          -2 -5 -11 -29 -1 -3 -2 -11 5 -3 20 -8 rrcurveto
          -14 34 65 -20 82 hhcurveto
          115 112 43 125 26 hvcurveto
          endchar
        </CharString>
        <CharString name="I_J.alt">
          864 -21 66 -45 80 -8 80 452 80 hstemhm
          129 94 17 94 483 92 hintmask 01011110
          2 callsubr
          160 161 callsubr
          516 107 41 callgsubr
          hintmask 10100000
          -104 -488 rlineto
          -53 -11 -34 -54 -124 hhcurveto
          -22 -65 0 47 -58 hvcurveto
          7 -10 -2 0 -3 hhcurveto
          -12 -3 -8 -19 -8 hvcurveto
          -2 -5 -11 -29 -1 -3 -2 -11 5 -3 20 -8 rrcurveto
          -14 34 65 -20 82 hhcurveto
          115 112 43 125 26 hvcurveto
          endchar
        </CharString>
        <CharString name="Iacute">
          53 callsubr
          102 -21 115 -47 callsubr
          hintmask 00110000
          333 802 -102 callgsubr
        </CharString>
        <CharString name="Ibreve">
          53 callsubr
          81 69 20 -47 callsubr
          hintmask 00010000
          321 758 8 callgsubr
        </CharString>
        <CharString name="Icaron">
          53 callsubr
          92 -21 107 -47 callsubr
          hintmask 00110000
          312 798 -55 callgsubr
        </CharString>
        <CharString name="Icircumflex">
          53 callsubr
          92 -21 107 -47 callsubr
          hintmask 00110000
          290 691 -85 callgsubr
          endchar
        </CharString>
        <CharString name="Idblgrave">
          53 callsubr
          102 -21 115 -47 callsubr
          hintmask 00110000
          277 715 -81 callgsubr
        </CharString>
        <CharString name="Idieresis">
          53 callsubr
          71 78 208 callsubr
          hintmask 11010100
          215 12 callsubr
          -127 -596 -55 callsubr
          hintmask 00101010
          58 731 -100 callsubr
          endchar
        </CharString>
        <CharString name="Idieresisacute">
          53 callsubr
          71 78 92 -21 115 -20 208 callsubr
          hintmask 1100010100000000
          215 12 callsubr
          -127 -596 -55 callsubr
          hintmask 0011101010000000
          58 731 -100 callsubr
          74 210 -102 callgsubr
        </CharString>
        <CharString name="Idotaccent">
          53 callsubr
          86 87 133 callgsubr
          -62 98 hintmask 11011000
          215 12 callsubr
          -127 -596 -55 callsubr
          hintmask 00100100
          163 750 -63 callgsubr
          endchar
        </CharString>
        <CharString name="Idotbelow">
          53 callsubr
          hstemhm
          78 98 -55 94 33 94 hintmask 11011000
          215 12 callsubr
          -127 -596 -55 callsubr
          hintmask 00100000
          -39 -200 130 callsubr
          -21 -23 0 -43 -9 hvcurveto
          -40 -9 -9 callsubr
          hintmask 00010000
          8 hlineto
          hintmask 00100000
          -43 callgsubr
          endchar
        </CharString>
        <CharString name="Igrave">
          53 callsubr
          102 -21 115 -47 callsubr
          hintmask 00110000
          153 715 -84 callgsubr
        </CharString>
        <CharString name="Ihookabove">
          53 callsubr
          253 43 -23 43 133 callgsubr
          -93 68 callgsubr
          hintmask 1100110000000000
          215 12 callsubr
          -127 -596 -55 callsubr
          hintmask 0010000000000000
          257 851 7 callgsubr
        </CharString>
        <CharString name="Imacron">
          53 callsubr
          91 66 133 callgsubr
          hintmask 11011000
          215 12 callsubr
          -127 -596 -55 callsubr
          hintmask 00100000
          337 739 rmoveto
          2 -95 callgsubr
          6 hvcurveto
          endchar
        </CharString>
        <CharString name="Imacron.alt">
          53 callsubr
          91 66 133 callgsubr
          hintmask 11011000
          215 12 callsubr
          -127 -596 -55 callsubr
          hintmask 00100000
          233 739 78 callsubr
        </CharString>
        <CharString name="Iogonek">
          319 -199 69 151 77 callgsubr
          hstem
          73 callsubr
          vstem
          26 callsubr
          endchar
        </CharString>
        <CharString name="Iogonek.alt">
          319 -199 69 130 80 524 80 hstem
          129 94 17 94 vstem
          2 callsubr
          26 hlineto
          -40 -30 -36 -46 -8 -39 -41 callsubr
          -48 -24 172 callgsubr
          16 21 20 19 21 15 rrcurveto
          74 161 callsubr
          endchar
        </CharString>
        <CharString name="Iogonekacute">
          319 -199 69 151 77 callgsubr
          102 -21 115 -20 133 callgsubr
          hintmask 11100110
          26 callsubr
          hintmask 00011000
          303 989 -102 callgsubr
        </CharString>
        <CharString name="Iota">
          53 callsubr
          hstem
          73 callsubr
          vstem
          215 12 callsubr
          -127 -596 -55 callsubr
          endchar
        </CharString>
        <CharString name="Itilde">
          53 callsubr
          71 63 -20 63 -48 callgsubr
          hintmask 00010000
          328 779 -94 callsubr
        </CharString>
        <CharString name="J">
          576 -21 66 639 -20 hstem
          529 92 vstem
          -44 callsubr
          endchar
        </CharString>
        <CharString name="J_uni030C.cap">
          576.39131 -21 66 448 -21 125 87 hstem
          529 92 vstem
          -44 callsubr
          234 475 58 callgsubr
        </CharString>
        <CharString name="Jacute">
          576 -21 66 639 -20 102 49 callsubr
          529 92 hintmask 11001000
          -44 callsubr
          hintmask 00110000
          313 699 -102 callgsubr
        </CharString>
        <CharString name="Jcircumflex">
          576 -21 66 639 -20 92 -21 107 -20 hstemhm
          529 92 hintmask 11001000
          -44 callsubr
          hintmask 00110000
          268 588 -85 callgsubr
          endchar
        </CharString>
        <CharString name="K">
          840 44 callsubr
          hstem
          124 89 38 89 vstem
          -61 callgsubr
          endchar
        </CharString>
        <CharString name="Kappa">
          840 44 callsubr
          hstem
          124 89 38 89 vstem
          -61 callgsubr
          endchar
        </CharString>
        <CharString name="Kcedilla">
          840 190 callgsubr
          hstem
          124 89 38 89 vstem
          -61 callgsubr
          -347 -157 -101 callgsubr
        </CharString>
        <CharString name="Kcommaaccent">
          840 168 callsubr
          89 38 89 hintmask 00111100
          -61 callgsubr
          hintmask 11000000
          -347 -157 -101 callgsubr
        </CharString>
        <CharString name="L">
          163 callgsubr
          hstem
          248 94 vstem
          -75 callgsubr
          endchar
        </CharString>
        <CharString name="L_uni0303">
          163 callgsubr
          71 114 callgsubr
          248 94 hintmask 11001000
          -75 callgsubr
          hintmask 00010000
          -120 790 -94 callsubr
        </CharString>
        <CharString name="Lacute">
          163 callgsubr
          102 120 callsubr
          hintmask 11001000
          -75 callgsubr
          hintmask 00110000
          -114 813 -102 callgsubr
        </CharString>
        <CharString name="Lambda">
          736 165 callgsubr
          hstem
          51 643 vstem
          694 23 rmoveto
          0 1 6 -2 12 vhcurveto
          -124 615 rlineto
          38 -7 -20 0 -27 hhcurveto
          -30 -18 -2 -38 -24 hvcurveto
          -383 -613 rlineto
          -8 -12 -1 -6 0 vvcurveto
          -23 -5 23 0 8 hhcurveto
          38 15 24 14 9 hvcurveto
          225 362 38 60 62 101 21 43 rlinecurve
          4 -44 20 -100 12 -62 70 -357 rcurveline
          -37 7 13 -4 37 hhcurveto
          20 21 0 23 5 hvcurveto
          endchar
        </CharString>
        <CharString name="Lcaron">
          708 0 66 427 -21 125 87 hstem
          248 94 vstem
          -75 callgsubr
          -168 589 58 callgsubr
        </CharString>
        <CharString name="Lcedilla">
          708 44 callgsubr
          76 66 618 -20 hstem
          248 94 vstem
          -75 callgsubr
          -293 -171 -101 callgsubr
        </CharString>
        <CharString name="Lcommaaccent">
          708 44 callgsubr
          76 66 618 -20 hstemhm
          248 94 hintmask 00111000
          -75 callgsubr
          hintmask 11000000
          -293 -171 -101 callgsubr
        </CharString>
        <CharString name="Ldot">
          708 0 66 258 87 273 -20 hstem
          248 94 vstem
          -75 callgsubr
          -22 335 -63 callgsubr
          endchar
        </CharString>
        <CharString name="Ldotbelow">
          163 callgsubr
          hstemhm
          248 94 -69 98 hintmask 11100000
          -75 callgsubr
          hintmask 00010000
          -291 -189 -104 callgsubr
        </CharString>
        <CharString name="Ldotbelowmacron">
          163 callgsubr
          91 66 hstemhm
          248 94 -69 98 hintmask 11010000
          -75 callgsubr
          -291 -189 130 callsubr
          hintmask 00001000
          76 callgsubr
          180 939 rmoveto
          2 -95 callgsubr
          6 hvcurveto
          endchar
        </CharString>
        <CharString name="Lslash">
          813 199 callsubr
          hstem
          348 94 vstem
          762 33 rmoveto
          33 7 -30 0 -14 hhcurveto
          -405 hlineto
          62 290 236 155 12 8 4 14 -6 10 rlinecurve
          -8 15 -5 11 -13 2 -12 -8 rlinecurve
          -191 -125 43 202 -96 callgsubr
          -58 -274 -141 -93 -12 -8 -4 -13 5 -11 rlinecurve
          9 -15 5 -10 13 -2 12 8 rlinecurve
          96 63 -52 -241 -82 callsubr
          455 hlineto
          14 30 0 33 7 hvcurveto
          endchar
        </CharString>
        <CharString name="M">
          1021 44 callsubr
          hstem
          127 78 624 84 vstem
          -42 callgsubr
          endchar
        </CharString>
        <CharString name="Mdotbelow">
          1021 44 callsubr
          hstemhm
          127 78 224 98 302 84 hintmask 11101000
          -42 callgsubr
          hintmask 00010000
          -386 -202 -104 callgsubr
        </CharString>
        <CharString name="Mu">
          1021 44 callsubr
          hstem
          127 78 624 84 vstem
          -42 callgsubr
          endchar
        </CharString>
        <CharString name="N">
          141 callsubr
          hstem
          124 78 553 78 vstem
          -93 callsubr
          endchar
        </CharString>
        <CharString name="Nacute">
          141 callsubr
          102 -21 115 -20 195 callgsubr
          hintmask 11001100
          -93 callsubr
          hintmask 00110000
          50 802 -102 callgsubr
        </CharString>
        <CharString name="Ncaron">
          141 callsubr
          92 -21 107 -20 195 callgsubr
          hintmask 11001100
          -93 callsubr
          hintmask 00110000
          67 798 -55 callgsubr
        </CharString>
        <CharString name="Ncedilla">
          813 190 callgsubr
          hstem
          124 78 553 78 vstem
          -93 callsubr
          -285 -182 -101 callgsubr
        </CharString>
        <CharString name="Ncommaaccent">
          813 168 callsubr
          78 553 78 hintmask 00111100
          -93 callsubr
          hintmask 11000000
          -285 -182 -101 callgsubr
        </CharString>
        <CharString name="Ndotaccent">
          141 callsubr
          86 87 hstemhm
          124 78 324 98 131 78 hintmask 11010100
          -93 callsubr
          hintmask 00101000
          -82 750 -63 callgsubr
          endchar
        </CharString>
        <CharString name="Ndotbelow">
          141 callsubr
          hstemhm
          124 78 123 98 332 78 vstemhm
          -93 callsubr
          hintmask 00010000
          -283 -200 -104 callgsubr
        </CharString>
        <CharString name="Ntilde">
          141 callsubr
          71 63 -20 63 195 callgsubr
          hintmask 11001100
          -93 callsubr
          hintmask 00010000
          83 779 -94 callsubr
        </CharString>
        <CharString name="Nu">
          141 callsubr
          hstem
          124 78 553 78 vstem
          -93 callsubr
          endchar
        </CharString>
        <CharString name="O">
          34 callsubr
          hstem
          -105 callgsubr
          endchar
        </CharString>
        <CharString name="OE">
          -28 callgsubr
        </CharString>
        <CharString name="OE.dup">
          -28 callgsubr
        </CharString>
        <CharString name="Oacute">
          34 callsubr
          61 194 callgsubr
          -105 callgsubr
          hintmask 00110000
          -43 492 -102 callgsubr
        </CharString>
        <CharString name="Obreve">
          34 callsubr
          40 69 20 -20 hstemhm
          hintmask 11000000
          -105 callgsubr
          hintmask 00010000
          -17 448 8 callgsubr
        </CharString>
        <CharString name="Ocaron">
          34 callsubr
          51 -21 107 -20 hstemhm
          hintmask 11000000
          -105 callgsubr
          hintmask 00110000
          -26 488 -55 callgsubr
        </CharString>
        <CharString name="Ocircumflex">
          34 callsubr
          51 -21 107 -20 hstemhm
          hintmask 11000000
          -105 callgsubr
          hintmask 00110000
          -48 381 -85 callgsubr
          endchar
        </CharString>
        <CharString name="Ocircumflexacute">
          34 callsubr
          51 -21 257 -20 hstemhm
          hintmask 11000000
          -105 callgsubr
          hintmask 00110000
          -48 381 -85 callgsubr
          62 243 -102 callgsubr
        </CharString>
        <CharString name="Ocircumflexdotbelow">
          34 callsubr
          51 -21 107 -20 hstemhm
          401 98 hintmask 11110000
          -105 callgsubr
          -48 381 -85 callgsubr
          hintmask 00001000
          -258 -891 -104 callgsubr
        </CharString>
        <CharString name="Ocircumflexgrave">
          34 callsubr
          51 -21 107 -20 hstemhm
          hintmask 11000000
          -105 callgsubr
          hintmask 00110000
          -48 381 -28 callsubr
        </CharString>
        <CharString name="Ocircumflexhookabove">
          34 callsubr
          51 -21 309 94 callgsubr
          723 68 callgsubr
          hintmask 1100000000000000
          -105 callgsubr
          hintmask 0011000000000000
          -48 381 rmoveto
          -130 107 rlineto
          -72 hlineto
          -174 -107 rlineto
          71 hlineto
          133 77 101 -77 rlineto
          189 287 -43 callsubr
        </CharString>
        <CharString name="Ocircumflextilde">
          34 callsubr
          51 -21 162 114 callgsubr
          hintmask 11000000
          -105 callgsubr
          hintmask 00101000
          -48 381 -85 callgsubr
          144 250 -78 callsubr
          -7 hvcurveto
          hintmask 00010000
          -47 callgsubr
          hintmask 00001000
          20 -49 -23 4 -22 hhcurveto
          -74 -56 126 callgsubr
          hintmask 00010000
          86 callgsubr
          hintmask 00001000
          -48 callsubr
          hintmask 00010000
          -34 callgsubr
        </CharString>
        <CharString name="Odblgrave">
          34 callsubr
          61 194 callgsubr
          -105 callgsubr
          hintmask 00110000
          -61 405 -81 callgsubr
        </CharString>
        <CharString name="Odieresis">
          34 callsubr
          30 78 hstemhm
          507 89 104 89 hintmask 11000000
          -105 callgsubr
          hintmask 00111000
          -280 421 -100 callsubr
          endchar
        </CharString>
        <CharString name="Odotbelow">
          34 callsubr
          hstemhm
          401 98 29 callgsubr
          -377 -510 -104 callgsubr
        </CharString>
        <CharString name="Ograve">
          34 callsubr
          61 194 callgsubr
          -105 callgsubr
          hintmask 00110000
          -146 405 -84 callgsubr
        </CharString>
        <CharString name="Ohookabove">
          34 callsubr
          212 94 callgsubr
          572 68 callgsubr
          29 callgsubr
          -81 541 rmoveto
          5 23 callgsubr
          hintmask 00010000
          27 callsubr
          hintmask 00101000
          -77 callsubr
          hintmask 00011001
          -58 callsubr
          hintmask 00000100
          -26 callgsubr
          hintmask 00000011
          5 22 7 34 35 151 callsubr
          27 13 22 18 6 24 rrcurveto
          endchar
        </CharString>
        <CharString name="Ohorn">
          121 callsubr
          76 -20 177 callgsubr
          hintmask 00010000
          5 callsubr
          hintmask 00100100
          15 -1 callsubr
          -8 -7 -6 -8 -2 hvcurveto
          hintmask 11010000
          -50 callsubr
          hintmask 11001000
          -60 callgsubr
          endchar
        </CharString>
        <CharString name="Ohornacute">
          121 callsubr
          61 -21 36 -20 99 -20 177 callgsubr
          hintmask 00000100
          5 callsubr
          hintmask 00010001
          15 -1 callsubr
          -8 -7 -6 -8 -2 hvcurveto
          hintmask 11000100
          -50 callsubr
          hintmask 11000010
          -60 callgsubr
          hintmask 00101000
          -78 490 -102 callgsubr
        </CharString>
        <CharString name="Ohorndotbelow">
          121 callsubr
          76 -20 hstemhm
          401 98 358 179 callsubr
          hintmask 00001000
          5 callsubr
          hintmask 00100010
          15 -1 callsubr
          -8 -7 -6 -8 -2 hvcurveto
          hintmask 11001000
          -50 callsubr
          hintmask 11000100
          -60 callgsubr
          hintmask 00010000
          -377 -512 -104 callgsubr
        </CharString>
        <CharString name="Ohorngrave">
          121 callsubr
          61 -21 36 -20 99 -20 177 callgsubr
          hintmask 00000100
          5 callsubr
          hintmask 00010001
          15 -1 callsubr
          -8 -7 -6 -8 -2 hvcurveto
          hintmask 11000100
          -50 callsubr
          hintmask 11000010
          -60 callgsubr
          hintmask 00101000
          -146 403 -84 callgsubr
        </CharString>
        <CharString name="Ohornhookabove">
          121 callsubr
          76 -20 156 94 callgsubr
          572 68 callgsubr
          62 179 callsubr
          hintmask 0000000001000000
          5 callsubr
          hintmask 0010000000010000
          15 -1 callsubr
          -8 -7 -6 -8 -2 hvcurveto
          hintmask 1100000001000000
          -50 callsubr
          hintmask 1100000000100000
          -60 callgsubr
          hintmask 0001000000000000
          -81 539 -43 callsubr
        </CharString>
        <CharString name="Ohorntilde">
          121 callsubr
          30 63 -20 63 177 callgsubr
          hintmask 00001000
          5 callsubr
          hintmask 00000010
          15 -1 callsubr
          -8 -7 -6 -8 -2 hvcurveto
          hintmask 11001000
          -50 callsubr
          hintmask 11000100
          -60 callgsubr
          hintmask 00010000
          -45 467 -94 callsubr
        </CharString>
        <CharString name="Ohungarumlaut">
          34 callsubr
          61 194 callgsubr
          -105 callgsubr
          hintmask 00110000
          -214 492 rmoveto
          -33 callsubr
          208 hmoveto
          -33 callsubr
          endchar
        </CharString>
        <CharString name="Omacron">
          34 callsubr
          50 66 hstemhm
          29 callgsubr
          -1 429 rmoveto
          2 -95 callgsubr
          6 hvcurveto
          endchar
        </CharString>
        <CharString name="Omega">
          -13 callgsubr
        </CharString>
        <CharString name="Omicron">
          34 callsubr
          hstem
          -105 callgsubr
          endchar
        </CharString>
        <CharString name="Oogonek">
          34 callsubr
          hstem
          -5 callgsubr
          endchar
        </CharString>
        <CharString name="Oogonekacute">
          34 callsubr
          61 194 callgsubr
          -5 callgsubr
          hintmask 00110000
          -43 492 -102 callgsubr
        </CharString>
        <CharString name="Orogate">
          965 967 341 rmoveto
          40 186 -128 163 -216 14 18 88 rcurveline
          17 -14 14 -17 -15 -12 -11 -14 -3 vhcurveto
          -20 -94 -222 -14 -197 -163 -40 -186 rlinecurve
          -39 -188 130 -159 214 -14 -18 -88 193 callsubr
          20 94 220 14 199 159 39 188 rlinecurve
          -91 13 rmoveto
          -173 -37 -160 -136 -187 hhcurveto
          -187 -104 136 173 37 hvcurveto
          167 36 161 119 183 hhcurveto
          183 111 -120 -166 -36 hvcurveto
          endchar
        </CharString>
        <CharString name="Oslash">
          -32 callsubr
        </CharString>
        <CharString name="Oslash.dup">
          -32 callsubr
        </CharString>
        <CharString name="Oslashacute">
          972 -67 63 -17 63 600 63 46 -20 35 49 callsubr
          141 89 655 89 hintmask 10110010
          974 341 rmoveto
          21 97 -25 107 -84 73 74 73 rcurveline
          10 9 7 7 3 11 rrcurveto
          18 3 -12 15 -17 hhcurveto
          -15 -8 -8 -9 -11 hvcurveto
          -81 -80 rlineto
          45 -79 -78 6 -46 hhcurveto
          -239 -214 -171 -193 -42 hvcurveto
          -27 -129 56 -97 60 -50 -51 -51 -15 -13 -6 -5 -13 -13 -6 -7 -2 -10 rrcurveto
          -17 -4 12 -16 18 hhcurveto
          15 7 7 10 11 hvcurveto
          82 80 rlineto
          hintmask 01100011
          -38 63 75 -13 65 hhcurveto
          236 216 166 196 41 hvcurveto
          -188 263 rmoveto
          -503 -488 -65 66 -2 90 14 69 rlinecurve
          176 38 155 125 198 hhcurveto
          79 48 -19 -19 38 hvcurveto
          99 -263 rmoveto
          -179 -38 -157 -120 -195 hhcurveto
          -93 -51 27 11 -21 hvcurveto
          503 488 73 -73 -10 -103 -11 -51 rlinecurve
          hintmask 00001100
          -49 505 -102 callgsubr
        </CharString>
        <CharString name="Otilde">
          34 callsubr
          30 114 callgsubr
          hintmask 11000000
          -105 callgsubr
          hintmask 00010000
          -10 469 -94 callsubr
        </CharString>
        <CharString name="P">
          16 callgsubr
        </CharString>
        <CharString name="Phi">
          903 21 -21 104 63 350 63 104 -20 hstem
          514 91 -78 91 -78 91 cntrmask 00001110
          906 342 rmoveto
          25 121 -123 103 -190 14 13 60 rcurveline
          37 8 -11 7 -33 hhcurveto
          -30 -16 -3 -41 -9 hvcurveto
          -13 -61 -181 -11 -178 -100 -26 -126 rlinecurve
          -27 -126 135 -100 176 -11 -13 -61 rcurveline
          48 callgsubr
          31 15 5 39 8 hvcurveto
          13 60 197 14 166 104 26 120 rlinecurve
          -467 -175 rmoveto
          -175 12 -47 86 17 77 16 76 82 87 182 12 rrcurveto
          300 -175 rmoveto
          -16 -75 -82 -89 -186 -11 75 350 rcurveline
          180 -11 45 -89 -16 -75 rrcurveto
          endchar
        </CharString>
        <CharString name="Pi">
          813 21 -21 616 66 hstem
          121 94 400 94 vstem
          709 84 callsubr
          594 64 callgsubr
          -500 98 callgsubr
          400 hlineto
          -122 -572 -55 callsubr
          endchar
        </CharString>
        <CharString name="Psi">
          972 21 -21 105 64 373 64 78 -20 hstemhm
          448 91 -78 91 -77 91 -27 91 -55 91 135 91 hintmask 0110001011000000
          1024 574 rmoveto
          32 7 -29 0 -20 hhcurveto
          -90 -59 -64 -145 -32 hvcurveto
          -28 -131 -88 -80 -119 -17 100 471 rcurveline
          hintmask 0001000100000000
          37 8 -11 7 -33 hhcurveto
          hintmask 0110001010000000
          -30 -16 -3 -41 -9 hvcurveto
          -100 -471 -175 29 29 155 16 73 rlinecurve
          3 15 73 -23 54 vhcurveto
          50 -22 -45 0 -23 hhcurveto
          -20 -29 0 -32 -7 hvcurveto
          -1 -3 -4 -25 30 -3 60 -5 -22 -109 -1 -6 rrcurveto
          hintmask 0100010000000000
          -28 -136 11 -155 225 -27 rrcurveto
          hintmask 1000100000000000
          -13 -61 82 callgsubr
          31 15 5 39 8 hvcurveto
          hintmask 0100010001000000
          13 61 72 7 88 24 69 65 rlinecurve
          86 81 23 102 2 10 7 36 8 32 18 34 24 42 19 3 22 2 17 2 14 15 3 14 rrcurveto
          endchar
        </CharString>
        <CharString name="Q">
          965 -118 -21 118 65 596 65 hstem
          141 92 466 92 84 92 vstem
          967 341 rmoveto
          195 42 -143 169 -234 hhcurveto
          -235 -214 -169 -195 -42 hvcurveto
          -197 -41 146 -165 232 hhcurveto
          16 54 0 20 71 hvcurveto
          19 -31 28 -36 25 -32 23 -30 rcurveline
          -9 13 8 0 17 hhcurveto
          20 hlineto
          14 18 0 18 4 hvcurveto
          2 9 -11 13 -8 10 -92 118 rcurveline
          172 84 76 130 20 98 rrcurveto
          -92 hmoveto
          -18 -86 -60 -111 -138 -64 -41 49 -30 41 -8 9 rrcurveto
          12 -10 0 1 -24 hhcurveto
          -13 hlineto
          -15 -17 0 -19 -4 hvcurveto
          -1 -5 -1 -2 12 -18 70 -94 rcurveline
          -10 -43 -28 0 -15 hhcurveto
          -186 -108 126 171 36 hvcurveto
          168 36 161 131 188 hhcurveto
          189 104 -132 -167 -36 hvcurveto
          endchar
        </CharString>
        <CharString name="R">
          60 callsubr
          91 callgsubr
          hintmask 11111010
          -86 callgsubr
          hintmask 01100100
          -42 callsubr
          hintmask 00000010
          81 callsubr
          endchar
        </CharString>
        <CharString name="Racute">
          60 callsubr
          82 -21 115 -20 91 callgsubr
          hintmask 1110011010000000
          -86 callgsubr
          hintmask 0110000100000000
          -42 callsubr
          hintmask 0000000010000000
          81 callsubr
          hintmask 0001100000000000
          -4 350 -102 callgsubr
        </CharString>
        <CharString name="Rcaron">
          60 callsubr
          72 -21 107 -20 91 callgsubr
          hintmask 1110011010000000
          -86 callgsubr
          hintmask 0110000100000000
          -42 callsubr
          hintmask 0000000010000000
          81 callsubr
          hintmask 0001100000000000
          13 346 -55 callgsubr
        </CharString>
        <CharString name="Rcedilla">
          816 67 callgsubr
          311 63 244 66 91 callgsubr
          hintmask 0011111010000000
          -86 callgsubr
          hintmask 0001100100000000
          -42 callsubr
          hintmask 1100000010000000
          81 callsubr
          -339 -634 -101 callgsubr
        </CharString>
        <CharString name="Rcommaaccent">
          816 67 callgsubr
          311 63 244 66 91 callgsubr
          hintmask 0011111010000000
          -86 callgsubr
          hintmask 0001100100000000
          -42 callsubr
          hintmask 0000000010000000
          81 callsubr
          hintmask 1100000000000000
          -339 -634 -101 callgsubr
        </CharString>
        <CharString name="Rdblgrave">
          60 callsubr
          82 -21 115 -20 91 callgsubr
          hintmask 1110011010000000
          -86 callgsubr
          hintmask 0110000100000000
          -42 callsubr
          hintmask 0000000010000000
          81 callsubr
          hintmask 0001100000000000
          -57 263 -81 callgsubr
        </CharString>
        <CharString name="Rdotaccent">
          60 callsubr
          66 87 187 callgsubr
          314 98 -41 89 0 89 -1 89 hintmask 1110101010000000
          -86 callgsubr
          hintmask 0110000100000000
          -42 callsubr
          hintmask 0000000010000000
          81 callsubr
          hintmask 0001010000000000
          -136 298 -63 callgsubr
          endchar
        </CharString>
        <CharString name="Rdotbelow">
          60 callsubr
          187 callgsubr
          112 98 161 89 0 89 -1 89 hintmask 11110101
          -86 callgsubr
          hintmask 01100010
          -42 callsubr
          hintmask 00000001
          81 callsubr
          hintmask 00001000
          -338 -652 -104 callgsubr
        </CharString>
        <CharString name="Rdotbelowmacron">
          60 callsubr
          71 66 187 callgsubr
          112 98 161 89 0 89 -1 89 hintmask 1110101010000000
          -86 callgsubr
          hintmask 0110000100000000
          -42 callsubr
          hintmask 0000010010000000
          81 callsubr
          -338 -652 -104 callsubr
          hintmask 0001000000000000
          376 939 rmoveto
          2 -95 callgsubr
          6 hvcurveto
          endchar
        </CharString>
        <CharString name="Rho">
          16 callgsubr
        </CharString>
        <CharString name="S">
          66 callsubr
          hstemhm
          208 83 hintmask 01111000
          -99 callsubr
          hintmask 10000000
          -19 callsubr
          endchar
        </CharString>
        <CharString name="S_S">
          1389 -21 70 -70 72 399 72 113 70 hstemhm
          208 83 611 83 hintmask 01111000
          -99 callsubr
          hintmask 10110100
          -19 callsubr
          694 hmoveto
          15 71 -32 39 -15 21 -42 52 -73 15 -57 12 -117 24 -21 4 -31 24 -22 17 -13 24 7 31 rrcurveto
          56 12 88 57 121 hhcurveto
          75 49 -17 -39 51 hvcurveto
          -8 9 154 callsubr
          4 7 23 9 hvcurveto
          2 7 13 30 4 vvcurveto
          3 10 -1 1 -27 12 rrcurveto
          33 -69 -62 7 -57 hhcurveto
          -172 -130 -96 -99 -21 hvcurveto
          -12 -57 22 -38 21 -25 44 -50 57 -11 100 -21 79 -16 25 -5 32 -24 26 -20 15 -30 -7 -36 rrcurveto
          hintmask 01000000
          -63 -14 -90 -63 -120 hhcurveto
          -62 -86 13 62 -84 hvcurveto
          7 -10 -2 0 -3 hhcurveto
          -11 -3 -7 -23 -9 hvcurveto
          -3 -7 -12 -30 -1 -4 rrcurveto
          hintmask 10000000
          -19 callsubr
          endchar
        </CharString>
        <CharString name="Sacute">
          66 callsubr
          61 49 callsubr
          208 83 hintmask 01110010
          -99 callsubr
          hintmask 10000000
          -19 callsubr
          hintmask 00001100
          33 658 -102 callgsubr
        </CharString>
        <CharString name="Scaron">
          66 callsubr
          51 -21 107 -20 hstemhm
          208 83 hintmask 01110010
          -99 callsubr
          hintmask 10000000
          -19 callsubr
          hintmask 00001100
          50 654 -55 callgsubr
        </CharString>
        <CharString name="Scedilla">
          66 callsubr
          hstemhm
          208 83 hintmask 01111000
          -99 callsubr
          hintmask 10000000
          -19 callsubr
          -277 -246 -35 callgsubr
        </CharString>
        <CharString name="Scircumflex">
          66 callsubr
          51 -21 107 -20 hstemhm
          208 83 hintmask 01110010
          -99 callsubr
          hintmask 10000000
          -19 callsubr
          hintmask 00001100
          28 547 -85 callgsubr
          endchar
        </CharString>
        <CharString name="Sdotbelow">
          66 callsubr
          hstemhm
          208 83 -25 98 hintmask 01111000
          -99 callsubr
          hintmask 10000000
          -19 callsubr
          hintmask 00000100
          -300 -344 -104 callgsubr
        </CharString>
        <CharString name="Sigma">
          903 0 72 546 66 hstem
          841 36 rmoveto
          36 7 -27 0 -17 hhcurveto
          -583 hlineto
          284 244 11 9 5 5 3 12 rlinecurve
          2 10 -2 6 -7 10 -173 250 rcurveline
          576 hlineto
          14 30 0 33 7 hvcurveto
          33 7 -30 0 -14 hhcurveto
          -676 hlineto
          -14 -30 0 -33 -7 hvcurveto
          -2 -13 3 -7 6 -7 201 -291 rcurveline
          -322 -276 -8 -7 -7 -8 -2 -10 rlinecurve
          111 callsubr
          676 hlineto
          17 27 0 36 8 hvcurveto
          endchar
        </CharString>
        <CharString name="T">
          123 callgsubr
          hstem
          410 94 28 94 vstem
          -81 callsubr
          endchar
        </CharString>
        <CharString name="T_uni0303">
          123 callgsubr
          51 114 callgsubr
          410 94 28 94 hintmask 11001100
          -81 callsubr
          hintmask 00010000
          -157 175 -94 callsubr
        </CharString>
        <CharString name="T_uni0308">
          123 callgsubr
          51 78 hstemhm
          410 94 -32 89 -29 94 39 89 hintmask 11010100
          -81 callsubr
          hintmask 00101010
          -427 127 -100 callsubr
          endchar
        </CharString>
        <CharString name="Tau">
          123 callgsubr
          hstem
          410 94 28 94 vstem
          -81 callsubr
          endchar
        </CharString>
        <CharString name="Tcaron">
          123 callgsubr
          72 -21 107 -20 hstemhm
          410 94 28 94 hintmask 11001100
          -81 callsubr
          hintmask 00110000
          -173 194 -55 callgsubr
        </CharString>
        <CharString name="Tcedilla">
          896 -122 -21 120 -20 64 -21 615 69 hstemhm
          318 153 -61 94 28 94 hintmask 01110110
          -81 callsubr
          -517 -685 rmoveto
          14 3 171 callgsubr
          -6 hlineto
          -19 -1 -1 -16 -21 hvcurveto
          hintmask 10001000
          42 callsubr
        </CharString>
        <CharString name="Tdotbelow">
          123 callgsubr
          hstemhm
          366 98 -54 94 28 94 hintmask 11011000
          -81 callsubr
          hintmask 00100000
          -524 -804 -104 callgsubr
        </CharString>
        <CharString name="Theta">
          972 -21 64 255 89 255 63 hstem
          141 91 651 91 vstem
          974 341 rmoveto
          195 42 -144 169 -236 hhcurveto
          -239 -214 -171 -193 -42 hvcurveto
          -198 -42 150 -164 232 hhcurveto
          236 216 166 196 41 hvcurveto
          -91 hmoveto
          -172 -36 -165 -126 -187 hhcurveto
          -191 -107 129 169 35 hvcurveto
          169 36 163 132 190 hhcurveto
          194 104 -135 -166 -36 hvcurveto
          -69 1 rmoveto
          34 7 -6 11 -39 hhcurveto
          -417 hlineto
          -35 -13 -7 -37 -8 hvcurveto
          -34 -7 5 -11 39 hhcurveto
          417 hlineto
          35 14 7 37 8 hvcurveto
          endchar
        </CharString>
        <CharString name="Thorn">
          715 21 -21 178 66 258 66 116 -20 hstem
          724 373 rmoveto
          101 22 -88 94 -153 hhcurveto
          -179 hlineto
          15 70 rlineto
          34 7 -4 12 -39 hhcurveto
          -36 -11 -8 -38 -8 hvcurveto
          -126 -592 rlineto
          -36 -8 6 -10 38 hhcurveto
          38 9 11 35 8 hvcurveto
          28 132 rlineto
          182 hlineto
          145 132 91 104 22 hvcurveto
          -89 -1 rmoveto
          -67 -14 -100 -61 -117 hhcurveto
          -147 hlineto
          55 258 rlineto
          129 hlineto
          120 90 -56 -74 -16 hvcurveto
          endchar
        </CharString>
        <CharString name="Tlinebelow">
          896 -189 66 144 -21 615 69 hstemhm
          410 94 28 94 hintmask 01111000
          -81 callsubr
          hintmask 10000000
          -349 -809 rmoveto
          2 -95 callgsubr
          6 hvcurveto
          endchar
        </CharString>
        <CharString name="U">
          45 callsubr
          hstem
          102 callsubr
          vstem
          -103 callsubr
          endchar
        </CharString>
        <CharString name="U_uni032F">
          809 -180 69 -68 -21 179 66 639 -20 92 callgsubr
          hintmask 00111100
          -103 callsubr
          hintmask 10000000
          -171 -399 -19 callgsubr
        </CharString>
        <CharString name="Uacute">
          45 callsubr
          102 -21 115 -20 -92 callsubr
          hintmask 00110000
          10 615 -102 callgsubr
        </CharString>
        <CharString name="Ubreve">
          45 callsubr
          81 69 20 -20 -92 callsubr
          hintmask 00010000
          36 571 8 callgsubr
        </CharString>
        <CharString name="Ucaron">
          45 callsubr
          92 -21 107 -20 -92 callsubr
          hintmask 00110000
          27 611 -55 callgsubr
        </CharString>
        <CharString name="Ucircumflex">
          45 callsubr
          92 -21 107 -20 -92 callsubr
          hintmask 00110000
          5 504 -85 callgsubr
          endchar
        </CharString>
        <CharString name="Udblgrave">
          45 callsubr
          102 -21 115 -20 -92 callsubr
          hintmask 00110000
          -8 528 -81 callgsubr
        </CharString>
        <CharString name="Udieresis">
          45 callsubr
          71 78 117 callgsubr
          hintmask 11010010
          -103 callsubr
          hintmask 00101100
          4 callsubr
          endchar
        </CharString>
        <CharString name="Udieresisacute">
          45 callsubr
          71 78 92 -21 115 -20 117 callgsubr
          hintmask 1100010010000000
          -103 callsubr
          hintmask 0011101100000000
          4 callsubr
          74 210 -102 callgsubr
        </CharString>
        <CharString name="Udieresiscaron">
          45 callsubr
          71 78 82 -21 107 -20 117 callgsubr
          hintmask 1100010010000000
          -103 callsubr
          hintmask 0011101100000000
          4 callsubr
          91 206 -55 callgsubr
        </CharString>
        <CharString name="Udieresisgrave">
          45 callsubr
          71 78 92 -21 115 -20 117 callgsubr
          hintmask 1100010010000000
          -103 callsubr
          hintmask 0011101100000000
          4 callsubr
          -29 123 -84 callgsubr
        </CharString>
        <CharString name="Udotbelow">
          45 callsubr
          hstemhm
          248 94 -19 98 331 80 hintmask 11101000
          -103 callsubr
          hintmask 00010000
          -324 -387 -104 callgsubr
        </CharString>
        <CharString name="Ugrave">
          45 callsubr
          102 -21 115 -20 -92 callsubr
          hintmask 00110000
          -93 528 -84 callgsubr
        </CharString>
        <CharString name="Uhookabove">
          45 callsubr
          253 94 callgsubr
          248 94 152 68 callgsubr
          35 80 hintmask 1100100001000000
          -103 callsubr
          hintmask 0010000000000000
          -28 664 119 callgsubr
          hintmask 0010010000000000
          -77 callsubr
          hintmask 0001010010000000
          -58 callsubr
          hintmask 0000001000000000
          -26 callgsubr
          hintmask 0000000110000000
          5 22 7 34 35 151 callsubr
          27 13 22 18 6 24 rrcurveto
          endchar
        </CharString>
        <CharString name="Uhorn">
          809 -21 66 736 95 callsubr
          hintmask 0100000010000000
          946 698 rmoveto
          15 -1 callsubr
          hintmask 0000000100000000
          -8 -7 -6 -8 -2 hvcurveto
          hintmask 1010111000000000
          -54 callgsubr
          hintmask 0001000000000000
          91 425 rlineto
          hintmask 0000100000000000
          108 callsubr
          hintmask 0001000000000000
          148 callsubr
          hintmask 1010011000000000
          -35 callsubr
          endchar
        </CharString>
        <CharString name="Uhornacute">
          809 -21 66 721 -21 36 -20 99 95 callsubr
          hintmask 0010000000100000
          946 698 rmoveto
          15 -1 callsubr
          hintmask 0000000001000000
          -8 -7 -6 -8 -2 hvcurveto
          hintmask 1000101110000000
          -54 callgsubr
          hintmask 0000010000000000
          91 425 rlineto
          hintmask 0000001000000000
          108 callsubr
          hintmask 0000010000000000
          148 callsubr
          hintmask 1000100110000000
          -35 callsubr
          hintmask 0101000000000000
          -226 148 -102 callgsubr
        </CharString>
        <CharString name="Uhorndotbelow">
          809 -21 66 736 -20 146 callsubr
          -94 98 241 80 107 97 -82 97 -80 80 hintmask 0100000001000000
          946 698 rmoveto
          15 -1 callsubr
          hintmask 0000000010000000
          -8 -7 -6 -8 -2 hvcurveto
          hintmask 1010101100000000
          -54 callgsubr
          hintmask 0001000000000000
          91 425 rlineto
          hintmask 0000100000000000
          108 callsubr
          hintmask 0001000000000000
          148 callsubr
          hintmask 1010001100000000
          -35 callsubr
          hintmask 0000010000000000
          -525 -854 -104 callgsubr
        </CharString>
        <CharString name="Uhorngrave">
          809 -21 66 721 -21 36 -20 99 95 callsubr
          hintmask 0010000000100000
          946 698 rmoveto
          15 -1 callsubr
          hintmask 0000000001000000
          -8 -7 -6 -8 -2 hvcurveto
          hintmask 1000101110000000
          -54 callgsubr
          hintmask 0000010000000000
          91 425 rlineto
          hintmask 0000001000000000
          108 callsubr
          hintmask 0000010000000000
          148 callsubr
          hintmask 1000100110000000
          -35 callsubr
          hintmask 0101000000000000
          -294 61 -84 callgsubr
        </CharString>
        <CharString name="Uhornhookabove">
          809 -21 66 736 -20 156 43 -23 43 146 callsubr
          77 48 -5 33 -28 33 87 80 -73 48 132 97 -82 97 -80 80 hintmask 0100000000000010
          946 698 rmoveto
          15 -1 callsubr
          hintmask 0000000000000100
          -8 -7 -6 -8 -2 hvcurveto
          hintmask 1000101000101000
          -54 callgsubr
          hintmask 0000010000000000
          91 425 rlineto
          hintmask 0000001000000000
          108 callsubr
          hintmask 0000010000000000
          148 callsubr
          hintmask 1000100000101000
          -35 callsubr
          hintmask 0010000000000000
          -229 197 119 callgsubr
          hintmask 0010000100000000
          -77 callsubr
          hintmask 0001000100010000
          -58 callsubr
          hintmask 0000000010000000
          -26 callgsubr
          hintmask 0000000001100000
          5 22 7 34 35 151 callsubr
          hintmask 0000000000010000
          27 13 22 18 6 24 rrcurveto
          endchar
        </CharString>
        <CharString name="Uhorntilde">
          809 -21 66 690 63 -20 63 98 callsubr
          hintmask 0000000001000000
          946 698 rmoveto
          15 -1 callsubr
          hintmask 0000000010000000
          -8 -7 -6 -8 -2 hvcurveto
          hintmask 1001011100000000
          -54 callgsubr
          hintmask 0000100000000000
          91 425 rlineto
          hintmask 0000010000000000
          108 callsubr
          hintmask 0000100000000000
          148 callsubr
          hintmask 1001001100000000
          -35 callsubr
          hintmask 0010000000000000
          -158 125 -45 callsubr
          hintmask 0100000000000000
          -47 callgsubr
          hintmask 0010000000000000
          -2 callsubr
          -10 hvcurveto
          hintmask 0100000000000000
          -18 -3 -66 callsubr
          6 hvcurveto
          hintmask 0010000000000000
          -48 callsubr
          hintmask 0100000000000000
          -31 callgsubr
        </CharString>
        <CharString name="Uhungarumlaut">
          45 callsubr
          102 -21 115 -20 -92 callsubr
          hintmask 00110000
          -161 615 rmoveto
          -33 callsubr
          208 hmoveto
          -33 callsubr
          endchar
        </CharString>
        <CharString name="Umacron">
          45 callsubr
          91 66 92 callgsubr
          hintmask 11011000
          -103 callsubr
          hintmask 00100000
          52 552 rmoveto
          2 -95 callgsubr
          6 hvcurveto
          endchar
        </CharString>
        <CharString name="Uogonek">
          809 -199 69 109 66 639 -20 hstem
          248 94 72 80 258 80 vstem
          745 231 rmoveto
          87 409 rlineto
          21 4 5 23 -40 hhcurveto
          -40 -5 -23 -21 -4 hvcurveto
          -86 -406 rlineto
          -124 -27 -120 -65 -101 hhcurveto
          -96 -94 60 129 28 hvcurveto
          86 406 -96 callgsubr
          -87 -409 -27 -128 85 -99 130 -21 rlinecurve
          -32 -29 -26 -37 -6 -32 -41 callsubr
          -47 -24 172 callgsubr
          10 12 9 12 12 10 159 1 152 108 30 143 rrcurveto
          endchar
        </CharString>
        <CharString name="Upsilon">
          972 21 -21 634 71 hstemhm
          395 94 -41 94 -53 94 -70 94 hintmask 01001000
          1019 551 rmoveto
          82 18 -69 72 -106 hhcurveto
          -152 -91 -158 -91 -36 hvcurveto
          -1 hlineto
          114 1 -32 135 -142 hhcurveto
          -107 -98 -72 -82 -18 hvcurveto
          -35 -7 28 0 12 hhcurveto
          10 28 0 29 8 hvcurveto
          hintmask 01100100
          86 24 91 3 15 hhcurveto
          139 2 -177 -109 -23 hvcurveto
          hintmask 10010000
          -65 -304 -82 callsubr
          hintmask 10001000
          6 hlineto
          hintmask 00010000
          34 12 8 36 7 hvcurveto
          hintmask 01000100
          65 304 rlineto
          109 23 77 177 139 hhcurveto
          44 57 -21 -64 -8 hvcurveto
          -33 -5 24 0 14 hhcurveto
          12 28 210 callgsubr
        </CharString>
        <CharString name="Uring">
          45 callsubr
          30 36 56 36 -92 callsubr
          hintmask 00110000
          -117 527 -54 callsubr
        </CharString>
        <CharString name="Utilde">
          45 callsubr
          71 63 -20 63 -92 callsubr
          hintmask 00010000
          43 592 -94 callsubr
        </CharString>
        <CharString name="V">
          806 14 -21 691 -20 hstem
          915 662 rmoveto
          22 4 -22 0 -9 hhcurveto
          -38 -16 -20 -18 -13 hvcurveto
          -393 -564 -152 563 rlineto
          39 -11 -22 0 -28 hhcurveto
          -19 -20 0 -22 -4 hvcurveto
          -1 -3 0 -2 3 -12 167 -615 rcurveline
          -37 11 23 0 26 hhcurveto
          27 23 0 37 25 hvcurveto
          429 615 9 12 0 2 1 3 rlinecurve
          endchar
        </CharString>
        <CharString name="W">
          177 callsubr
          hstem
          -90 callsubr
          endchar
        </CharString>
        <CharString name="Wacute">
          177 callsubr
          102 194 callgsubr
          -90 callsubr
          hintmask 00110000
          -337 186 -102 callgsubr
        </CharString>
        <CharString name="Wcircumflex">
          177 callsubr
          92 -21 107 -20 hstemhm
          hintmask 11000000
          -90 callsubr
          hintmask 00110000
          -342 75 -85 callgsubr
          endchar
        </CharString>
        <CharString name="Wdieresis">
          177 callsubr
          71 78 hstemhm
          601 89 104 89 hintmask 11000000
          -90 callsubr
          hintmask 00111000
          -574 115 -100 callsubr
          endchar
        </CharString>
        <CharString name="Wgrave">
          177 callsubr
          102 194 callgsubr
          -90 callsubr
          hintmask 00110000
          -440 99 -84 callgsubr
        </CharString>
        <CharString name="X">
          3 callsubr
        </CharString>
        <CharString name="Xi">
          833 0 78 237 78 210 78 hstem
          60 728 vstem
          909 642 196 callsubr
          -626 120 callgsubr
          626 196 callgsubr
          -121 -603 196 callsubr
          -640 120 callgsubr
          640 196 callgsubr
          -20 315 196 callsubr
          -466 120 callgsubr
          466 196 callgsubr
          endchar
        </CharString>
        <CharString name="Y">
          93 callgsubr
          131 callgsubr
          hintmask 01011000
          -64 callsubr
          hintmask 10100000
          25 callgsubr
          hintmask 00011000
          37 callgsubr
          endchar
        </CharString>
        <CharString name="Yacute">
          93 callgsubr
          102 -21 115 -20 131 callgsubr
          hintmask 01000110
          -64 callsubr
          hintmask 10001000
          25 callgsubr
          hintmask 00000110
          37 callgsubr
          hintmask 00110000
          -167 181 -102 callgsubr
        </CharString>
        <CharString name="Ycircumflex">
          93 callgsubr
          92 -21 107 -20 131 callgsubr
          hintmask 01000110
          -64 callsubr
          hintmask 10001000
          25 callgsubr
          hintmask 00000110
          37 callgsubr
          hintmask 00110000
          -172 70 -85 callgsubr
          endchar
        </CharString>
        <CharString name="Ydieresis">
          93 callgsubr
          71 78 149 callgsubr
          -79 89 104 89 104 92 hintmask 01001001
          -64 callsubr
          hintmask 10010000
          25 callgsubr
          hintmask 00001001
          37 callgsubr
          hintmask 00100110
          -404 110 -100 callsubr
          endchar
        </CharString>
        <CharString name="Ydotbelow">
          93 callgsubr
          hstemhm
          321 98 -54 92 -43 92 307 92 hintmask 01001100
          -64 callsubr
          hintmask 10010000
          25 callgsubr
          hintmask 00001100
          37 callgsubr
          hintmask 00100000
          -501 -821 -104 callgsubr
        </CharString>
        <CharString name="Ygrave">
          93 callgsubr
          102 -21 115 -20 131 callgsubr
          hintmask 01000110
          -64 callsubr
          hintmask 10001000
          25 callgsubr
          hintmask 00000110
          37 callgsubr
          hintmask 00110000
          -270 94 -84 callgsubr
        </CharString>
        <CharString name="Yhookabove">
          93 callgsubr
          253 43 -23 43 149 callgsubr
          -14 68 callgsubr
          98 92 hintmask 0100010000100000
          -64 callsubr
          hintmask 1000100000000000
          25 callgsubr
          hintmask 0000010000100000
          37 callgsubr
          hintmask 0010000000000000
          -205 230 7 callgsubr
        </CharString>
        <CharString name="Ytilde">
          93 callgsubr
          71 63 -20 63 131 callgsubr
          hintmask 01000110
          -64 callsubr
          hintmask 10001000
          25 callgsubr
          hintmask 00000110
          37 callgsubr
          hintmask 00010000
          -134 158 -94 callsubr
        </CharString>
        <CharString name="Z">
          123 callsubr
          hstem
          -72 callsubr
          endchar
        </CharString>
        <CharString name="Zacute">
          123 callsubr
          82 194 callgsubr
          -72 callsubr
          hintmask 00110000
          24 813 -102 callgsubr
        </CharString>
        <CharString name="Zcaron">
          123 callsubr
          72 -21 107 -20 hstemhm
          hintmask 11000000
          -72 callsubr
          hintmask 00110000
          41 809 -55 callgsubr
        </CharString>
        <CharString name="Zdotaccent">
          123 callsubr
          66 87 hstemhm
          502 98 hintmask 11000000
          -72 callsubr
          hintmask 00110000
          -108 761 -63 callgsubr
          endchar
        </CharString>
        <CharString name="Zdotbelow">
          123 callsubr
          hstemhm
          300 98 hintmask 11000000
          -72 callsubr
          hintmask 00100000
          -310 -189 -104 callgsubr
        </CharString>
        <CharString name="Zeta">
          123 callsubr
          hstem
          -72 callsubr
          endchar
        </CharString>
        <CharString name="a">
          -29 callsubr
          hstem
          -107 callgsubr
          endchar
        </CharString>
        <CharString name="aacute">
          -29 callsubr
          74 -21 115 -92 callgsubr
          135 418 rmoveto
          -97 callgsubr
        </CharString>
        <CharString name="abreve">
          -29 callsubr
          66 69 20 -99 callgsubr
          hintmask 00001000
          163 387 12 callgsubr
          endchar
        </CharString>
        <CharString name="abreveacute">
          -29 callsubr
          67 69 0 69 101 -99 callgsubr
          hintmask 00010100
          163 388 -69 callsubr
          -41 168 rmoveto
          -71 callsubr
          rlineto
          hintmask 00001000
          -11 -5 -7 -3 -1 -9 rrcurveto
          -14 -3 33 callgsubr
        </CharString>
        <CharString name="abrevedotbelow">
          -29 callsubr
          66 69 20 -20 hstemhm
          214 98 hintmask 11101000
          -107 callgsubr
          163 387 12 callgsubr
          hintmask 00000100
          -329 -815 -104 callgsubr
        </CharString>
        <CharString name="abrevegrave">
          -29 callsubr
          67 69 0 69 -103 callgsubr
          hintmask 00010000
          163 388 -69 callsubr
          -59 205 callsubr
          -171 84 -12 7 rlineto
          0 -2 5 1 133 callsubr
          -1 -9 rrcurveto
          endchar
        </CharString>
        <CharString name="abrevehookabove">
          -29 callsubr
          67 69 222 94 callgsubr
          381 48 -5 33 5 33 hintmask 1110000010000000
          -107 callgsubr
          hintmask 0001100100000000
          163 388 -69 callsubr
          -38 212 rmoveto
          6 23 callgsubr
          hintmask 0000010000000000
          16 -22 -31 4 -36 hhcurveto
          -43 -44 -19 -33 -34 hvcurveto
          hintmask 0000101000000000
          80 callgsubr
          hintmask 0000011010000000
          113 callgsubr
          hintmask 0000000110000000
          89 callsubr
        </CharString>
        <CharString name="abrevetilde">
          -29 callsubr
          67 69 75 63 -20 63 -103 callgsubr
          hintmask 00010100
          163 388 -69 callsubr
          40 153 callsubr
          hintmask 00001000
          -47 callgsubr
          hintmask 00000100
          -2 callsubr
          -9 hvcurveto
          hintmask 00001000
          -18 -4 56 callsubr
          50 23 -4 callsubr
        </CharString>
        <CharString name="acaron">
          -29 callsubr
          63 -21 137 -92 callgsubr
          157 443 -46 callgsubr
        </CharString>
        <CharString name="acircumflex">
          -29 callsubr
          63 -21 137 -92 callgsubr
          128 306 -62 callsubr
          endchar
        </CharString>
        <CharString name="acircumflexacute">
          -29 callsubr
          63 -21 257 -92 callgsubr
          129 306 -53 callgsubr
          63 243 rmoveto
          14 2 118 callsubr
          -187 -76 callsubr
          15 -39 callgsubr
          2 5 vhcurveto
          endchar
        </CharString>
        <CharString name="acircumflexdotbelow">
          -29 callsubr
          63 188 callgsubr
          hstemhm
          214 98 hintmask 11111000
          -107 callgsubr
          128 306 -62 callsubr
          hintmask 00000100
          -223 -734 -104 callgsubr
        </CharString>
        <CharString name="acircumflexgrave">
          -29 callsubr
          63 -21 107 -92 callgsubr
          129 306 -27 callgsubr
        </CharString>
        <CharString name="acircumflexhookabove">
          -29 callsubr
          63 -21 309 94 callgsubr
          502 101 callsubr
          hintmask 1110000000000000
          -107 callgsubr
          hintmask 0001100000000000
          129 306 -5 callsubr
        </CharString>
        <CharString name="acircumflextilde">
          -29 callsubr
          63 -21 162 63 -20 63 -103 callgsubr
          hintmask 00010100
          129 306 -53 callgsubr
          144 250 -21 callsubr
        </CharString>
        <CharString name="acute">
          625 610 57 callsubr
          hstem
          630 690 rmoveto
          -97 callgsubr
        </CharString>
        <CharString name="acute.cap">
          625 603 57 callsubr
          hstem
          628 683 -102 callgsubr
        </CharString>
        <CharString name="acute.dup">
          625 610 57 callsubr
          hstem
          630 690 rmoveto
          -97 callgsubr
        </CharString>
        <CharString name="acute.ts1">
          625 611 -21 116 -20 hstem
          667 690 rmoveto
          13 2 -12 2 -10 hhcurveto
          -12 hlineto
          -6 -7 1 -7 hhcurveto
          -5 -5 -1 -1 -5 hvcurveto
          -7 -1 -6 -4 -7 -3 -33 -15 rcurveline
          -97 -43 -36 -16 -9 -4 -10 -3 -3 -11 rlinecurve
          -8 -1 4 -6 10 hhcurveto
          33 hlineto
          15 2 23 12 18 8 49 20 120 41 4 17 rrcurveto
          endchar
        </CharString>
        <CharString name="adblgrave">
          -29 callsubr
          74 -21 115 -92 callgsubr
          116 331 -88 callgsubr
        </CharString>
        <CharString name="adieresis">
          -29 callsubr
          72 78 hstemhm
          308 89 74 89 -107 callsubr
          hintmask 00011100
          -81 376 -71 callgsubr
        </CharString>
        <CharString name="adotbelow">
          -29 callsubr
          hstemhm
          214 98 -107 callsubr
          hintmask 00010000
          -166 -428 -104 callgsubr
        </CharString>
        <CharString name="ae">
          -44 callgsubr
        </CharString>
        <CharString name="ae.dup">
          -44 callgsubr
        </CharString>
        <CharString name="aeacute">
          903 -10 63 182 49 -38 49 178 63 -49 49 148 callgsubr
          197 76 hintmask 00010000
          927 287 rmoveto
          157 33 -65 92 -120 hhcurveto
          -67 -72 -27 -69 -72 hvcurveto
          36 -14 -38 60 -105 hhcurveto
          -43 -62 -5 -30 -77 hvcurveto
          hintmask 00001001
          -2 -2 -20 -8 -6 -4 rrcurveto
          hintmask 11010000
          -8 -4 -2 -10 0 vvcurveto
          -11 -3 -9 -42 18 hhcurveto
          3 2 0 9 16 hvcurveto
          37 67 54 11 57 hhcurveto
          78 31 -55 -71 -15 hvcurveto
          -15 -67 rlineto
          -144 -208 -35 -120 -26 hvcurveto
          -60 -12 28 -79 104 hhcurveto
          23 177 0 101 76 hvcurveto
          -48 28 62 -53 97 hhcurveto
          39 41 9 18 39 hvcurveto
          3 1 73 34 5 24 rrcurveto
          20 4 7 31 -17 hhcurveto
          -6 -3 -3 -10 -13 hvcurveto
          -56 -67 -65 -5 -26 hhcurveto
          hintmask 10110001
          -98 -64 84 109 16 hvcurveto
          330 hlineto
          21 23 0 41 9 hvcurveto
          -64 8 rmoveto
          -307 hlineto
          109 37 91 69 78 hhcurveto
          131 -24 -146 -32 -6 hvcurveto
          -413 -135 rmoveto
          -107 -23 -145 0 -9 hhcurveto
          -64 -49 29 48 11 hvcurveto
          12 56 92 24 25 6 rrcurveto
          hintmask 01000000
          59 16 55 1 48 2 -3 -25 -5 -33 -4 -17 rrcurveto
          hintmask 00000110
          319 530 rmoveto
          -97 callgsubr
        </CharString>
        <CharString name="agrave">
          -29 callsubr
          74 -21 115 -92 callgsubr
          31 331 -73 callgsubr
        </CharString>
        <CharString name="ahookabove">
          -29 callsubr
          233 94 callgsubr
          353 101 callsubr
          hintmask 11100100
          -107 callgsubr
          hintmask 00010000
          98 475 11 callsubr
        </CharString>
        <CharString name="amacron">
          -29 callsubr
          78 66 -103 callgsubr
          hintmask 00010000
          179 370 rmoveto
          3 -95 callgsubr
          5 hvcurveto
          endchar
        </CharString>
        <CharString name="ampersand">
          938 -21 66 607 63 hstemhm
          165 73 86 73 -73 74 133 74 -35 73 hintmask 10000100
          874 26 rmoveto
          3 14 rlineto
          15 3 2 13 -14 hhcurveto
          -4 -5 -2 -1 -3 hvcurveto
          -16 -48 -42 -4 -26 hhcurveto
          -70 -48 29 12 -17 hvcurveto
          217 138 107 228 2 8 2 11 -8 2 -11 3 rrcurveto
          6 -22 -4 2 -3 hhcurveto
          -7 -7 -5 -6 -2 hvcurveto
          -36 -66 -88 -165 -188 -117 -39 36 -73 87 -32 96 rrcurveto
          hintmask 11010010
          105 66 108 69 17 80 rrcurveto
          77 16 -40 79 -91 hhcurveto
          -79 -103 -58 -111 -24 hvcurveto
          -12 -58 -1 -63 15 -67 -145 -87 rcurveline
          -3 -2 -76 -45 -17 -77 rrcurveto
          -97 -20 81 -71 132 hhcurveto
          hintmask 10010100
          64 89 13 51 102 hvcurveto
          -56 78 69 -8 48 hhcurveto
          15 37 0 13 55 hvcurveto
          34 8 1 1 6 25 rrcurveto
          -304 533 rmoveto
          -11 -49 -76 -55 -86 -53 rrcurveto
          hintmask 11101010
          -15 76 14 69 2 7 rrcurveto
          64 13 60 34 44 hhcurveto
          51 12 -54 -39 -8 hvcurveto
          -91 -473 rmoveto
          -27 -60 -71 -14 -56 hhcurveto
          -90 -50 50 58 13 hvcurveto
          10 48 43 27 20 12 103 61 rcurveline
          20 -57 40 -78 78 -80 rrcurveto
          endchar
        </CharString>
        <CharString name="anglearc">
          972 -117 -21 832 -20 hstemhm
          741 70 -56 70 hintmask 00010000
          909 35 rmoveto
          4 16 -7 13 -14 4 -137 47 rcurveline
          hintmask 00100000
          26 53 18 55 12 55 rrcurveto
          hintmask 11010000
          12 55 4 55 -2 53 157 47 rcurveline
          15 4 12 13 4 16 rrcurveto
          19 4 -13 16 -19 hhcurveto
          -4 -3 -1 -1 -4 hvcurveto
          -156 -46 -11 62 -21 58 -30 53 rlinecurve
          8 -5 -8 5 -11 hhcurveto
          -20 -19 -16 -19 -4 hvcurveto
          -2 -8 2 -8 2 -6 28 -46 18 -51 9 -54 -587 -175 rcurveline
          -15 -4 -13 -13 -3 -16 -3 -16 7 -13 13 -4 513 -175 rcurveline
          -33 -54 -39 -51 -47 -46 -5 -6 -5 -8 -2 -8 rrcurveto
          -19 -4 12 -16 20 hhcurveto
          11 11 5 8 7 hvcurveto
          54 53 45 58 37 62 136 -46 rcurveline
          -1 4 3 -1 4 hhcurveto
          19 19 16 19 4 hvcurveto
          -168 243 rmoveto
          -10 -48 -16 -48 -22 -46 -415 142 rcurveline
          475 142 rlineto
          hintmask 00100000
          2 -46 -4 -48 -10 -48 rrcurveto
          endchar
        </CharString>
        <CharString name="angleleft">
          486 -186 -21 971 -20 21 -20 hstemhm
          hintmask 00100000
          570 726 rmoveto
          1 3 rlineto
          20 4 -12 16 -19 hhcurveto
          hintmask 11000000
          -7 -1 -23 -4 -12 -23 -12 -19 rlinecurve
          -273 -404 -8 -11 -9 -12 -3 -13 rlinecurve
          -4 -20 14 -34 7 -24 89 -360 rcurveline
          4 -20 3 -25 25 -2 rrcurveto
          23 16 16 19 4 hvcurveto
          5 22 -13 32 -6 23 -74 299 rcurveline
          -4 17 -5 18 -4 17 -1 7 -5 8 1 8 2 9 12 13 6 9 45 67 rcurveline
          212 314 7 11 10 12 4 12 rlinecurve
          endchar
        </CharString>
        <CharString name="angleright">
          486 -186 -21 972 -20 hstem
          407 280 rmoveto
          2 12 -5 11 -2 11 -101 405 rcurveline
          -5 19 -2 24 -23 3 rrcurveto
          -3 -4 0 -1 -4 hvcurveto
          -18 -3 -14 -15 -4 -17 -4 -19 12 -24 5 -20 90 -362 rcurveline
          1 -7 5 -10 -2 -8 -1 -8 -11 -13 -7 -9 -44 -65 rcurveline
          -158 -234 -48 -73 -11 -14 -15 -19 -4 -16 rlinecurve
          -19 -4 13 -16 20 hhcurveto
          25 1 13 23 13 19 275 408 rcurveline
          7 11 10 12 3 13 rrcurveto
          endchar
        </CharString>
        <CharString name="aogonek">
          189 callsubr
          hstem
          -23 callgsubr
          endchar
        </CharString>
        <CharString name="aogonekacute">
          189 callsubr
          144 callsubr
          -23 callgsubr
          hintmask 00011000
          135 418 rmoveto
          -97 callgsubr
        </CharString>
        <CharString name="aring">
          -29 callsubr
          42 36 56 36 -103 callgsubr
          hintmask 00011000
          16 370 -54 callsubr
        </CharString>
        <CharString name="aringacute">
          -29 callsubr
          42 36 56 36 150 -99 callgsubr
          hintmask 00011100
          16 370 -82 callgsubr
          31 201 58 callsubr
          -2 33 callgsubr
        </CharString>
        <CharString name="asciicircum">
          556 583 -21 123 59 hstem
          119 566 vstem
          685 584 rmoveto
          -249 160 -317 -160 6 -22 298 123 245 -123 rlineto
          endchar
        </CharString>
        <CharString name="asciitilde">
          556 221 203 callsubr
          623 318 rmoveto
          -11 17 rlineto
          -41 -58 -59 39 callsubr
        </CharString>
        <CharString name="asciitilde.low">
          556 0 203 callsubr
          576 97 rmoveto
          -11 17 rlineto
          -41 -57 -60 39 callsubr
        </CharString>
        <CharString name="asterisk">
          625 264 152 callgsubr
          hstemhm
          339 64 -16 64 hintmask 01010000
          625 390 rmoveto
          4 19 -11 6 -10 5 -157 83 rcurveline
          193 84 12 5 13 6 4 19 rlinecurve
          16 4 -10 17 -19 hhcurveto
          -9 -1 -1 -8 -14 hvcurveto
          -183 -109 55 190 rlineto
          16 5 3 26 -30 hhcurveto
          -26 -11 -19 -22 -2 hvcurveto
          -26 -191 -136 109 rlineto
          8 -9 -4 1 -8 hhcurveto
          -19 -16 -17 -16 -4 hvcurveto
          -4 -19 11 -6 10 -5 157 -83 rcurveline
          -193 -84 -12 -5 -13 -6 -4 -19 rlinecurve
          -13 -3 3 -20 32 hhcurveto
          200 118 -56 -195 rlineto
          hintmask 10100000
          -2 -5 rlineto
          -15 -7 13 -17 19 hhcurveto
          29 8 24 17 2 hvcurveto
          26 191 136 -109 rlineto
          -8 9 4 -1 8 hhcurveto
          19 16 17 16 4 hvcurveto
          endchar
        </CharString>
        <CharString name="asterisk.math">
          625 39 152 callgsubr
          hstem
          339 42 -42 64 -42 42 cntrmask 00111000
          577 166 rmoveto
          5 23 -23 6 -17 10 -44 25 -49 31 -46 17 rrcurveto
          1 vlineto
          31 10 35 18 32 14 72 31 rcurveline
          22 10 25 6 5 23 rrcurveto
          17 4 -10 17 -19 hhcurveto
          -18 -19 -16 -9 -15 hvcurveto
          -155 -93 8 21 5 21 6 21 rlinecurve
          12 45 18 47 10 45 rrcurveto
          19 4 -11 13 -18 hhcurveto
          -18 -17 -13 -19 -4 hvcurveto
          -10 -45 -2 -47 -6 -45 -4 -21 -3 -21 -2 -21 -115 93 rcurveline
          9 -11 -13 16 -18 hhcurveto
          -19 -15 -17 -17 -4 hvcurveto
          -5 -24 23 -5 17 -10 44 -25 48 -31 46 -17 rrcurveto
          -1 vlineto
          -31 -10 -35 -18 -32 -14 -71 -31 rcurveline
          -22 -10 -25 -5 -5 -24 rrcurveto
          -17 -3 8 -17 19 hhcurveto
          18 19 16 9 15 hvcurveto
          155 93 -7 -21 -6 -21 -5 -21 rlinecurve
          -13 -45 -18 -47 -9 -45 rrcurveto
          -19 -4 11 -13 18 hhcurveto
          18 17 13 19 4 hvcurveto
          9 45 2 47 7 45 3 21 4 21 1 21 115 -93 rcurveline
          -9 11 13 -16 18 hhcurveto
          19 17 17 17 3 hvcurveto
          endchar
        </CharString>
        <CharString name="at">
          833 -10 63 67 63 328 63 67 63 hstem
          143 76 164 76 40 76 vstem
          781 86 rmoveto
          -67 callsubr
          -12 hlineto
          -16 -2 0 -5 -13 hvcurveto
          -37 -94 -81 -5 -39 hhcurveto
          -202 -111 141 153 33 hvcurveto
          162 34 181 132 185 hhcurveto
          49 82 -12 -88 20 hvcurveto
          2 -3 -42 31 -67 hhcurveto
          -126 -123 -102 -125 -26 hvcurveto
          -126 -27 81 -101 125 hhcurveto
          100 142 73 165 35 hvcurveto
          153 33 6 193 -244 hhcurveto
          -232 -218 -163 -194 -41 hvcurveto
          -192 -41 146 -165 235 hhcurveto
          82 101 20 66 110 hvcurveto
          185 callsubr
          -20 261 rmoveto
          -92 -20 -84 -72 -82 hhcurveto
          -82 -54 73 91 20 hvcurveto
          92 19 85 72 82 hhcurveto
          82 53 -73 -91 -19 hvcurveto
          endchar
        </CharString>
        <CharString name="atilde">
          -29 callsubr
          58 63 -20 63 -103 callgsubr
          hintmask 00001000
          171 410 -22 callgsubr
        </CharString>
        <CharString name="b">
          170 callgsubr
          7 80 -38 78 229 80 hintmask 01110100
          134 callsubr
          43 205 -56 callgsubr
          -129 -606 -79 callgsubr
          hintmask 11001010
          89 callgsubr
          204 callsubr
          125 callsubr
        </CharString>
        <CharString name="backslash">
          531 750 -20 hstem
          423 -227 rmoveto
          0 1 6 -2 12 vhcurveto
          -161 935 rlineto
          12 -2 -2 12 -16 hhcurveto
          -13 -12 -10 -13 -2 hvcurveto
          0 -2 -6 3 -12 vhcurveto
          160 -935 rlineto
          -12 2 2 -12 16 hhcurveto
          13 12 10 13 3 hvcurveto
          endchar
        </CharString>
        <CharString name="baht">
          819 -66 66 0 66 258 63 231 66 0 66 hstemhm
          359 66 0 89 0 66 cntrmask 00000111
          hintmask 10101111
          789 188 rmoveto
          18 84 -91 67 -129 19 106 21 113 52 16 79 20 94 -115 72 -147 7 10 46 rcurveline
          12 3 -9 9 -11 hhcurveto
          -25 hlineto
          -11 -10 -9 -12 -3 hvcurveto
          -10 -45 rlineto
          -211 184 callgsubr
          -34 -7 6 -10 36 hhcurveto
          211 hlineto
          -10 -45 rlineto
          169 callsubr
          10 45 rlineto
          8 hlineto
          162 162 83 105 22 hvcurveto
          -54 321 rmoveto
          -12 -58 -96 -46 -109 -14 48 224 rcurveline
          91 -11 91 -36 -13 -59 rrcurveto
          -284 -122 rmoveto
          -164 hlineto
          hintmask 01110111
          49 231 rlineto
          164 hlineto
          200 -429 rmoveto
          -15 -73 -127 -43 -109 -6 54 255 rcurveline
          111 -9 102 -51 -16 -73 rrcurveto
          -317 -123 rmoveto
          -164 hlineto
          55 258 rlineto
          164 hlineto
          endchar
        </CharString>
        <CharString name="bar">
          295 750 -20 hstem
          79 46 151 46 vstem
          78 callgsubr
          endchar
        </CharString>
        <CharString name="bigcircle">
          684 155 callsubr
          hstem
          73 181 callsubr
          vstem
          -65 callgsubr
          endchar
        </CharString>
        <CharString name="blanksymbol">
          625 -10 63 313 63 39 145 callgsubr
          -51 78 -20 80 -38 78 0 80 149 80 hintmask 0011000010000000
          134 callsubr
          16 79 112 85 10 7 4 13 -6 9 rlinecurve
          -13 18 -6 9 -13 0 -9 -7 rlinecurve
          -60 -45 8 37 rlineto
          20 4 6 24 -39 hhcurveto
          hintmask 0100100100000000
          -39 -6 107 callgsubr
          -23 -108 -111 -84 -10 -8 -3 -13 5 -8 rlinecurve
          13 -19 rlineto
          hintmask 0000010000000000
          6 -8 13 -1 10 8 rrcurveto
          hintmask 1000101001000000
          58 44 -87 -409 -79 callgsubr
          89 callgsubr
          hintmask 0100010000000000
          204 callsubr
          hintmask 0010001001000000
          125 callsubr
        </CharString>
        <CharString name="braceleft">
          168 callgsubr
          405 -236 rmoveto
          13 3 -10 1 -5 hhcurveto
          -82 5 -31 37 -4 41 -1 9 1 2 7 36 32 150 rcurveline
          21 95 2 14 -18 30 -8 11 -15 23 -56 19 123 36 13 62 10 48 32 150 rcurveline
          20 93 3 16 33 26 34 27 39 12 40 2 13 1 8 0 2 13 rrcurveto
          14 3 -10 0 -13 hhcurveto
          -108 -105 -49 -77 -17 hvcurveto
          -50 -234 -6 -29 -7 -32 -43 -30 rlinecurve
          -25 -18 -35 -14 -44 -3 -12 -1 -8 0 -3 -13 rrcurveto
          -13 -3 10 -1 5 hhcurveto
          98 -6 17 -54 2 -25 1 -12 -2 -6 -6 -31 -44 -204 rcurveline
          -6 -30 -9 -44 47 -36 rrcurveto
          -34 46 73 -4 22 hhcurveto
          13 10 59 callgsubr
        </CharString>
        <CharString name="braceright">
          168 callgsubr
          508 250 rmoveto
          13 3 -10 1 -5 hhcurveto
          -111 6 -9 71 5 27 50 234 rcurveline
          7 31 9 43 -49 36 rrcurveto
          31 -40 -68 7 -32 hhcurveto
          -13 -11 88 callsubr
          -13 -2 9 -1 5 hhcurveto
          69 -4 45 -27 4 -52 1 -9 -1 -2 -7 -36 -32 -150 rcurveline
          -7 -32 -11 -51 -14 vvcurveto
          3 -49 40 -30 49 -16 -122 -34 -14 -67 -10 -45 -32 -150 rcurveline
          -7 -32 -10 -51 -6 -11 -28 -55 -65 -24 -54 -3 -12 -1 -8 0 -3 -13 155 callgsubr
          13 hhcurveto
          106 107 48 78 18 hvcurveto
          49 234 7 29 6 32 44 30 rlinecurve
          42 30 44 4 16 1 12 1 8 0 3 13 rrcurveto
          endchar
        </CharString>
        <CharString name="bracketleft">
          352 -208 63 846 63 hstem
          286 -177 rmoveto
          43 callgsubr
          -69 hlineto
          180 846 rlineto
          69 37 callsubr
          32 6 -31 0 -13 hhcurveto
          -102 140 callsubr
          -188 -884 -82 callsubr
          102 170 callsubr
        </CharString>
        <CharString name="bracketright">
          352 -208 63 846 63 hstem
          182 -164 rmoveto
          188 884 64 callgsubr
          -102 hlineto
          -12 -32 0 -31 -6 100 callgsubr
          69 hlineto
          -180 -846 rlineto
          -69 hlineto
          -12 -32 0 -31 -6 100 callgsubr
          102 hlineto
          34 11 8 36 8 hvcurveto
          endchar
        </CharString>
        <CharString name="breve">
          625 602 147 callsubr
          658 659 rmoveto
          18 4 61 callsubr
          -5 -5 4 -9 hhcurveto
          -19 -16 -14 -18 -4 hvcurveto
          hintmask 10000000
          11 callgsubr
        </CharString>
        <CharString name="breve.cap">
          625 582 147 callsubr
          654 639 -13 callsubr
          hintmask 10000000
          -61 callsubr
          -11 hvcurveto
          hintmask 01000000
          -64 callgsubr
          hintmask 10000000
          11 callgsubr
        </CharString>
        <CharString name="breve.ts1">
          764 617 68 20 -20 hstemhm
          hintmask 01000000
          799 674 rmoveto
          12 3 -5 19 -23 hhcurveto
          -14 -12 -11 -3 -17 hvcurveto
          hintmask 10000000
          -40 -5 -40 0 -39 -1 rrcurveto
          -109 hlineto
          -42 -44 0 2 -42 hvcurveto
          -26 3 -25 -3 -21 14 rrcurveto
          hintmask 01000000
          2 -4 -5 2 -5 hhcurveto
          0 -4 0 -2 -1 vhcurveto
          -17 -2 -12 -14 -3 -15 rrcurveto
          hintmask 10000000
          -13 -63 128 9 50 -2 125 -1 rcurveline
          75 hlineto
          71 101 3 55 11 hvcurveto
          endchar
        </CharString>
        <CharString name="brokenbar">
          295 750 -20 hstemhm
          79 46 32 46 -6 46 33 46 hintmask 10011000
          243 343 rmoveto
          79 371 96 callsubr
          -79 -371 rlineto
          -17 -4 5 -16 15 hhcurveto
          15 11 16 17 4 hvcurveto
          -118 -557 rmoveto
          hintmask 01100000
          78 371 rlineto
          17 4 -5 16 -15 hhcurveto
          -15 -11 -16 -17 -4 hvcurveto
          -78 -371 rlineto
          -14 -3 -5 -22 23 hhcurveto
          23 5 22 14 3 hvcurveto
          endchar
        </CharString>
        <CharString name="bullet">
          972 149 326 hstemhm
          375 326 -297 326 hintmask 10100000
          114 callsubr
          hintmask 11000000
          136 callsubr
          endchar
        </CharString>
        <CharString name="c">
          111 callgsubr
          hstem
          109 80 vstem
          -84 callsubr
          endchar
        </CharString>
        <CharString name="cacute">
          111 callgsubr
          148 callgsubr
          109 80 hintmask 11001000
          -84 callsubr
          hintmask 00110000
          88 616 rmoveto
          -97 callgsubr
        </CharString>
        <CharString name="caron">
          625 142 callgsubr
          652 715 -46 callgsubr
        </CharString>
        <CharString name="caron.cap">
          180 callsubr
          107 -20 hstem
          645 679 -55 callgsubr
        </CharString>
        <CharString name="caron.ts1">
          764 587 -21 160 -20 hstem
          749 712 rmoveto
          2 7 -4 5 -8 2 rrcurveto
          -33 hlineto
          -11 -6 -6 -5 -9 hvcurveto
          -31 -18 -39 -24 -40 -26 -41 -21 rlinecurve
          -3 -5 -7 -5 -5 hhcurveto
          -8 -16 17 9 -11 hvcurveto
          27 -34 -56 55 -28 hhcurveto
          -21 197 callgsubr
          -6 -2 -4 -5 -1 -5 -4 -16 27 -14 13 -12 81 -69 rcurveline
          -13 15 17 -22 20 hhcurveto
          8 hlineto
          6 5 -1 6 hhcurveto
          24 26 24 12 22 hvcurveto
          53 34 109 59 3 17 rrcurveto
          endchar
        </CharString>
        <CharString name="ccaron">
          111 callgsubr
          63 -21 137 166 callgsubr
          hintmask 11001000
          -84 callsubr
          hintmask 00110000
          110 641 -46 callgsubr
        </CharString>
        <CharString name="ccedilla">
          111 callgsubr
          hstem
          109 80 vstem
          -84 callsubr
          -181 -132 -35 callgsubr
        </CharString>
        <CharString name="ccircumflex">
          111 callgsubr
          63 -21 137 166 callgsubr
          hintmask 11001000
          -84 callsubr
          hintmask 00110000
          81 504 -62 callsubr
          endchar
        </CharString>
        <CharString name="cdotaccent">
          111 callgsubr
          67 87 171 callsubr
          206 98 hintmask 11010000
          -84 callsubr
          hintmask 00101000
          -43 573 -104 callgsubr
        </CharString>
        <CharString name="cedilla">
          43 callsubr
        </CharString>
        <CharString name="cedilla.dup">
          43 callsubr
        </CharString>
        <CharString name="cent">
          556 -9 65 415 65 171 callsubr
          74 66 64 66 -15 66 hintmask 11000100
          536 74 rmoveto
          13 2 9 41 -18 hhcurveto
          -6 -2 -3 -7 -11 hvcurveto
          -56 -41 -54 -17 -49 -4 88 415 rcurveline
          57 -2 29 -13 38 -25 rrcurveto
          -10 12 154 callsubr
          5 10 11 4 hvcurveto
          2 6 10 22 1 5 2 9 -1 1 -21 13 -47 25 -35 11 -59 2 rrcurveto
          hintmask 10111000
          6 30 161 callgsubr
          -11 -11 -9 -12 -3 hvcurveto
          -7 -34 -144 -23 -106 -125 -27 -123 rlinecurve
          -28 -133 67 -114 124 -21 -9 -38 rcurveline
          169 callsubr
          8 36 rlineto
          hintmask 00100100
          24 1 39 6 44 17 27 11 61 29 4 19 rrcurveto
          -250 -14 rmoveto
          -79 20 -39 79 21 102 20 91 63 91 100 23 rrcurveto
          endchar
        </CharString>
        <CharString name="cent.oldstyle">
          111 callgsubr
          171 callsubr
          229 66 -40 66 hintmask 10001000
          536 74 rmoveto
          13 2 9 41 -18 hhcurveto
          -6 -2 -3 -7 -11 hvcurveto
          -48 -65 -63 -15 -55 hhcurveto
          -19 -19 3 6 -15 hvcurveto
          hintmask 11110000
          210 402 30 -6 22 -11 27 -18 rlinecurve
          -10 12 154 callsubr
          5 10 11 4 hvcurveto
          2 6 10 22 1 5 2 9 -1 1 -21 13 -27 15 -24 10 -26 5 21 39 rcurveline
          10 5 -5 10 -11 hhcurveto
          -28 hlineto
          -12 -13 -8 -12 -5 hvcurveto
          -17 -31 rlineto
          -18 hlineto
          -168 -128 -139 -136 -29 hvcurveto
          -20 -98 30 -87 67 -48 -39 -74 rcurveline
          -10 -5 5 -10 10 hhcurveto
          28 hlineto
          12 13 8 12 6 hvcurveto
          25 47 rlineto
          -7 22 24 -4 26 hhcurveto
          hintmask 00101000
          15 52 0 25 64 hvcurveto
          27 11 61 29 4 19 rrcurveto
          -118 397 rmoveto
          -196 -374 -35 37 -12 58 14 69 rlinecurve
          hintmask 01010000
          23 104 79 105 127 1 rrcurveto
          endchar
        </CharString>
        <CharString name="centigrade">
          1077 408 70 0 67 0 70 hstemhm
          117 70 43 94 0 70 49 94 cntrmask 11100000
          hintmask 11111010
          1024 53 rmoveto
          1 5 4 18 5 29 -15 3 rlinecurve
          -17 -39 -26 -10 -27 hvcurveto
          -46 -18 -46 -7 -46 -1 rrcurveto
          -15 hlineto
          -82 -73 27 61 -49 hvcurveto
          -43 55 -16 76 17 78 2 10 rcurveline
          162 39 163 125 163 hhcurveto
          70 56 -18 -32 57 hvcurveto
          -2 4 5 -2 4 hhcurveto
          12 4 13 9 4 hvcurveto
          15 39 rlineto
          1 3 1 3 3 vvcurveto
          33 7 -151 18 -82 hhcurveto
          -7 -6 0 -1 -7 hvcurveto
          -140 -16 -137 -52 -104 -145 -33 -47 -23 -52 -11 -52 rrcurveto
          -212 -45 159 -150 209 hhcurveto
          82 81 13 43 83 hvcurveto
          8 4 3 6 1 7 rrcurveto
          -630 494 rmoveto
          75 16 -48 63 -80 hhcurveto
          -9 hlineto
          -74 -10 -66 -56 -16 -73 rrcurveto
          -75 -16 49 -63 80 hhcurveto
          9 hlineto
          hintmask 11110100
          73 10 67 56 15 73 rrcurveto
          -70 -2 rmoveto
          -36 -8 -39 -31 -35 hhcurveto
          -3 hlineto
          -33 1 -22 28 3 32 rrcurveto
          9 vlineto
          36 8 40 31 35 hhcurveto
          3 hlineto
          36 -1 22 -34 -7 -35 rrcurveto
          endchar
        </CharString>
        <CharString name="circumflex">
          625 142 callgsubr
          623 578 -62 callsubr
          endchar
        </CharString>
        <CharString name="circumflex.cap">
          180 callsubr
          107 -20 hstem
          623 572 -85 callgsubr
          endchar
        </CharString>
        <CharString name="circumflex.dup">
          625 142 callgsubr
          623 578 -62 callsubr
          endchar
        </CharString>
        <CharString name="colon">
          347 0 97 327 164 callsubr
          -16 97 -88 97 hintmask 01000100
          124 callsubr
          hintmask 01001000
          -9 -40 rlineto
          -26 -5 0 -2 27 hhcurveto
          41 hlineto
          26 3 2 26 5 hvcurveto
          -90 -424 rmoveto
          hintmask 10010000
          31 callsubr
          hintmask 10100000
          -9 35 callsubr
          endchar
        </CharString>
        <CharString name="colonmonetary">
          190 callsubr
          130 66 113 66 119 callsubr
          -7 -8 0 1 -7 hvcurveto
          126 593 rlineto
          17 hlineto
          71 callgsubr
          -20 hlineto
          12 57 161 callgsubr
          -12 -10 -9 -12 -3 hvcurveto
          -14 -65 -201 -36 -154 -156 -34 -163 rlinecurve
          -34 -160 84 -158 188 -37 -14 -65 rcurveline
          -12 -2 7 -9 12 hhcurveto
          25 hlineto
          11 11 9 12 2 hvcurveto
          13 57 rlineto
          22 hlineto
          169 callgsubr
          -329 6 rmoveto
          -132 38 -53 126 26 122 28 131 114 119 138 36 rrcurveto
          endchar
        </CharString>
        <CharString name="comma">
          347 -118 -21 139 164 callsubr
          hintmask 01010000
          126 callsubr
          hintmask 11100000
          85 callsubr
        </CharString>
        <CharString name="copyleft">
          684 155 callsubr
          hstem
          73 181 callsubr
          vstem
          -65 callgsubr
          -75 hmoveto
          105 22 -68 99 -136 -31 -23 -3 -5 hhcurveto
          -32 -5 -36 -10 -3 -2 rrcurveto
          0 -4 -2 -1 -5 vhcurveto
          -3 -1 -17 -1 -4 vhcurveto
          -13 1 -3 7 vhcurveto
          0 2 0 8 4 vhcurveto
          20 42 34 6 37 hhcurveto
          99 54 -79 -88 -18 hvcurveto
          -82 -18 -82 -85 -109 hhcurveto
          -50 -23 8 19 -31 hvcurveto
          -11 8 -3 0 0 vvcurveto
          -10 -5 -23 -9 -2 hvcurveto
          -1 -3 0 -3 -1 vvcurveto
          -29 50 30 -4 48 hhcurveto
          140 108 101 103 22 hvcurveto
          endchar
        </CharString>
        <CharString name="copyright">
          684 155 callsubr
          hstemhm
          73 66 333 66 -65 66 0 66 86 66 hintmask 11101010
          -65 callgsubr
          -150 -164 rmoveto
          hintmask 00010100
          9 2 5 23 -10 hhcurveto
          -2 -1 0 -8 -15 hvcurveto
          -19 -39 -27 -8 -50 hhcurveto
          -109 -46 85 82 18 hvcurveto
          88 18 88 79 99 hhcurveto
          37 32 -6 -20 34 hvcurveto
          6 -4 2 0 0 vvcurveto
          7 1 3 13 5 hvcurveto
          2 4 7 17 3 vvcurveto
          1 5 -1 1 -2 1 -2 2 -32 10 -30 4 rrcurveto
          1 -5 -21 3 -31 hhcurveto
          -136 -110 -99 -105 -22 hvcurveto
          -102 -22 64 -102 140 hhcurveto
          48 32 4 29 62 hvcurveto
          2 2 0 2 1 3 rrcurveto
          endchar
        </CharString>
        <CharString name="copyright.alt">
          833 -156 66 701 66 hstem
          55 66 701 66 vstem
          888 260 rmoveto
          256 55 -127 161 -255 hhcurveto
          -256 -195 -161 -256 -55 hvcurveto
          -255 -54 127 -161 256 hhcurveto
          255 195 161 255 54 hvcurveto
          -66 hmoveto
          -215 -45 -164 -135 -215 hhcurveto
          -216 -106 135 215 45 hvcurveto
          216 46 164 135 216 hhcurveto
          215 106 -135 -216 -46 hvcurveto
          -169 -222 rmoveto
          12 3 6 31 -14 hhcurveto
          -2 -1 0 -10 -21 hvcurveto
          -26 -52 -36 -11 -68 hhcurveto
          -148 -62 115 111 23 hvcurveto
          120 26 120 107 134 hhcurveto
          50 43 -9 -27 45 hvcurveto
          8 -6 3 0 0 vvcurveto
          10 1 5 18 7 hvcurveto
          3 5 9 23 1 4 rrcurveto
          6 2 -4 3 -2 hhcurveto
          -3 3 -42 13 -41 6 rrcurveto
          1 -7 -29 5 -42 hhcurveto
          -184 -149 -135 -142 -30 hvcurveto
          -138 -29 87 -138 190 hhcurveto
          65 43 6 39 83 hvcurveto
          2 2 1 4 1 3 rrcurveto
          endchar
        </CharString>
        <CharString name="currency">
          972 -7 -20 41 70 388 70 hstem
          281 70 389 70 vstem
          777 -16 rmoveto
          30 25 -20 25 -6 8 -60 75 rcurveline
          43 45 33 56 13 60 13 61 -9 55 -25 45 92 76 rcurveline
          10 8 30 25 -19 25 -20 24 -29 -24 -11 -9 -92 -76 rcurveline
          34 -37 -52 20 -60 hhcurveto
          -60 -60 -20 -34 -51 hvcurveto
          -60 76 -7 9 -20 24 -29 -24 rlinecurve
          -31 -25 20 -25 6 -8 60 -76 rcurveline
          -43 -45 -32 -56 -13 -60 -13 -60 8 -56 25 -44 -93 -77 rcurveline
          -10 -8 -30 -25 19 -25 20 -24 29 24 11 9 92 76 rcurveline
          -34 38 52 -20 60 hhcurveto
          61 59 20 34 52 hvcurveto
          60 -75 7 -9 18 -25 31 25 rlinecurve
          -37 294 rmoveto
          -107 -23 -106 -87 -107 hhcurveto
          -107 -69 87 107 23 hvcurveto
          107 23 105 87 107 hhcurveto
          107 70 -87 -107 -23 hvcurveto
          endchar
        </CharString>
        <CharString name="cwm">
          0 endchar
        </CharString>
        <CharString name="cwmascender">
          0 endchar
        </CharString>
        <CharString name="cwmcapital">
          0 endchar
        </CharString>
        <CharString name="d">
          170 callgsubr
          264 80 -71 80 42 78 hintmask 11110110
          -17 callgsubr
          hintmask 11011000
          -23 callsubr
          endchar
        </CharString>
        <CharString name="dagger">
          472 393 75 0 75 161 -20 hstemhm
          245 75 -57 75 0 75 hintmask 01100100
          503 430 rmoveto
          8 2 2 30 -37 hhcurveto
          -15 -24 -4 -8 -26 hvcurveto
          -28 -7 -18 -4 -17 -2 5 17 5 23 23 60 10 24 21 58 7 34 rrcurveto
          8 2 8 37 -37 hhcurveto
          -38 -8 -36 -9 -2 hvcurveto
          -7 -33 -3 -50 -1 -31 -3 -66 -3 -14 -4 -22 rrcurveto
          hintmask 01001000
          -17 2 -15 4 -22 7 rrcurveto
          6 -21 -25 6 -18 hhcurveto
          -41 -7 -37 0 hvcurveto
          hintmask 10010000
          -8 -2 -2 -30 37 hhcurveto
          15 24 4 8 26 hvcurveto
          28 7 18 4 17 2 -5 -16 -4 -17 -16 -36 -30 -70 -1 -7 -11 -53 -26 -120 -27 -163 -14 -129 rrcurveto
          -15 -2 -1 -7 14 hhcurveto
          7 8 1 12 4 hvcurveto
          5 14 64 209 43 198 rrcurveto
          10 49 2 11 62 vvcurveto
          45 2 10 3 22 vhcurveto
          17 -2 15 191 callsubr
          7 37 0 hvcurveto
          endchar
        </CharString>
        <CharString name="daggerdbl">
          472 -15 75 380 74 190 -20 hstemhm
          160 75 -71 75 3 75 -57 75 3 75 -71 75 hintmask 0111001100000000
          513 477 rmoveto
          20 5 -12 17 -23 hhcurveto
          -24 -26 -6 -8 -28 hvcurveto
          -29 -7 -6 -1 -18 -2 5 20 4 11 17 41 12 29 18 42 5 28 rrcurveto
          43 10 -33 0 -4 hhcurveto
          -12 -27 -4 -39 -9 hvcurveto
          -6 -29 0 -40 -1 -35 1 -36 -2 -12 -3 -19 -15 2 -7 1 -26 7 rrcurveto
          9 -29 -21 5 -23 hhcurveto
          -23 -18 -17 -20 -5 hvcurveto
          -16 -3 3 -21 35 hhcurveto
          11 13 0 14 49 hvcurveto
          29 7 8 1 17 2 -6 -20 -3 -11 -18 -41 -11 -29 -18 -42 -6 -28 rrcurveto
          -43 -9 33 0 4 hhcurveto
          12 27 4 39 8 hvcurveto
          hintmask 1101010010000000
          6 29 1 40 35 vvcurveto
          36 2 12 3 19 vhcurveto
          16 -2 6 -1 25 -7 rrcurveto
          -13 42 13 -1 15 hhcurveto
          32 13 18 19 4 hvcurveto
          -96 -455 rmoveto
          8 1 3 30 -37 hhcurveto
          -15 -25 -4 -8 -26 hvcurveto
          -27 -7 -19 -4 -17 -2 6 21 3 10 18 41 12 31 17 41 6 27 rrcurveto
          43 9 -33 0 -4 hhcurveto
          -12 -27 -4 -39 -8 hvcurveto
          -6 -29 0 -42 -1 -33 rrcurveto
          -36 -2 -12 -3 -19 vhcurveto
          -17 2 -14 4 -23 7 rrcurveto
          6 -21 -24 6 -18 hhcurveto
          -41 -8 -37 0 hvcurveto
          -8 -2 -2 -30 37 hhcurveto
          15 25 4 8 25 hvcurveto
          28 7 19 4 16 2 -5 -21 -3 -10 -18 -41 rrcurveto
          hintmask 1000100010000000
          -13 -31 -16 -41 -6 -27 rrcurveto
          -43 -9 33 0 4 hhcurveto
          12 26 4 39 9 hvcurveto
          6 29 0 42 1 33 rrcurveto
          36 1 12 3 19 vhcurveto
          18 -2 14 191 callsubr
          8 37 0 hvcurveto
          endchar
        </CharString>
        <CharString name="dblbracketleft">
          503 -207 70 832 70 hstem
          264 70 107 70 vstem
          438 -172 rmoveto
          20 5 -9 15 -25 hhcurveto
          -75 hlineto
          177 832 rlineto
          75 hlineto
          25 15 15 20 4 hvcurveto
          20 4 -8 15 -23 hhcurveto
          -261 hlineto
          -30 -16 -14 -27 -6 hvcurveto
          -2 -8 -1 -8 -1 -7 -184 -867 rcurveline
          -29 -6 11 -12 28 hhcurveto
          261 hlineto
          23 15 15 20 4 hvcurveto
          -174 35 184 callsubr
        </CharString>
        <CharString name="dblbracketright">
          503 -207 70 832 70 hstem
          110 70 107 70 vstem
          331 -166 rmoveto
          1 8 1 8 2 7 184 867 rcurveline
          29 6 -11 12 -28 hhcurveto
          -260 hlineto
          -23 -16 -15 -20 -4 hvcurveto
          -20 -4 9 -15 25 hhcurveto
          74 hlineto
          -177 -832 rlineto
          -74 hlineto
          -25 -15 -15 -20 -5 hvcurveto
          -20 -4 9 -15 23 hhcurveto
          260 hlineto
          30 16 14 27 6 hvcurveto
          -65 29 184 callsubr
        </CharString>
        <CharString name="dblgrave.ts1">
          625 611 57 callsubr
          hstem
          402 604 rmoveto
          59 callsubr
          208 hmoveto
          59 callsubr
          endchar
        </CharString>
        <CharString name="dblverticalbar">
          505 750 -20 hstemhm
          79 46 151 46 -33 46 151 46 hintmask 11101000
          78 callgsubr
          210 hmoveto
          197 928 96 callsubr
          hintmask 00010000
          -197 -928 rlineto
          -14 -3 -5 -22 23 hhcurveto
          23 5 22 14 3 hvcurveto
          endchar
        </CharString>
        <CharString name="dcaron">
          625 -10 63 415 63 76 87 171 callsubr
          264 80 -71 80 42 78 hintmask 11110110
          -17 callgsubr
          hintmask 11111000
          -23 callsubr
          268 262 18 callsubr
        </CharString>
        <CharString name="dcroat">
          625 -10 63 415 63 44 66 53 -20 hstem
          582 78 -78 80 -78 78 cntrmask 00001110
          706 606 rmoveto
          1 4 rlineto
          132 callsubr
          -22 hlineto
          2 9 -56 callgsubr
          -2 -9 rlineto
          -165 157 callgsubr
          165 hlineto
          -26 -125 rlineto
          55 -29 -47 26 -58 hhcurveto
          -127 -139 -115 -156 -33 hvcurveto
          -152 -32 81 -118 125 hhcurveto
          81 62 52 41 36 hvcurveto
          63 callsubr
          113 531 rlineto
          22 hlineto
          17 17 14 17 4 hvcurveto
          -225 -432 rmoveto
          -7 -31 -24 -28 -27 -22 rrcurveto
          -21 -26 -32 -19 -43 hhcurveto
          -82 -82 59 148 31 hvcurveto
          149 32 115 59 87 hhcurveto
          52 29 -29 -30 14 hvcurveto
          9 -18 -1 -3 -3 -18 rrcurveto
          endchar
        </CharString>
        <CharString name="ddotbelow">
          170 callgsubr
          42 98 124 80 -71 80 42 78 hintmask 11110011
          -17 callgsubr
          hintmask 11010100
          -23 callsubr
          hintmask 00001000
          -194 -526 -104 callgsubr
        </CharString>
        <CharString name="degree">
          469 337 70 207 70 hstem
          169 70 207 70 vstem
          516 510 rmoveto
          96 21 -62 78 -96 hhcurveto
          -96 -93 -78 -96 -21 hvcurveto
          -95 -20 61 -78 96 hhcurveto
          96 94 78 95 20 hvcurveto
          -70 hmoveto
          -57 -12 -55 -46 -58 hhcurveto
          -57 -37 46 57 12 hvcurveto
          58 13 56 46 57 hhcurveto
          58 36 -46 -58 -13 hvcurveto
          endchar
        </CharString>
        <CharString name="diameter">
          972 -117 70 650 70 hstem
          150 70 650 70 vstem
          1042 659 rmoveto
          19 4 -12 16 -19 hhcurveto
          -10 -9 -4 -6 -9 hvcurveto
          -125 -103 rlineto
          57 -55 -82 35 -96 hhcurveto
          -218 -215 -177 -218 -46 hvcurveto
          -20 -96 15 -88 43 -69 -126 -103 rcurveline
          -7 -7 -6 -8 -2 -10 rrcurveto
          -19 -4 13 -16 19 hhcurveto
          10 9 4 6 8 hvcurveto
          125 103 rlineto
          -57 57 80 -35 97 hhcurveto
          218 215 177 218 46 hvcurveto
          21 97 -17 88 -42 69 125 102 rcurveline
          7 7 6 8 2 10 rrcurveto
          -172 -381 rmoveto
          -179 -38 -177 -146 -179 hhcurveto
          -77 -65 27 45 -47 hvcurveto
          554 457 34 -56 11 -71 -16 -77 rlinecurve
          -67 253 rmoveto
          -555 -456 -32 55 -12 71 16 77 rlinecurve
          179 38 177 146 179 hhcurveto
          77 65 -27 -45 47 hvcurveto
          endchar
        </CharString>
        <CharString name="died">
          625 5 -21 360 69 -68 69 221 -20 hstemhm
          176 80 89 80 -65 80 89 80 hintmask 00100001
          667 380 rmoveto
          29 6 -21 7 -20 hhcurveto
          -8 -8 -1 -1 -7 hvcurveto
          -62 hlineto
          hintmask 01011011
          -6 -6 -1 -6 hhcurveto
          -89 hlineto
          39 185 rlineto
          26 6 -10 11 -30 hhcurveto
          -31 -12 -20 -23 -5 hvcurveto
          -2 -8 0 -7 -2 -7 -33 -157 rcurveline
          -189 2 rlineto
          -29 -18 -11 -26 -6 hvcurveto
          -29 -6 21 -7 20 hhcurveto
          8 8 1 1 7 hvcurveto
          62 hlineto
          hintmask 10101100
          6 6 1 6 hhcurveto
          89 hlineto
          -67 -315 rlineto
          -21 -4 -5 -25 40 hhcurveto
          27 16 10 32 7 hvcurveto
          1 7 1 8 1 7 63 297 rcurveline
          189 -2 rlineto
          29 18 11 26 6 hvcurveto
          endchar
        </CharString>
        <CharString name="dieresis">
          625 608 78 hstem
          325 89 74 89 vstem
          -51 callsubr
          endchar
        </CharString>
        <CharString name="dieresis.cap">
          625 572 78 hstem
          302 89 104 89 vstem
          4 callgsubr
          endchar
        </CharString>
        <CharString name="dieresis.dup">
          625 608 78 hstem
          325 89 74 89 vstem
          -51 callsubr
          endchar
        </CharString>
        <CharString name="dieresis.ts1">
          625 619 86 1 -20 hstemhm
          hintmask 01000000
          619 654 rmoveto
          4 18 rlineto
          30 6 -22 4 -19 189 callgsubr
          -24 -9 -30 -15 -3 hvcurveto
          -32 -7 17 -9 24 hhcurveto
          16 hlineto
          21 17 10 25 5 hvcurveto
          -240 11 rmoveto
          hintmask 01000000
          29 7 -13 12 -27 189 callgsubr
          -18 -3 -12 -13 -3 -18 -4 -18 rcurveline
          -30 -7 23 -4 19 hhcurveto
          16 hlineto
          33 8 26 20 4 hvcurveto
          endchar
        </CharString>
        <CharString name="discount">
          625 22 -21 32 103 628 -20 21 -20 hstemhm
          278 104 hintmask 00010000
          710 730 rmoveto
          19 4 -11 16 -19 hhcurveto
          hintmask 11101000
          -8 -1 -20 -3 -12 -20 -14 -16 rlinecurve
          -88 -109 -367 -452 -64 -77 -11 -15 -20 -18 -3 -18 rlinecurve
          -19 -4 12 -16 19 hhcurveto
          1 hlineto
          23 1 14 21 14 17 525 646 rcurveline
          11 13 15 16 3 15 rrcurveto
          -204 -651 rmoveto
          -21 -5 -8 -25 -37 hhcurveto
          -17 hlineto
          -22 -24 5 36 8 hvcurveto
          3 17 rlineto
          15 4 8 30 27 hhcurveto
          1 3 4 0 4 hhcurveto
          17 hlineto
          22 24 -5 -36 -8 hvcurveto
          -127 577 rmoveto
          -38 -8 -25 -6 -29 hhcurveto
          -25 -25 4 38 8 hvcurveto
          3 18 3 13 4 14 13 9 rlinecurve
          10 6 13 3 rlineto
          21 hlineto
          23 26 -3 -39 -8 hvcurveto
          endchar
        </CharString>
        <CharString name="divide">
          972 69 97 77 70 76 97 hstemhm
          458 97 -89 97 -37 97 -89 97 hintmask 01100010
          961 278 51 callgsubr
          -338 139 rmoveto
          8 106 callgsubr
          hintmask 00100100
          -8 35 callsubr
          -68 -320 rmoveto
          hintmask 10001000
          8 106 callgsubr
          hintmask 10010000
          -8 35 callsubr
          endchar
        </CharString>
        <CharString name="divorced">
          625 -123 -21 22 -21 161 72 377 72 160 -20 21 -20 hstemhm
          331 80 257 80 hintmask 00110100
          255 279 rmoveto
          128 28 -57 132 -140 hhcurveto
          -11 hlineto
          -135 -14 -100 -128 -25 -118 rrcurveto
          -126 -26 52 -135 140 hhcurveto
          11 hlineto
          138 14 100 127 25 120 rrcurveto
          672 -1 rmoveto
          125 27 -52 136 -140 hhcurveto
          -12 hlineto
          -140 -18 -97 -122 -26 -120 rrcurveto
          -125 -26 55 -136 140 hhcurveto
          11 hlineto
          136 14 99 127 25 119 rrcurveto
          -433 384 rmoveto
          28 6 -16 10 -22 hhcurveto
          hintmask 10001010
          -5 -5 0 -1 -5 hvcurveto
          -25 -8 -30 -16 -3 hvcurveto
          -157 -739 -2 -6 -2 -6 -1 -6 rlinecurve
          -28 -6 16 -12 23 hhcurveto
          hintmask 01110011
          4 5 1 4 hhcurveto
          9 3 20 8 4 18 3 17 rlinecurve
          157 739 2 6 2 7 2 7 rlinecurve
          -316 -384 rmoveto
          -82 -17 -70 -106 -98 hhcurveto
          -92 -25 91 83 8 hvcurveto
          2 10 rlineto
          83 18 68 110 106 hhcurveto
          90 28 -105 -84 -18 hvcurveto
          678 5 rmoveto
          -1 -7 -2 -7 -2 -6 rrcurveto
          -81 -24 -68 -92 -91 hhcurveto
          -93 -29 103 85 18 hvcurveto
          15 72 47 80 80 29 rrcurveto
          5 13 13 3 13 hhcurveto
          3 hlineto
          91 35 -98 -86 -18 hvcurveto
          endchar
        </CharString>
        <CharString name="dlinebelow">
          625 -189 66 113 139 callgsubr
          264 80 -71 80 42 78 hintmask 01111011
          -17 callgsubr
          hintmask 01101100
          -23 callsubr
          hintmask 10000000
          -19 -531 rmoveto
          2 -95 callgsubr
          6 hvcurveto
          endchar
        </CharString>
        <CharString name="dollar">
          625 -48 -21 62 65 579 65 62 -20 hstemhm
          279 63 -49 63 -63 76 47 63 -49 63 -59 63 hintmask 0010000100000000
          597 197 rmoveto
          15 73 -27 106 -156 26 50 235 rcurveline
          64 -4 40 -20 39 -28 rrcurveto
          -6 8 152 callsubr
          12 4 9 13 5 hvcurveto
          2 6 10 22 1 4 1 9 0 1 -22 14 rrcurveto
          hintmask 0000000010000000
          -69 41 -60 4 -26 1 rrcurveto
          hintmask 0001000001000000
          4 17 rlineto
          12 3 6 32 -31 hhcurveto
          -32 -6 -31 -13 -3 hvcurveto
          hintmask 0000010010000000
          -4 -17 -130 -14 -102 -84 -20 -94 rlinecurve
          -12 -54 18 -43 23 -27 43 -48 57 -11 42 -9 -56 -262 rcurveline
          -79 7 -57 30 -38 30 rrcurveto
          7 -7 -2 0 -4 hhcurveto
          -12 -3 -8 -15 -6 hvcurveto
          -2 -6 -10 -24 -1 -4 rrcurveto
          -2 -6 4 -4 0 vvcurveto
          -2 32 -27 58 -20 vhcurveto
          hintmask 1000100100000000
          53 -19 42 -3 20 -2 rrcurveto
          -34 -7 -6 -26 32 hhcurveto
          31 7 32 12 3 hvcurveto
          3 17 137 16 98 94 20 95 rlinecurve
          -228 218 rmoveto
          -92 16 -30 49 10 45 11 54 68 48 80 9 rrcurveto
          hintmask 0000001000000000
          102 -453 rmoveto
          hintmask 0100010000000000
          -14 -65 -75 -50 -73 -10 53 248 rcurveline
          76 -11 46 -51 -13 -61 rrcurveto
          endchar
        </CharString>
        <CharString name="dollar.oldstyle">
          763 -47 -21 61 64 -58 68 59 68 129 64 247 64 -61 68 60 -20 hstemhm
          105 76 0 76 0 76 cntrmask 0000000011100000
          hintmask 0001110111100000
          733 185 rmoveto
          2 9 24 110 -97 66 -88 17 rlinecurve
          52 244 14 -2 12 -3 13 -4 rlinecurve
          35 -9 31 -14 32 -15 rrcurveto
          -2 4 4 -2 4 hhcurveto
          17 8 31 13 4 hvcurveto
          1 3 1 4 1 3 4 18 -39 11 -15 4 -36 14 -40 12 -41 5 6 25 rcurveline
          22 5 -7 20 -21 hhcurveto
          -21 -17 -20 -21 -3 hvcurveto
          -4 -20 rlineto
          hintmask 1011001111100000
          -19 -18 1 -19 hhcurveto
          -12 -13 0 -2 -13 hvcurveto
          5 20 rlineto
          25 5 -7 17 -21 hhcurveto
          -22 -14 -18 -24 -5 hvcurveto
          -7 -30 -18 -2 -21 -7 -18 -7 rlinecurve
          -72 -25 -83 -49 -25 -77 -2 -9 rcurveline
          -22 -101 87 -56 83 -20 rrcurveto
          12 -3 3 -2 0 vvcurveto
          -57 -268 -59 8 -60 25 -46 26 rlinecurve
          2 -5 -4 4 -6 hhcurveto
          -19 -6 -35 -13 -6 hvcurveto
          -3 -9 -4 -18 43 -13 22 -8 rlinecurve
          43 -17 47 -13 49 -7 -6 -25 rcurveline
          -29 -6 10 -13 20 hhcurveto
          20 15 17 24 5 hvcurveto
          4 19 rlineto
          hintmask 1100101011100000
          94 1 -5 -19 rlineto
          -24 -5 8 -18 21 hhcurveto
          22 13 18 24 5 hvcurveto
          7 30 100 15 116 82 24 84 rlinecurve
          -220 216 rmoveto
          -89 18 46 218 rlineto
          93 hlineto
          -200 -205 rmoveto
          -44 17 -76 14 14 65 11 53 83 33 53 12 rrcurveto
          252 -445 rmoveto
          -13 -63 -85 -28 -51 -19 47 220 rcurveline
          48 -17 69 -25 -15 -68 rrcurveto
          -215 -122 rmoveto
          0 -32 -2 -20 -16 -25 2 0 vhcurveto
          56 264 89 -18 rlineto
          endchar
        </CharString>
</ttFont>
